<?xml version="1.0" encoding="utf-8"?>
<!-- Generator: Adobe Illustrator 16.0.0, SVG Export Plug-In . SVG Version: 6.00 Build 0)  -->
<!DOCTYPE svg PUBLIC "-//W3C//DTD SVG 1.1//EN" "http://www.w3.org/Graphics/SVG/1.1/DTD/svg11.dtd">
<svg version="1.1" xmlns="http://www.w3.org/2000/svg" xmlns:xlink="http://www.w3.org/1999/xlink" x="0px" y="0px" width="27px"
	 height="27px" viewBox="0 0 27 27" enable-background="new 0 0 27 27" xml:space="preserve">
<g id="Layer_1" display="none">
	<g display="inline">
		<circle fill="#0099CC" cx="15.46" cy="10.12" r="6.572"/>
		<g>
			<path fill-rule="evenodd" clip-rule="evenodd" fill="none" stroke="#333333" stroke-miterlimit="10" d="M13.721,4.572v7.002"/>
			<path fill-rule="evenodd" clip-rule="evenodd" fill="none" stroke="#333333" stroke-miterlimit="10" d="M17.223,8.072
				l-7.003,0.002"/>
		</g>
		<polyline fill="none" stroke="#333333" stroke-miterlimit="10" points="19,11.5 23.5,11.5 23.5,26.5 2.5,26.5 2.5,11.5 8,11.5 		
			"/>
		<circle fill="none" stroke="#333333" stroke-miterlimit="10" cx="13.46" cy="8.12" r="6.572"/>
		<rect x="9.5" y="18.5" fill="none" stroke="#333333" stroke-miterlimit="10" width="7" height="8"/>
		<rect x="18.5" y="18.5" fill="none" stroke="#333333" stroke-miterlimit="10" width="3" height="4"/>
		<rect x="4.5" y="18.5" fill="none" stroke="#333333" stroke-miterlimit="10" width="3" height="4"/>
	</g>
</g>
<g id="Layer_2">
	<g>
		<path fill="#0099CC" d="M8.854,18.583c-2.01,0-3.646-1.636-3.646-3.646s1.636-3.646,3.646-3.646s3.646,1.636,3.646,3.646
			S10.864,18.583,8.854,18.583z"/>
	</g>
	<g>
		<path fill="#0099CC" d="M8.854,26.583c-2.01,0-3.646-1.636-3.646-3.646s1.636-3.646,3.646-3.646s3.646,1.636,3.646,3.646
			S10.864,26.583,8.854,26.583z"/>
	</g>
	<g>
		<path fill="#0099CC" d="M21.854,26.583c-2.01,0-3.646-1.636-3.646-3.646s1.636-3.646,3.646-3.646c2.011,0,3.646,1.636,3.646,3.646
			S23.864,26.583,21.854,26.583z"/>
	</g>
	<path fill="#333333" d="M7.854,9.583c-2.01,0-3.646-1.636-3.646-3.646s1.636-3.646,3.646-3.646S11.5,3.928,11.5,5.938
		S9.864,9.583,7.854,9.583z"/>
	<path fill="#333333" d="M20.854,9.583c-2.01,0-3.646-1.636-3.646-3.646s1.636-3.646,3.646-3.646c2.011,0,3.646,1.636,3.646,3.646
		S22.864,9.583,20.854,9.583z"/>
	<g>
		<path fill="#333333" d="M7.854,11.292c1.459,0,2.646,1.187,2.646,2.646s-1.187,2.646-2.646,2.646s-2.646-1.187-2.646-2.646
			S6.395,11.292,7.854,11.292 M7.854,10.292c-2.01,0-3.646,1.636-3.646,3.646s1.636,3.646,3.646,3.646s3.646-1.636,3.646-3.646
			S9.864,10.292,7.854,10.292L7.854,10.292z"/>
	</g>
	<path fill="#333333" d="M20.854,17.583c-2.01,0-3.646-1.636-3.646-3.646s1.636-3.646,3.646-3.646c2.011,0,3.646,1.636,3.646,3.646
		S22.864,17.583,20.854,17.583z"/>
	<g>
		<path fill="#333333" d="M7.854,19.292c1.459,0,2.646,1.187,2.646,2.646s-1.187,2.646-2.646,2.646s-2.646-1.187-2.646-2.646
			S6.395,19.292,7.854,19.292 M7.854,18.292c-2.01,0-3.646,1.636-3.646,3.646s1.636,3.646,3.646,3.646s3.646-1.636,3.646-3.646
			S9.864,18.292,7.854,18.292L7.854,18.292z"/>
	</g>
	<g>
		<path fill="#333333" d="M20.854,19.292c1.459,0,2.646,1.187,2.646,2.646s-1.188,2.646-2.646,2.646s-2.646-1.187-2.646-2.646
			S19.395,19.292,20.854,19.292 M20.854,18.292c-2.01,0-3.646,1.636-3.646,3.646s1.636,3.646,3.646,3.646
			c2.011,0,3.646-1.636,3.646-3.646S22.864,18.292,20.854,18.292L20.854,18.292z"/>
	</g>
	<path fill="none" stroke="#333333" stroke-miterlimit="10" d="M7,6.5h13.25c2.071,0,3.25,1.179,3.25,3.25v0.5
		c0,2.071-1.179,4.25-3.25,4.25H11"/>
	<path fill="none" stroke="#333333" stroke-miterlimit="10" d="M5.062,21.714C3.704,21.15,2.5,19.812,2.5,18.25v-0.5
		c0-1.514,1.021-2.817,2.313-3.409"/>
	<line fill="none" stroke="#333333" stroke-miterlimit="10" x1="18" y1="22.5" x2="11" y2="22.5"/>
	<g>
		<polygon fill="#0099CC" points="6.85,8.231 5.208,6.561 6.003,5.777 6.802,6.591 9.295,3.744 10.134,4.479 		"/>
	</g>
	<g>
		<polygon fill="#0099CC" points="19.85,8.231 18.207,6.561 19.004,5.777 19.803,6.591 22.295,3.744 23.135,4.479 		"/>
	</g>
	<g>
		<polygon fill="#0099CC" points="19.85,16.231 18.207,14.561 19.004,13.777 19.803,14.591 22.295,11.744 23.135,12.479 		"/>
	</g>
</g>
</svg>
