<?xml version="1.0" encoding="utf-8"?>
<!-- Generator: Adobe Illustrator 16.0.0, SVG Export Plug-In . SVG Version: 6.00 Build 0)  -->
<!DOCTYPE svg PUBLIC "-//W3C//DTD SVG 1.1//EN" "http://www.w3.org/Graphics/SVG/1.1/DTD/svg11.dtd">
<svg version="1.1" xmlns="http://www.w3.org/2000/svg" xmlns:xlink="http://www.w3.org/1999/xlink" x="0px" y="0px" width="27px"
	 height="27px" viewBox="0 0 27 27" enable-background="new 0 0 27 27" xml:space="preserve">
<g id="Layer_1" display="none">
	<g display="inline">
		<circle fill="#0099CC" cx="15.46" cy="10.12" r="6.572"/>
		<g>
			<path fill-rule="evenodd" clip-rule="evenodd" fill="none" stroke="#333333" stroke-miterlimit="10" d="M13.721,4.572v7.002"/>
			<path fill-rule="evenodd" clip-rule="evenodd" fill="none" stroke="#333333" stroke-miterlimit="10" d="M17.223,8.072
				l-7.003,0.002"/>
		</g>
		<polyline fill="none" stroke="#333333" stroke-miterlimit="10" points="19,11.5 23.5,11.5 23.5,26.5 2.5,26.5 2.5,11.5 8,11.5 		
			"/>
		<circle fill="none" stroke="#333333" stroke-miterlimit="10" cx="13.46" cy="8.12" r="6.572"/>
		<rect x="9.5" y="18.5" fill="none" stroke="#333333" stroke-miterlimit="10" width="7" height="8"/>
		<rect x="18.5" y="18.5" fill="none" stroke="#333333" stroke-miterlimit="10" width="3" height="4"/>
		<rect x="4.5" y="18.5" fill="none" stroke="#333333" stroke-miterlimit="10" width="3" height="4"/>
	</g>
</g>
<g id="Layer_2">
	<path fill="#0099CC" d="M27,17c0,2.762-2.238,5-5,5H8c-2.761,0-5-2.238-5-5v-7c0-2.762,2.239-5,5-5h14c2.762,0,5,2.238,5,5V17z"/>
	<path fill="none" stroke="#333333" stroke-miterlimit="10" d="M24.5,15.5c0,2.762-2.238,5-5,5h-14c-2.761,0-5-2.238-5-5v-7
		c0-2.761,2.239-5,5-5h14c2.762,0,5,2.239,5,5V15.5z"/>
	<rect x="7.5" y="20.5" fill="none" stroke="#333333" stroke-miterlimit="10" width="10" height="5"/>
	<line fill="none" stroke="#333333" stroke-miterlimit="10" x1="2" y1="25.5" x2="24" y2="25.5"/>
	<line fill="none" stroke="#333333" stroke-miterlimit="10" x1="6" y1="9.5" x2="19" y2="9.5"/>
	<line fill="none" stroke="#333333" stroke-miterlimit="10" x1="6" y1="15.5" x2="19" y2="15.5"/>
	<line fill="none" stroke="#333333" stroke-miterlimit="10" x1="6" y1="12.5" x2="19" y2="12.5"/>
	<circle fill="#333333" cx="8.75" cy="9.5" r="1.266"/>
	<circle fill="#333333" cx="14.75" cy="12.5" r="1.266"/>
	<circle fill="#333333" cx="11.75" cy="15.5" r="1.266"/>
</g>
</svg>
