<?xml version="1.0" encoding="utf-8"?>
<!-- Generator: Adobe Illustrator 16.0.0, SVG Export Plug-In . SVG Version: 6.00 Build 0)  -->
<!DOCTYPE svg PUBLIC "-//W3C//DTD SVG 1.1//EN" "http://www.w3.org/Graphics/SVG/1.1/DTD/svg11.dtd">
<svg version="1.1" id="Layer_1" xmlns="http://www.w3.org/2000/svg" xmlns:xlink="http://www.w3.org/1999/xlink" x="0px" y="0px"
	 width="250.782px" height="37px" viewBox="0 0 250.782 37" enable-background="new 0 0 250.782 37" xml:space="preserve">
<g>
	<path fill="#0099CC" d="M37,32c0,2.762-2.239,5-5,5H5c-2.761,0-5-2.238-5-5V5c0-2.762,2.239-5,5-5h27c2.761,0,5,2.238,5,5V32z"/>
	<g>
		<path d="M16.24,23.619v3.235H4.322v-16.71h3.6v13.475H16.24z"/>
		<path fill="#EAEAEC" d="M28.593,26.854l-3.819-5.424h-2.651v5.424h-3.576v-16.71h7.516c3.624,0,6.3,2.335,6.3,5.644
			c0,2.48-1.508,4.427-3.794,5.229l4.11,5.837H28.593z M22.123,18.147h3.551c1.776,0,2.992-0.925,2.992-2.359
			c0-1.436-1.216-2.359-2.992-2.359h-3.551V18.147z"/>
	</g>
	<g>
		<path d="M48.903,25.387V6.659h-5.057v23.224h16.742v-4.496H48.903z"/>
		<path d="M71.587,12c-2.46,0-4.886,0.677-7.379,1.928l1.674,3.277c1.401-0.709,2.938-1.25,4.578-1.25
			c2.904,0,4.066,1.622,4.066,3.482v0.338c-1.503-0.575-3.075-0.879-4.51-0.879c-4.101,0-7.346,2.366-7.346,5.813
			c0,3.348,2.904,5.577,6.663,5.577c1.913,0,3.929-0.743,5.193-2.163v1.759h4.818V19.438C79.343,14.873,76.199,12,71.587,12z
			 M70.459,26.873c-1.708,0-2.973-0.877-2.973-2.298c0-1.42,1.435-2.468,3.246-2.468c1.367,0,2.665,0.237,3.792,0.644v1.621
			C74.184,25.996,72.373,26.873,70.459,26.873z"/>
		<path d="M94.442,12c-2.459,0-4.51,1.048-5.911,2.841V6.253h-4.988v23.63h4.988v-2.467c1.401,1.825,3.452,2.871,5.911,2.871
			c4.715,0,8.132-3.784,8.132-9.16C102.574,15.786,99.158,12,94.442,12z M93.007,26.129c-2.426,0-4.203-1.757-4.476-4.326v-1.352
			c0.273-2.536,2.05-4.293,4.476-4.293c2.768,0,4.715,2.061,4.715,4.969C97.723,24.068,95.775,26.129,93.007,26.129z"/>
		<path fill="#0099CC" d="M126.079,29.883l-5.775-8.113c3.212-1.115,5.33-3.82,5.33-7.269c0-4.597-3.758-7.842-8.849-7.842h-10.558
			v23.224h5.022v-7.538h3.725l5.364,7.538H126.079z M111.25,11.222h4.989c2.494,0,4.203,1.286,4.203,3.279
			c0,1.995-1.709,3.279-4.203,3.279h-4.989V11.222z"/>
		<path fill="#0099CC" d="M137.59,25.928c-2.083,0-3.621-1.285-4.202-3.177h12.744c0-6.593-3.246-10.751-8.781-10.751
			c-5.159,0-9.088,3.82-9.088,9.094c0,5.373,4.1,9.193,9.362,9.193c2.596,0,5.637-1.081,7.209-2.702l-3.178-3.213
			C140.7,25.284,138.991,25.928,137.59,25.928z M137.556,16.361c2.016,0,3.314,1.114,3.792,2.839h-7.892
			C134.105,17.442,135.677,16.361,137.556,16.361z"/>
		<path fill="#0099CC" d="M156.141,30.287c4.339,0,7.175-2.195,7.175-5.645c0-3.819-3.382-4.835-6.424-5.611
			c-2.391-0.644-3.109-0.913-3.109-1.858c0-0.609,0.854-1.049,2.084-1.049c1.503,0,3.349,0.574,4.955,1.556l2.015-3.517
			c-1.947-1.284-4.442-2.163-6.97-2.163c-4.168,0-6.936,2.366-6.901,5.68c0.034,3.447,2.836,4.428,6.458,5.307
			c1.811,0.473,3.109,0.811,3.109,1.893c0,0.777-0.957,1.318-2.29,1.318c-2.357,0-4.339-0.845-5.911-1.96l-2.152,3.414
			C150.298,29.342,153.305,30.287,156.141,30.287z"/>
		<path fill="#0099CC" d="M178.382,12.406v10.445l-0.035-0.101c0,1.892-1.605,3.378-3.69,3.378c-1.981,0-3.348-1.486-3.348-3.649
			V12.406h-4.817v11.121c0,3.955,2.733,6.76,6.56,6.76c2.289,0,4.271-1.014,5.331-2.602v2.197h4.988V12.406H178.382z"/>
		<path fill="#0099CC" d="M187.639,29.883h4.988V6.253h-4.988V29.883z"/>
		<path fill="#0099CC" d="M206.259,25.556c-0.341,0.338-1.024,0.573-1.708,0.573c-0.922,0-1.674-0.811-1.674-1.959v-7.776h3.826
			v-3.987h-3.826v-4.8h-4.783v4.8h-2.426v3.987h2.426v8.554c0,3.145,2.187,5.34,5.295,5.34c1.435,0,3.041-0.607,4.066-1.521
			L206.259,25.556z"/>
		<path d="M211.629,30.146c1.084,0,1.97-0.919,1.97-2.036c0-1.03-0.886-1.95-1.97-1.95c-1.151,0-2.059,0.92-2.059,1.95
			C209.571,29.227,210.479,30.146,211.629,30.146z"/>
		<path d="M221.833,30.146c3.386,0,6.22-2.715,6.22-5.934c0-3.221-2.833-5.913-6.22-5.913c-3.408,0-6.264,2.692-6.264,5.913
			C215.569,27.431,218.424,30.146,221.833,30.146z M221.833,27.451c-1.726,0-3.165-1.488-3.165-3.239
			c0-1.753,1.439-3.221,3.165-3.221c1.704,0,3.143,1.468,3.143,3.221C224.976,25.963,223.537,27.451,221.833,27.451z"/>
		<path d="M233.474,20.664V18.56h-3.232v11.323h3.232v-5.41c0-2.124,1.527-3.481,3.917-3.481v-2.692
			C235.643,18.299,234.226,19.195,233.474,20.664z"/>
		<path d="M247.528,18.56v1.534c-0.775-1.073-2.235-1.795-3.785-1.795c-2.878,0-5.069,2.211-5.069,5.364
			c0,3.154,2.191,5.387,5.069,5.387c1.505,0,2.877-0.656,3.785-1.751v1.247c0,1.469-1.328,2.41-3.408,2.41
			c-1.329,0-2.656-0.417-3.409-1.073l-1.128,2.256c1.128,0.875,3.032,1.51,5.046,1.51c3.607,0,6.153-2.057,6.153-4.971V18.56
			H247.528z M244.762,26.357c-1.616,0-2.767-1.117-2.767-2.694c0-1.576,1.15-2.672,2.767-2.672c1.615,0,2.767,1.096,2.767,2.672
			C247.528,25.24,246.377,26.357,244.762,26.357z"/>
	</g>
</g>
</svg>
