<?xml version="1.0" encoding="utf-8"?>
<!-- Generator: Adobe Illustrator 16.0.0, SVG Export Plug-In . SVG Version: 6.00 Build 0)  -->
<!DOCTYPE svg PUBLIC "-//W3C//DTD SVG 1.1//EN" "http://www.w3.org/Graphics/SVG/1.1/DTD/svg11.dtd">
<svg version="1.1" id="Layer_1" xmlns="http://www.w3.org/2000/svg" xmlns:xlink="http://www.w3.org/1999/xlink" x="0px" y="0px"
	 width="40px" height="32.55px" viewBox="0 0 33.584 27.333" enable-background="new 0 0 33.584 27.333" xml:space="preserve">
<g>
	<g>
		<path id="teeth-left" fill="none" stroke="#000000" stroke-linecap="round" stroke-linejoin="round" stroke-miterlimit="10" d="M2.866,5.065
			l4.98,6.742l0.067,0.113c-0.109,0.264-0.162,0.542-0.162,0.83v1.667c0,0.312,0.044,0.611,0.153,0.893L7.86,15.368l-4.651,7.008
			L3.156,22.45C1.551,20.848,0.5,18.915,0.5,16.833V10.5c0-2.031,0.898-3.92,2.309-5.497L2.866,5.065z"/>
	</g>
</g>
<g>
	<g>
		<path id="teeth-bottom" fill="none" stroke="#000000" stroke-linecap="round" stroke-linejoin="round" stroke-miterlimit="10" d="M3.209,22.375
			l4.619-6.959l0.079-0.1c0.479,1.217,2.183,2.1,6.844,2.1h4.417c3.405,0,5.474-0.769,6.278-1.861l0.057,0.064l5.02,6.409
			l0.063,0.11c-2.777,2.818-7.345,4.693-10.918,4.693h-6.25c-3.445,0-7.619-1.742-10.271-4.394L3.209,22.375z"/>
	</g>
</g>
<g>
	<g>
		<path id="teeth-right" fill="none" stroke="#000000" stroke-linecap="round" stroke-linejoin="round" stroke-miterlimit="10" d="M30.392,4.653
			c1.629,1.644,2.692,3.664,2.692,5.847v6.333c0,1.949-0.983,3.769-2.499,5.307l-0.068-0.118l-4.996-6.38l-0.074-0.086
			c0.26-0.352,0.388-0.735,0.388-1.139V12.75c0-0.366-0.103-0.716-0.299-1.04l0.065-0.042l4.752-6.915L30.392,4.653z"/>
	</g>
</g>
<g>
	<g>
		<path id="teeth-top" fill="none" stroke="#000000" stroke-linecap="round" stroke-linejoin="round" stroke-miterlimit="10" d="M7.904,11.941
			c0.507-1.264,2.301-2.191,5.764-2.191h6.5c2.799,0,4.683,0.82,5.373,1.968l0.063-0.057l4.754-6.919l0.049-0.074
			C27.917,2.144,24.097,0.5,20.751,0.5h-8.084c-3.496,0-7.44,1.793-9.865,4.51l0.065,0.055l5.029,6.81L7.904,11.941z"/>
	</g>
</g>
<path id="teeth-center" fill="none" stroke="#000000" stroke-linecap="round" stroke-linejoin="round" stroke-miterlimit="10" d="
	M25.833,14.417c0,1.658-2.166,3-6.666,3H14.75c-5.75,0-7-1.342-7-3V12.75c0-1.657,1.75-3,5.917-3h6.5c3.584,0,5.666,1.343,5.666,3
	V14.417z"/>
</svg>
