<?xml version="1.0" encoding="utf-8"?>
<!-- Generator: Adobe Illustrator 16.0.0, SVG Export Plug-In . SVG Version: 6.00 Build 0)  -->
<!DOCTYPE svg PUBLIC "-//W3C//DTD SVG 1.1//EN" "http://www.w3.org/Graphics/SVG/1.1/DTD/svg11.dtd">
<svg version="1.1" id="Layer_1" xmlns="http://www.w3.org/2000/svg" xmlns:xlink="http://www.w3.org/1999/xlink" x="0px" y="0px"
	 width="40px" height="93px" viewBox="-7.856 -14.07 34.996 69.991" enable-background="new -7.856 -14.07 34.996 69.991"
	 xml:space="preserve">
<g>
	<path id="cervical" fill="none" d="M18.62,42.974c-0.018-0.063-0.031-0.125-0.047-0.188l-0.07-0.285c-0.242-0.99-0.519-2.111-0.994-2.924
		c-0.798-1.361-1.153-2.82-1.124-4.595c0.006-0.273-0.214-0.501-0.487-0.508c-0.033-0.012-0.068-0.018-0.105-0.021
		c-2.049-0.146-2.505-0.686-2.6-1.564c-0.022-0.213-0.178-0.387-0.386-0.434l-0.621-0.141c-0.433-0.046-0.858-0.066-1.282-0.066
		c-2.055,0-4.02,0.492-5.872,1.01c-0.244,0.068-0.451,0.152-0.637,0.261c-0.442,0.261-0.689,0.633-0.875,0.964
		c-1.336,2.41-2.311,5.154-3.02,8.49H18.62z"/>
</g>
<g id="root">
	<g>
		<path fill="none" stroke="#000000" stroke-linecap="round" stroke-linejoin="round" stroke-miterlimit="10" d="M12.693,32.944
			l-0.563-0.13c-2.397-0.257-4.682,0.289-6.969,0.928c-0.204,0.057-0.372,0.125-0.518,0.209L4.45,33.535
			c-0.39-1-0.278-1.91,0.223-2.891c3.033-5.923,3.635-12.199,2.67-18.712c-0.517-3.497-1.211-7-0.491-10.559
			c0,0,1.979-3.275,6.031,2.861c1.563,2.895,2.326,8.826,2.384,9.135c0.335,1.846,0.445,3.613,0.126,5.547
			c-0.231,1.4-0.362,2.981-0.274,4.545c0.16,2.846,1.603,5.484,1.105,8.395c-0.18,1.05-0.319,2.089-0.34,3.118l-0.131-0.021"/>
		<path fill="none" stroke="#000000" stroke-linecap="round" stroke-linejoin="round" stroke-miterlimit="10" d="M9.227,32.766
			c0,0-1.292-0.084-1.5-1.75c-0.208-1.665-0.063-2.354-0.063-2.354"/>
	</g>
	<path fill="none" stroke="#000000" stroke-linecap="round" stroke-linejoin="round" stroke-miterlimit="10" d="M15.754,34.955
		c-1.917-0.138-2.912-0.635-3.061-2.011c-0.074-0.687,0.063-1.587,0.396-2.771"/>
</g>
<g id="crown">
	<g>
		<path fill="none" stroke="#000000" stroke-linecap="round" stroke-linejoin="round" stroke-miterlimit="10" d="M4.212,48.653
			c0.814,0.519,1.725,0.49,2.641,0.49c0.592,0,1.163-0.14,1.702,0.446c1.465,1.593,2.942,1.402,4.298-0.219"/>
		<path fill="none" stroke="#000000" stroke-linecap="round" stroke-linejoin="round" stroke-miterlimit="10" d="M15.885,34.976
			c-0.026,1.637,0.255,3.252,1.192,4.854c0.481,0.821,0.752,2.032,1.011,3.076c0.744,3,1.338,6.081-0.688,8.858
			c-2.534,3.478-3.951,4.723-8.392,2.647c-1.62-0.756-3.251-1.574-4.747-2.484C1.914,50.503,0.152,47.8,0.56,45.324
			c0.594-3.598,1.561-7.291,3.396-10.602c0.198-0.355,0.395-0.603,0.689-0.773c0.146-0.084,0.313-0.152,0.518-0.209
			c2.287-0.639,4.569-1.184,6.969-0.928l0.563,0.13c0.146,1.376,1.144,1.873,3.061,2.011"/>
		<path fill="none" stroke="#000000" stroke-linecap="round" stroke-linejoin="round" stroke-miterlimit="10" d="M13.092,48.414
			c-0.032,1.108,0.254,2.352,1.438,2.309c1.095-0.039,2.108-0.906,2.163-2.309"/>
	</g>
</g>
</svg>
