<?xml version="1.0" encoding="utf-8"?>
<!-- Generator: Adobe Illustrator 16.0.0, SVG Export Plug-In . SVG Version: 6.00 Build 0)  -->
<!DOCTYPE svg PUBLIC "-//W3C//DTD SVG 1.1//EN" "http://www.w3.org/Graphics/SVG/1.1/DTD/svg11.dtd">
<svg version="1.1" id="Layer_1" xmlns="http://www.w3.org/2000/svg" xmlns:xlink="http://www.w3.org/1999/xlink" x="0px" y="0px"
	 width="40px" height="93px" viewBox="-7.879 -11 34.996 69.992" enable-background="new -7.879 -11 34.996 69.992"
	 xml:space="preserve">
<g>
	<path id="cervical" fill="none" d="M18.085,47.311c-0.212-0.442-0.461-0.875-0.75-1.293l-0.393-0.556c-0.93-1.31-1.893-2.659-1.756-4.354
		c0.072-0.892-0.832-1.729-1.023-1.834c-0.206-0.107-0.402-0.229-0.596-0.358c-0.706-0.479-1.314-1.063-1.961-1.676
		c-0.301-0.287-0.603-0.574-0.914-0.854c-1.025-0.911-2.167-1.374-3.396-1.374c-0.775,0-1.589,0.188-2.379,0.55l-0.473,0.176
		c-0.157,0.059-0.275,0.188-0.313,0.354c-0.248,1.051-0.689,1.947-1.346,2.742c-0.023,0.025-0.045,0.061-0.063,0.095l-0.24,0.479
		c-0.018,0.033-0.031,0.072-0.041,0.111c-0.241,1.084-0.547,2.176-0.84,3.229c-0.414,1.479-0.832,2.996-1.104,4.562L18.085,47.311
		L18.085,47.311z"/>
</g>
<g id="root">
	<g>
		<path fill="none" stroke="#000000" stroke-linecap="round" stroke-linejoin="round" stroke-miterlimit="10" d="M13.493,38.67
			c0.854-2.695-0.314-5.419,0.164-8.173c0.378-2.176-0.661-19.822-0.646-25.908c0-0.726,0.063-1.446-0.227-2.164
			C11.817,0.02,11.692-0.02,9.413,1.709l-0.24,0.479C8.613,2.91,8.022,3.606,7.499,4.352c-1.716,2.444-2.802,5.185-2.332,8.146
			c0.333,2.101,0.456,4.168,0.384,6.251c-0.174,5.043-0.539,10.079-0.658,15.123c-0.021,0.816-0.1,1.596-0.272,2.334l0.474-0.175
			c1.91-0.864,3.702-0.66,5.271,0.729c0.972,0.863,1.842,1.832,2.926,2.567L13.493,38.67z"/>
	</g>
</g>
<g id="crown">
	<g>
		<path fill="none" stroke="#000000" stroke-linecap="round" stroke-linejoin="round" stroke-miterlimit="10" d="M4.62,36.205
			c-0.25,1.063-0.698,2.04-1.447,2.941l-0.239,0.479c-0.801,3.584-2.203,7.006-2.235,10.8c-0.022,2.59,1.071,4.18,3.219,4.98
			c1.774,0.662,3.367,1.712,4.931,2.609c1.522,0.883,2.587,0.375,3.391-0.224c1.549-1.156,3.103-2.241,4.856-3.045
			c1.139-0.522,1.442-1.483,1.442-2.644c0.002-2.09-0.349-3.978-1.613-5.81c-1.057-1.526-2.406-3.103-2.234-5.231
			c0.051-0.609-0.647-1.289-0.764-1.354c-0.222-0.119-0.434-0.249-0.638-0.389c-1.084-0.734-1.955-1.703-2.926-2.566
			c-1.567-1.392-3.359-1.596-5.27-0.729L4.62,36.205z"/>
		<path fill="none" stroke="#000000" stroke-linecap="round" stroke-linejoin="round" stroke-miterlimit="10" d="M3.413,51.146
			c0.899,0.521,1.567,2.006,2.935,0.53c0.256-0.274,1.244,0.039,1.862,0.202c1.842,0.49,3.441,0.141,4.828-1.349
			c0.646,1.393,0.934,3.198,3.096,2.298"/>
	</g>
</g>
</svg>
