<?xml version="1.0" encoding="utf-8"?>
<!-- Generator: Adobe Illustrator 16.0.0, SVG Export Plug-In . SVG Version: 6.00 Build 0)  -->
<!DOCTYPE svg PUBLIC "-//W3C//DTD SVG 1.1//EN" "http://www.w3.org/Graphics/SVG/1.1/DTD/svg11.dtd">
<svg version="1.1" id="Layer_1" xmlns="http://www.w3.org/2000/svg" xmlns:xlink="http://www.w3.org/1999/xlink" x="0px" y="0px"
	 width="40px" height="93px" viewBox="-6.008 0 29.996 69.746" enable-background="new -6.008 0 29.996 69.746"
	 xml:space="preserve">
<g>
	<path id="cervical" fill="none" d="M0.639,14.656c0.107,0.545,0.221,1.086,0.333,1.621c0.304,1.443,0.616,2.938,0.798,4.422
		c0.031,0.264,0.271,0.455,0.528,0.434c0.021,0.011,0.039,0.027,0.063,0.036c1.488,0.501,2.604,1.257,3.317,2.245
		c1.099,1.525,2.435,2.777,4.763,1.6c0.004-0.001,0.384-0.18,0.556,0.059c0.063,0.086,0.15,0.138,0.245,0.168
		c0.081,0.135,0.216,0.232,0.384,0.244c0.287,0.025,0.515-0.188,0.534-0.463l0.015-0.209c0.054-0.777,0.499-1.597,0.863-2.146
		c1.598-2.409,2.863-5.096,3.801-8.01L0.639,14.656L0.639,14.656z"/>
</g>
<g id="root">
	<g>
		<path fill="none" stroke="#000000" stroke-linecap="round" stroke-linejoin="round" stroke-miterlimit="10" d="M2.521,20.695
			c1.416,0.477,2.713,1.246,3.563,2.426c1.102,1.531,2.208,2.418,4.131,1.445c0.286-0.145,0.856-0.236,1.185,0.209l0.275,0.002
			c-0.005,0.068-0.01,0.139-0.015,0.207c-0.455,6.646-0.912,13.28-0.089,19.959c0.418,3.375,0.819,6.742,1.521,10.068
			c0.143,0.676-0.074,4.651-1.437,4.644c-1.479-0.011-4.128-4.091-4.488-5.563c-0.837-3.441-1.65-6.915-2.609-10.322
			c-0.705-2.506-0.518-5.01-0.978-7.492c-0.801-4.33-1.131-8.81-1.15-13.183c-0.005-0.829-0.065-1.646-0.164-2.457"/>
	</g>
</g>
<g id="crown">
	<g>
		<path fill="none" stroke="#000000" stroke-linecap="round" stroke-linejoin="round" stroke-miterlimit="10" d="M2.266,20.637
			c-0.479-3.938-1.834-7.696-1.764-11.705c0.024-1.417,0.169-2.28,1.272-3.147C2.923,4.883,3.87,3.723,4.921,2.697
			c2.881-2.808,5.547-2.974,8.369-0.211c2.31,2.26,4.816,4.725,4.049,8.356c-0.864,4.092-2.372,8.006-4.718,11.547
			c-0.467,0.703-0.89,1.57-0.945,2.388c-0.005,0.068-0.01,0.139-0.015,0.207"/>
		<path fill="none" stroke="#000000" stroke-linecap="round" stroke-linejoin="round" stroke-miterlimit="10" d="M3.962,6.775
			c0.801-0.064,1.087-0.849,1.646-1.248C8.61,3.375,9.127,3.332,11.887,5.57c0.84,0.68,1.904,1.101,2.395,2.166"/>
		<path fill="none" stroke="#000000" stroke-linecap="round" stroke-linejoin="round" stroke-miterlimit="10" d="M2.521,20.695
			c1.416,0.477,2.713,1.246,3.563,2.426c1.102,1.531,2.208,2.418,4.131,1.445c0.286-0.145,0.856-0.236,1.185,0.209"/>
	</g>
</g>
</svg>
