<?xml version="1.0" encoding="utf-8"?>
<!-- Generator: Adobe Illustrator 16.0.0, SVG Export Plug-In . SVG Version: 6.00 Build 0)  -->
<!DOCTYPE svg PUBLIC "-//W3C//DTD SVG 1.1//EN" "http://www.w3.org/Graphics/SVG/1.1/DTD/svg11.dtd">
<svg version="1.1" id="Layer_1" xmlns="http://www.w3.org/2000/svg" xmlns:xlink="http://www.w3.org/1999/xlink" x="0px" y="0px"
	 width="40px" height="93px" viewBox="-3.708 0 29.996 69.746" enable-background="new -3.708 0 29.996 69.746"
	 xml:space="preserve">
<g>
	<path id="cervical" fill="none" d="M1.137,15.766c0.09,0.26,0.178,0.521,0.268,0.777C1.527,16.9,1.65,17.256,1.77,17.609
		c0.179,0.534,0.362,1.063,0.547,1.59c0.543,1.561,1.059,3.033,1.398,4.582c0.032,0.146,0.178,0.289,0.311,0.356l0.529,0.271
		c1.504,0.783,4.707,3.063,4.811,3.127c0.813,0.398,1.595,0.602,2.323,0.602c2.128,0,3.531-1.678,4.826-3.469l0.269-0.555
		c0.233-0.754,0.618-1.439,1.024-2.168c0.457-0.818,0.93-1.666,1.188-2.638c0.119,0,0.361,0.083,0.563,0.218l0.25,0.24
		c0.146,0.139,0.355,0.178,0.541,0.102c0.185-0.078,0.303-0.256,0.307-0.455c0.002-0.137,0.054-0.309,0.123-0.545
		c0.048-0.155,0.101-0.332,0.158-0.569c0,0,0.283-1.511,0.472-2.531L1.137,15.766L1.137,15.766z"/>
</g>
<g id="root_1_">
	<g>
		<path fill="none" stroke="#000000" stroke-linecap="round" stroke-linejoin="round" stroke-miterlimit="10" d="M13.185,54.686
			c1.174-2.601,1.41-5.447,2.152-8.162c0.971-3.541,1.891-7.1,3.148-10.549c0.631-1.727,0.738-3.539,1.121-5.3
			c0.809-3.701,0.508-7.503,0.547-11.269l0.021-0.033l-0.271-0.207c-0.479-0.342-1.225-0.602-1.391,0.014
			c-0.468,1.738-1.685,3.1-2.211,4.786l-0.238,0.479c-1.614,2.219-3.334,4.186-6.479,2.641c0,0-3.247-2.313-4.8-3.12l-0.531-0.271
			l-0.05-0.021c0.26,1.178,0.417,2.385,0.398,3.651c-0.035,2.465,1.565,4.611,1.734,7.192c0.184,2.791-0.514,5.739,0.859,8.399
			c0.924,1.792,0.012,3.528,0.025,5.286c0.03,3.521,0.176,7.051,0.493,10.557c0.132,1.438,0.339,3.024,1.548,4.229
			c2.777-2.005,3.599-4.742,3.681-7.826"/>
	</g>
</g>
<g id="crown">
	<g>
		<path fill="none" stroke="#000000" stroke-linecap="round" stroke-linejoin="round" stroke-miterlimit="10" d="M3.824,8.846
			c0.822-0.129,0.766-1.014,1.218-1.42c0.929-0.836,1.909-1.508,3.349-1.26c1.265,0.22,2.575,0.053,3.59-0.926
			c0.638-0.613,1.246-1.18,2.154-1.461c2.381-0.742,3.739,0.209,3.604,2.666c-0.032,0.563-0.153,1.119-0.233,1.68"/>
		<path fill="none" stroke="#000000" stroke-linecap="round" stroke-linejoin="round" stroke-miterlimit="10" d="M6.704,14.605
			c2.246,2.531,5.034,3.604,8.691,2.955c0.53-1.624,2.312-2.934,2.349-5.115"/>
		<path fill="none" stroke="#000000" stroke-linecap="round" stroke-linejoin="round" stroke-miterlimit="10" d="M20.153,19.406
			c0.005-0.322,0.15-0.641,0.289-1.201c0,0,0.361-1.932,0.539-2.901c0.572-3.147,1.104-6.339,1.1-9.578
			c-0.004-1.765-0.471-3.553-1.979-4.231c-2.412-1.09-5.275-1.539-7.582-0.002c-2.148,1.433-4.457,1.709-6.785,2.021
			C3.458,3.818,1.574,5.445,0.898,7.631c-1.096,3.535,0.308,6.716,1.345,9.82c0.696,2.09,1.493,4.105,1.96,6.223l0.05,0.02
			l0.531,0.271c1.553,0.809,4.8,3.121,4.8,3.121c3.146,1.544,4.865-0.422,6.479-2.641l0.238-0.48
			c0.526-1.688,1.743-3.047,2.211-4.786c0.166-0.614,0.909-0.354,1.391-0.015L20.153,19.406z"/>
	</g>
</g>
</svg>
