<?xml version="1.0" encoding="utf-8"?>
<!-- Generator: Adobe Illustrator 16.0.0, SVG Export Plug-In . SVG Version: 6.00 Build 0)  -->
<!DOCTYPE svg PUBLIC "-//W3C//DTD SVG 1.1//EN" "http://www.w3.org/Graphics/SVG/1.1/DTD/svg11.dtd">
<svg version="1.1" id="Layer_1" xmlns="http://www.w3.org/2000/svg" xmlns:xlink="http://www.w3.org/1999/xlink" x="0px" y="0px"
	 width="40px" height="93px" viewBox="-8.128 -11.411 34.995 69.991" enable-background="new -8.128 -11.411 34.995 69.991"
	 xml:space="preserve">
<path id="cervical" fill="none" d="M19.085,46.226c-0.014-0.193-0.024-0.393-0.041-0.586l-0.041-0.604c-0.217-3.248-1.332-5.894-3.313-7.861
	c-0.422-0.416-0.885-0.807-1.381-1.158c-1.771-1.263-2.965-1.774-4.12-1.774l0,0c-1.288,0-2.493,0.655-4.149,2.266
	c-0.493,0.285-0.968,0.662-1.409,1.123c-2.011,2.093-2.822,5.263-2.826,5.31L1.611,43.36c-0.407,0.86-0.828,1.752-0.893,2.871
	L19.085,46.226L19.085,46.226z"/>
<g>
	<path fill="none" stroke="#000000" stroke-linecap="round" stroke-linejoin="round" stroke-miterlimit="10" d="M15.34,37.533
		c-0.396-0.396-0.835-0.767-1.318-1.107c-3.316-2.363-4.853-2.275-7.675,0.482c-0.502,0.28-0.953,0.649-1.354,1.065L4.9,37.625
		c-0.195-2.33,0.052-4.708,0.371-6.941c0.527-3.68,0.707-7.392,1.252-11.065c0.457-3.068,0.921-6.115,1.723-9.115
		c0.4-1.498,2.541-7.494,3.477-9.149c0.938-1.656,2.409-1.361,2.875,5.125c0.447,6.228,0.131,13.147,0.145,19.39
		c0.003,1.442,0.058,2.879,0.21,4.322c0.228,2.15,0.83,4.281,0.509,6.479l-0.098,0.717L15.34,37.533z"/>
</g>
<g>
	<path fill="none" stroke="#000000" stroke-linecap="round" stroke-linejoin="round" stroke-miterlimit="10" d="M2.261,43.146
		c-0.457,0.996-0.978,1.92-1.045,3.113c-0.039,0.689-0.629,0.717-1.115,4.324c-0.485,3.608,6.154,6.205,11.288,7.42
		c1.115,0.324,1.775-0.426,2.153-1.418c0,0,2.714-1.642,3.89-3.564c1.588-2.604,1.25-5.307,1.073-7.947
		c-0.188-2.863-1.125-5.514-3.167-7.537c-0.396-0.396-0.835-0.768-1.318-1.107c-3.316-2.363-4.853-2.272-7.675,0.482
		c-0.502,0.279-0.953,0.648-1.354,1.064C3.052,39.996,2.261,43.146,2.261,43.146z"/>
	<path fill="none" stroke="#000000" stroke-linecap="round" stroke-linejoin="round" stroke-miterlimit="10" d="M14.021,52.985
		c-0.268-2.063,1.67-4.457,4.08-5.041"/>
	<path fill="none" stroke="#000000" stroke-linecap="round" stroke-linejoin="round" stroke-miterlimit="10" d="M8.021,52.505
		c0.695-1.813,2.087-2.365,3.829-1.873c0.645,0.182,1.354,0.023,1.934,0.434"/>
	<path fill="none" stroke="#000000" stroke-linecap="round" stroke-linejoin="round" stroke-miterlimit="10" d="M8.261,51.063
		c-0.289-1.188-1.342-1.688-2.16-2.397"/>
	<path fill="none" stroke="#000000" stroke-linecap="round" stroke-linejoin="round" stroke-miterlimit="10" d="M5.14,47.705
		c0.054,0.442-0.183,1.002,0.48,1.235c0.664-0.233,0.428-0.793,0.48-1.235"/>
</g>
</svg>
