<?xml version="1.0" encoding="utf-8"?>
<!-- Generator: Adobe Illustrator 16.0.0, SVG Export Plug-In . SVG Version: 6.00 Build 0)  -->
<!DOCTYPE svg PUBLIC "-//W3C//DTD SVG 1.1//EN" "http://www.w3.org/Graphics/SVG/1.1/DTD/svg11.dtd">
<svg version="1.1" id="Layer_1" xmlns="http://www.w3.org/2000/svg" xmlns:xlink="http://www.w3.org/1999/xlink" x="0px" y="0px"
	 width="40px" height="93px" viewBox="-3.623 0 29.996 69.746" enable-background="new -3.623 0 29.996 69.746"
	 xml:space="preserve">
<g>
	<path id="cervical" fill="none" d="M1.503,14.694c0.672,2.887,1.524,5.811,2.817,8.616c0.084,0.183,0.156,0.365,0.216,0.545
		c0.079,0.24,0.331,0.39,0.575,0.332L5.54,24.1c1.193-0.283,2.029,0.31,2.997,0.996c0.462,0.326,0.94,0.664,1.474,0.907
		c0.195,0.088,0.391,0.235,0.596,0.394c0.267,0.203,0.542,0.412,0.881,0.547c1.584,0.621,2.688,0.717,3.581,0.308
		c0.867-0.397,1.516-1.28,2.039-2.776c0.166-0.472,0.363-0.933,0.562-1.395c0.212-0.496,0.427-0.994,0.604-1.51
		c0.314-0.908,0.467-1.706,0.474-2.512c0.007-0.801,0.461-1.545,0.942-2.334c0.386-0.635,0.776-1.285,1.004-2.03L1.503,14.694
		L1.503,14.694z"/>
</g>
<g id="root">
	<g>
		<path fill="none" stroke="#000000" stroke-linecap="round" stroke-linejoin="round" stroke-miterlimit="10" d="M18.145,21.694
			c0.973,0.579,0.838,1.567,0.688,2.394c-0.322,1.756-0.516,3.514-0.438,5.286c0.201,4.559-0.867,8.863-2.063,13.229
			c-0.739,2.695-1.266,5.523-1.648,8.355c-0.383,2.802-1.072,5.555-1.145,8.414c-0.018,0.729-0.412,1.648-0.949,2.121
			c-1.507,1.329-2.205-0.903-2.246-1.178c-0.397-2.678-1.772-5.026-2.338-7.65c-0.757-3.516-1.207-7.08-2.042-10.587
			C4.709,36.81,3.46,31.481,5.122,25.995c0.199-0.662,0.166-1.461-0.109-2.296l0.412-0.085c2.051-0.489,3.225,1.221,4.793,1.934
			c0.52,0.234,0.929,0.724,1.453,0.931c2.666,1.047,3.993,0.606,4.964-2.168c0.344-0.979,0.819-1.908,1.165-2.903L18.145,21.694z"/>
	</g>
</g>
<g id="crown">
	<g>
		<path fill="none" stroke="#000000" stroke-linecap="round" stroke-linejoin="round" stroke-miterlimit="10" d="M4.944,9.454
			C5.432,5.7,5.458,5.801,9.255,4.861c2.868-0.711,5.703-1.233,8.579-0.749c0.191,1.028,0.371,1.985,0.55,2.94"/>
		<path fill="none" stroke="#000000" stroke-linecap="round" stroke-linejoin="round" stroke-miterlimit="10" d="M21.502,2.732
			c0.864,2.375,1.027,4.779,0.23,7.197c-0.428,1.297-1.242,2.536-1.362,3.851c-0.188,2.058-2.106,3.419-2.125,5.274
			c-0.009,0.851-0.19,1.618-0.446,2.352c-0.346,0.994-0.82,1.925-1.165,2.902c-0.972,2.775-2.299,3.215-4.964,2.168
			c-0.524-0.205-0.935-0.694-1.453-0.93c-1.569-0.713-2.741-2.423-4.793-1.934l-0.411,0.085C4.946,23.5,4.868,23.301,4.776,23.1
			c-1.854-4.023-2.817-8.351-3.666-12.688c-0.356-1.82-0.684-3.601-0.594-5.523c0.075-1.66,0.936-2.427,2.049-2.816
			c2.004-0.701,3.938-1.84,6.222-1.516c0.705,0.102,1.438,0.013,2.157,0.017c3.478,0.021,7.06-0.504,10.08,1.92"/>
		<path fill="none" stroke="#000000" stroke-linecap="round" stroke-linejoin="round" stroke-miterlimit="10" d="M9.502,15.214
			c0.15,1.142,0.129,2.397,1.681,2.638c1.283,0.199,4.301-0.99,4.518-1.928c0.182-0.785,0.379-1.336,1.242-1.43"/>
	</g>
</g>
</svg>
