<?xml version="1.0" encoding="utf-8"?>
<!-- Generator: Adobe Illustrator 16.0.0, SVG Export Plug-In . SVG Version: 6.00 Build 0)  -->
<!DOCTYPE svg PUBLIC "-//W3C//DTD SVG 1.1//EN" "http://www.w3.org/Graphics/SVG/1.1/DTD/svg11.dtd">
<svg version="1.1" id="Layer_1" xmlns="http://www.w3.org/2000/svg" xmlns:xlink="http://www.w3.org/1999/xlink" x="0px" y="0px"
	 width="40px" height="93px" viewBox="-1.363 0 29.996 69.746" enable-background="new -1.363 0 29.996 69.746"
	 xml:space="preserve">
<g>
	<path id="cervical" fill="none" d="M0.5,9.359l0.212,0.423C0.74,9.837,0.777,9.885,0.823,9.927c0.432,0.394,0.491,0.99,0.563,1.686
		c0.085,0.831,0.188,1.843,1.102,2.495c0.004,0.006,0.007,0.012,0.009,0.019c0.051,0.113,0.51,1.122,1.021,1.602
		c0.234,0.218,0.256,0.251,0.4,0.467c0.103,0.15,0.251,0.374,0.539,0.762c0.679,0.915,1.329,1.051,1.656,1.051
		c0.032,0,0.141-0.008,0.174-0.015c0.157-0.033,0.291-0.14,0.354-0.287l0.018-0.035c0.522-0.568,1.546-0.96,2.96-1.133
		c0.814-0.099,1.633-0.23,2.448-0.363c1.572-0.255,3.199-0.519,4.78-0.519c0,0,0,0,0.001,0c1.593,0,2.991,0.271,4.278,0.827
		c0.555,0.239,1.09,0.055,1.313-0.413c0.09-0.188,0.128-0.412,0.11-0.657l0.115-0.229c2.187-1.492,3.062-3.624,3.688-5.82H0.5V9.359
		z"/>
</g>
<g id="root">
	<g>
		<path fill="none" stroke="#000000" stroke-linecap="round" stroke-linejoin="round" stroke-miterlimit="10" d="M17.24,35.957
			c-1.086,4.563-4.101,7.809-7.467,10.771c-0.738,0.65-1.612,1.694-2.843,0.97c-1.262-0.745-1.267-2.064-1.208-3.341
			c0.106-2.353,1.575-4.392,1.645-6.723c0.058-1.995,1.729-4,0.033-5.999"/>
		<path fill="none" stroke="#000000" stroke-linecap="round" stroke-linejoin="round" stroke-miterlimit="10" d="M21.559,27.077
			c0.726,4.393-1.56,8.957-4.32,8.64c0.023-2.729,1.908-4.852,2.47-7.425c0.12-0.555,0.621-1.478,1.611-1.455"/>
		<path fill="none" stroke="#000000" stroke-linecap="round" stroke-linejoin="round" stroke-miterlimit="10" d="M21.078,26.596
			c0.389-2.282,1.564-4.365,1.687-6.72c0.068-1.346-0.053-2.641-0.727-3.84l-0.048-0.188c-0.107,0.226-0.342,0.311-0.664,0.171
			c-3.937-1.703-7.849-0.459-11.769,0.018c-3.57,0.437-4.777,2.188-3.037,4.988c0.888,1.424,1.184,2.943,1.496,4.393
			c0.42,1.935,0.595,4.513-0.614,5.875c-2.605,2.938-3.208,6.578-4.515,9.962c-0.765,1.98,0.093,2.955,2.351,3.342"/>
	</g>
</g>
<g id="crown">
	<g>
		<path fill="none" stroke="#000000" stroke-linecap="round" stroke-linejoin="round" stroke-miterlimit="10" d="M15.32,6.439
			C12.757,6.268,11.547,4.664,11,2.359"/>
		<path fill="none" stroke="#000000" stroke-linecap="round" stroke-linejoin="round" stroke-miterlimit="10" d="M6.187,17.498
			c0,0-0.607,0.125-1.327-0.844s-0.548-0.875-1-1.297s-0.905-1.438-0.905-1.438l0.126-0.043c-1.831-0.91-0.646-3.162-1.92-4.319
			L0.92,9.077c0.13-0.795-0.327-1.691,0.251-2.392c2.006-2.431,3.504-5.742,7.673-4.582c0.372,0.104,0.798,0.036,1.196,0.01
			c2.42-0.168,4.808,0.555,7.257-0.857c2.276-1.311,4.943-0.736,7.391,0.361C26.306,2.344,27.569,3.566,27,5.209
			c-1.168,3.376-1.271,7.354-4.722,9.628l-0.239,0.479c0.035,0.215,0.017,0.396-0.048,0.532c-0.107,0.226-0.342,0.311-0.664,0.171
			c-3.937-1.703-7.849-0.459-11.769,0.018c-1.601,0.195-2.727,0.655-3.324,1.355L6.187,17.498z"/>
	</g>
</g>
</svg>
