<?xml version="1.0" encoding="utf-8"?>
<!-- Generator: Adobe Illustrator 16.0.0, SVG Export Plug-In . SVG Version: 6.00 Build 0)  -->
<!DOCTYPE svg PUBLIC "-//W3C//DTD SVG 1.1//EN" "http://www.w3.org/Graphics/SVG/1.1/DTD/svg11.dtd">
<svg version="1.1" id="Layer_1" xmlns="http://www.w3.org/2000/svg" xmlns:xlink="http://www.w3.org/1999/xlink" x="0px" y="0px"
	 width="40px" height="93px" viewBox="-8.081 -9.897 34.995 69.991" enable-background="new -8.081 -9.897 34.995 69.991"
	 xml:space="preserve">
<g>
	<path id="cervical" fill="none" d="M19.183,48.524c-0.188-1.854-0.812-3.813-1.888-5.881c-0.31-0.593-0.776-1.336-1.668-1.83
		c-0.127-0.069-0.262-0.138-0.406-0.192c-2.248-0.931-2.395-1.131-2.29-1.976c0.023-0.188-0.061-0.369-0.218-0.478
		c-0.084-0.059-0.181-0.086-0.276-0.086c-0.084,0-0.171,0.021-0.245,0.063l-0.368,0.213c-0.568,0.414-1.271,0.306-2.058,0.279
		c-0.167-0.005-0.334-0.117-0.525-0.117c-0.001,0-0.001,0-0.002,0c-2.406,0-4.338,0.979-5.739,2.681
		c-0.712,0.86-1.302,2.018-1.753,3.321c-0.36,1.045-0.513,2.146-0.659,3.188C1.05,47.978,1.01,48.265,0.97,48.524H19.183z"/>
</g>
<g id="root">
	<g>
		<path fill="none" stroke="#000000" stroke-linecap="round" stroke-linejoin="round" stroke-miterlimit="10" d="M17.748,54.06
			c-1.141,2.301-3.658,3.959-5.947,5.207c-1.263,0.688-3.279,0.104-4.969-0.051c-2.46-0.221-4.242-1.375-5.758-3.172
			c-1.131-1.34-1.312-2.728-0.495-4.33"/>
		<path fill="none" stroke="#000000" stroke-linecap="round" stroke-linejoin="round" stroke-miterlimit="10" d="M13.076,36.123
			c-0.334,1.104-0.569,1.881-0.642,2.461c-0.159,1.281,0.475,1.621,2.596,2.496c0.126,0.053,0.243,0.106,0.354,0.17l0.332-0.326
			c0.58-0.438,0.537-1.082,0.471-1.68c-0.21-1.845-0.629-3.679-0.68-5.521c-0.122-4.479,0.313-9.016-0.587-13.423
			c-0.505-2.482-0.851-5.011-1.45-7.492c-0.582-2.411-1.737-4.606-2.176-6.946c-0.313-1.683-0.911-3.008-1.837-4.281
			c-0.488-0.673-1.15-1.353-2.135-0.962C6.346,1.002,5.38,1.439,5.39,2.763c0.03,3.217-0.177,6.444,0.719,9.604
			c0.776,2.746,1.355,5.737,0.604,8.36C5.235,25.88,4.798,31.205,3.535,36.376c-0.367,1.506-0.758,3.205,0.061,4.785l0.286,0.465
			c1.28-1.551,3.034-2.381,5.354-2.387c0.98-0.005,2,0.163,2.879-0.48"/>
		<path fill="none" stroke="#000000" stroke-linecap="round" stroke-linejoin="round" stroke-miterlimit="10" d="M2.997,52.203
			c1.029,1.2,2.554,1.606,3.695,2.481c1.188-0.228,1.593-1.19,2.176-1.748c1.169-0.146,2.169,1.504,3.3,0.024
			c0.132-0.172,0.785,0.404,0.908,0.92"/>
		<path fill="none" stroke="#000000" stroke-linecap="round" stroke-linejoin="round" stroke-miterlimit="10" d="M7.077,39.003
			c-0.467-1.256-0.146-2.563-0.24-3.84"/>
	</g>
</g>
<g id="crown">
	<g>
		<path fill="none" stroke="#000000" stroke-linecap="round" stroke-linejoin="round" stroke-miterlimit="10" d="M12.436,38.583
			c-0.159,1.281,0.475,1.621,2.596,2.496c0.126,0.053,0.243,0.106,0.354,0.17c0.773,0.432,1.181,1.072,1.47,1.627
			c1.859,3.572,2.715,7.52,0.895,11.184c-1.141,2.301-3.658,3.959-5.947,5.207c-1.263,0.688-3.279,0.104-4.969-0.051
			c-2.46-0.221-4.242-1.375-5.758-3.172c-1.131-1.34-1.312-2.728-0.495-4.33c1.102-2.17,0.844-4.676,1.638-6.973
			c0.43-1.236,0.979-2.279,1.666-3.113c1.28-1.553,3.034-2.383,5.354-2.389c0.98-0.003,2,0.166,2.879-0.479L12.436,38.583z"/>
		<path fill="none" stroke="#000000" stroke-linecap="round" stroke-linejoin="round" stroke-miterlimit="10" d="M2.997,52.203
			c1.029,1.2,2.554,1.606,3.695,2.481c1.188-0.228,1.593-1.19,2.176-1.748c1.169-0.146,2.169,1.504,3.3,0.024
			c0.132-0.172,0.785,0.404,0.908,0.92"/>
	</g>
</g>
</svg>
