<?xml version="1.0" encoding="utf-8"?>
<!-- Generator: Adobe Illustrator 16.0.0, SVG Export Plug-In . SVG Version: 6.00 Build 0)  -->
<!DOCTYPE svg PUBLIC "-//W3C//DTD SVG 1.1//EN" "http://www.w3.org/Graphics/SVG/1.1/DTD/svg11.dtd">
<svg version="1.1" id="Layer_1" xmlns="http://www.w3.org/2000/svg" xmlns:xlink="http://www.w3.org/1999/xlink" x="0px" y="0px"
	 width="40px" height="93px" viewBox="-4.654 0 29.996 69.746" enable-background="new -4.654 0 29.996 69.746"
	 xml:space="preserve">
<g>
	<path id="cervical" fill="none" d="M18.661,16.191H1.508c1.294,1.974,2.23,4.166,2.698,6.358c0.063,0.294,0.106,0.585,0.148,0.869
		c0.147,1,0.304,2.033,1.233,2.777c0.315,0.252,0.694,0.451,1.16,0.606c0.576,0.192,1.084,0.555,1.62,0.936
		c0.746,0.528,1.591,1.128,2.756,1.347c1.247,0.235,2.03-0.351,2.642-0.804c0.421-0.313,0.754-0.562,1.167-0.562
		c0.033,0,0.068,0.003,0.141,0.009l0.245,0.01c0.164,0.046,0.334,0.001,0.459-0.109c0.125-0.109,0.186-0.275,0.163-0.441
		c-0.041-0.291-0.081-0.583-0.106-0.872C16.037,25.531,17.643,19.348,18.661,16.191z"/>
</g>
<g id="root">
	<g>
		<path fill="none" stroke="#000000" stroke-linecap="round" stroke-linejoin="round" stroke-miterlimit="10" d="M15.446,27.255
			c0.1,0.723,0.2,1.442,0.088,2.129c-0.686,4.223-1.458,8.396-0.961,12.73c0.515,4.492-0.749,8.926-0.779,13.435
			c-0.021,3.03-0.416,6.219-2.544,8.763l-0.478,0.84c-0.88,1.04-1.813,2.041-2.625,3.132c-0.741,0.996-1.185,0.253-1.433-0.264
			C5.408,65.282,5.17,62.37,5.49,59.39l0.24-0.48c-0.569-4.365,1.024-8.609,0.718-12.96l0.002-0.24
			c0.464-3.76,0.849-7.522-0.008-11.276c-0.488-2.14-0.705-4.313-1.021-6.474c-0.111-0.776-0.108-1.332,0.31-1.93l0.172-0.224
			c0.257,0.203,0.585,0.382,1.008,0.522c1.497,0.502,2.448,1.914,4.31,2.264c1.889,0.354,2.423-1.505,3.869-1.363l0.289,0.008
			L15.446,27.255z"/>
	</g>
</g>
<g id="crown">
	<g>
		<path fill="none" stroke="#000000" stroke-linecap="round" stroke-linejoin="round" stroke-miterlimit="10" d="M5.49,11.391
			c0-0.479-0.204-1.141,0.034-1.41c1.385-1.576,3.312-2.453,5.025-3.6c0.396-0.264,0.859,0.127,0.938,0.688"/>
		<path fill="none" stroke="#000000" stroke-linecap="round" stroke-linejoin="round" stroke-miterlimit="10" d="M15.446,27.255
			c-0.046-0.329-0.091-0.656-0.116-0.982c0,0,1.863-7.246,2.953-10.536c0.375-1.134-0.578-2.155,0.167-3.146l0.96-0.237
			c0.95-0.645,0.936-1.516,0.469-2.396c-0.767-1.451-1.283-2.957-1.737-4.546c-0.694-2.431-2.451-4.178-4.979-4.788
			c-2.1-0.506-3.492,0.631-5.125,2.021c-2.313,1.97-3.459,5.042-6.374,6.377c-0.899,0.413-1.296,1.647-1.124,2.351
			c0.358,1.455,0.354,2.986,1.288,4.384c1.349,2.017,2.362,4.321,2.869,6.694c0.277,1.295,0.188,2.549,1.206,3.36
			c0.257,0.205,0.585,0.382,1.008,0.522c1.497,0.502,2.448,1.914,4.31,2.266c1.889,0.354,2.423-1.507,3.869-1.365l0.289,0.008
			L15.446,27.255z"/>
		<path fill="none" stroke="#000000" stroke-linecap="round" stroke-linejoin="round" stroke-miterlimit="10" d="M16.29,8.99
			c-0.437-1.839-0.878-3.671-3.357-3.601"/>
		<path fill="none" stroke="#000000" stroke-linecap="round" stroke-linejoin="round" stroke-miterlimit="10" d="M14.129,19.07
			c0.212-1.34-1.333-1.449-1.459-2.479c-0.984,0.258-0.887,1.151-1.421,1.521"/>
		<path fill="none" stroke="#000000" stroke-linecap="round" stroke-linejoin="round" stroke-miterlimit="10" d="M16.29,16.191
			c0.02-0.67,0.051-1.354-0.96-1.2"/>
		<path fill="none" stroke="#000000" stroke-linecap="round" stroke-linejoin="round" stroke-miterlimit="10" d="M9.425,18.4
			c0,0,0.25-0.793-0.75-1.793s-1.042-1.5-1.042-1.5"/>
	</g>
</g>
</svg>
