<?xml version="1.0" encoding="utf-8"?>
<!-- Generator: Adobe Illustrator 16.0.0, SVG Export Plug-In . SVG Version: 6.00 Build 0)  -->
<!DOCTYPE svg PUBLIC "-//W3C//DTD SVG 1.1//EN" "http://www.w3.org/Graphics/SVG/1.1/DTD/svg11.dtd">
<svg version="1.1" id="Layer_1" xmlns="http://www.w3.org/2000/svg" xmlns:xlink="http://www.w3.org/1999/xlink" x="0px" y="0px"
	 width="40px" height="93px" viewBox="-0.063 -12.772 34.995 69.99" enable-background="new -0.063 -12.772 34.995 69.99"
	 xml:space="preserve">
<g>
	<path id="cervical" fill="none" d="M23.68,45.333c-0.091-0.688-0.188-1.375-0.298-2.051c-0.119-0.771-0.24-1.537-0.336-2.303
		c-0.19-1.552-0.629-2.83-1.334-3.914c-0.479-0.729-1.082-1.375-1.812-1.921c-0.907-0.688-1.897-0.769-2.567-0.769
		c-0.425,0-0.854,0.037-1.281,0.074c-0.396,0.034-0.792,0.069-1.179,0.069c-0.095,0-0.188-0.002-0.36-0.01
		c-1.501,0-1.561,1.95-1.584,2.683c-0.087,2.729-0.521,5.472-0.991,8.14h11.74L23.68,45.333L23.68,45.333z"/>
</g>
<g id="root">
	<g>
		<path fill="none" stroke="#000000" stroke-linecap="round" stroke-linejoin="round" stroke-miterlimit="10" d="M21.528,37.162
			c0.624-1.082,1.021-2.635,0.481-3.787c-1.03-2.216-0.729-4.653-1.174-6.967c-0.071-0.369-0.502-3.596-0.502-3.596
			c0-2.797-0.361-5.66,0.099-8.384c0.497-2.936-0.437-10.72-4.458-13.928c-2.48,1.258-0.553,6.972-0.541,7.674
			c0.066,3.683,0.078,7.349-0.521,11.054c-0.83,5.131-2.156,10.354-0.339,15.583"/>
		<path fill="none" stroke="#000000" stroke-linecap="round" stroke-linejoin="round" stroke-miterlimit="10" d="M18.896,34.813
			c0.604-1.122,0.93-2.436,2.159-3.12"/>
	</g>
</g>
<g id="crown">
	<g>
		<path fill="none" stroke="#000000" stroke-linecap="round" stroke-linejoin="round" stroke-miterlimit="10" d="M20.107,56.194
			c4.13-2.168,3.536-6.104,3.219-9.61c-0.164-1.808-0.547-3.69-0.771-5.537c-0.177-1.396-0.563-2.641-1.261-3.696
			c-0.438-0.675-0.99-1.271-1.688-1.802c-1.521-1.147-3.362-0.443-5.034-0.528c-1.057-0.054-1.114,1.438-1.14,2.194
			c-0.149,4.722-1.286,9.285-1.977,13.918c-0.455,3.062,0.115,3.771,3.107,4.604c1.198,0.339,2.227,1.101,3.615,0.966
			C19.166,56.604,20.009,56.248,20.107,56.194z"/>
		<path fill="none" stroke="#000000" stroke-linecap="round" stroke-linejoin="round" stroke-miterlimit="10" d="M13.855,52.093
			c1.127,2.061,3.185,1.291,4.803,1.35c1.485,0.053,1.73-1.521,1.916-2.785"/>
		<path fill="none" stroke="#000000" stroke-linecap="round" stroke-linejoin="round" stroke-miterlimit="10" d="M14.334,43.212
			c0.882-0.217,1.048-0.994,1.179-1.688c0.226-1.176,0.472-1.813,1.97-1.271c0.905,0.33,1.585-0.555,1.651-1.604"/>
	</g>
</g>
</svg>
