<?xml version="1.0" encoding="utf-8"?>
<!-- Generator: Adobe Illustrator 16.0.0, SVG Export Plug-In . SVG Version: 6.00 Build 0)  -->
<!DOCTYPE svg PUBLIC "-//W3C//DTD SVG 1.1//EN" "http://www.w3.org/Graphics/SVG/1.1/DTD/svg11.dtd">
<svg version="1.1" id="Layer_1" xmlns="http://www.w3.org/2000/svg" xmlns:xlink="http://www.w3.org/1999/xlink" x="0px" y="0px"
	 width="40px" height="93px" viewBox="-0.792 -16.837 34.995 69.991" enable-background="new -0.792 -16.837 34.995 69.991"
	 xml:space="preserve">
<g>
	<path id="cervical" fill="none" d="M29.82,42.259c-0.308-0.863-0.688-1.697-1.07-2.502c-0.609-1.277-1.188-2.486-1.431-3.738
		c0.015-0.084,0.002-0.172-0.026-0.252l-0.063-0.16c-0.095-0.241-0.356-0.371-0.604-0.299c-1.772,0.51-2.847-0.018-4.203-0.684
		c-0.303-0.147-0.611-0.303-0.942-0.449c-2.847-1.271-5.664-2.375-8.568-2.375c-1.727,0-3.484,0.392-5.296,1.368
		c-1.068,0.577-2.176,0.807-3.3,0.674c-0.142-0.02-0.277,0.012-0.382,0.104c-0.106,0.095-0.164,0.21-0.166,0.353
		c-0.041,0.194-0.104,0.378-0.188,0.558l-0.45,0.945c-0.96,2.01-2.064,4.324-2.626,6.461L29.82,42.259L29.82,42.259z"/>
</g>
<g id="root">
	<g>
		<path fill="none" stroke="#000000" stroke-linecap="round" stroke-linejoin="round" stroke-miterlimit="10" d="M4.734,18.74
			c0.214-3.383,1.4-6.53,2.692-9.576c1.73-4.079,4.547-7.229,9.065-8.426c0.244-0.063,0.479-0.159,0.721-0.239
			c1.569,1.56,1.563,2.701,0.258,5.052c-1.599,2.879-3.494,5.637-4.319,8.875c-1.051,4.122-0.979,8.134,1.356,11.798
			c1.08-0.067,1.333-0.478,1.54-1.232c0.762-2.783,2.208-5.274,4.557-6.927c4.17-2.936,6.442-6.979,7.345-11.813
			c0.326-1.757,1.78-2.477,2.467-3.828"/>
		<path fill="none" stroke="#000000" stroke-linecap="round" stroke-linejoin="round" stroke-miterlimit="10" d="M4.254,18.875
			c0,4.105,0.184,8.118-0.102,12.1c-0.078,1.089,0.299,2.175,0.13,3.263l-0.028,0.104c1.276,0.146,2.49-0.136,3.595-0.729
			c4.699-2.538,9.118-0.899,13.423,1.021c1.868,0.835,3.115,1.84,5.49,1.155l0.053-0.488c-0.985-3.388-0.892-6.86-0.692-10.317
			c0.152-2.697,2.338-4.379,3.894-6.174c3.592-4.149,2.886-8.806,2.243-13.497c-0.086-0.64-0.826-1.479-1.604-1.932"/>
	</g>
</g>
<g id="crown">
	<g>
		<path fill="none" stroke="#000000" stroke-linecap="round" stroke-linejoin="round" stroke-miterlimit="10" d="M27.535,48.021
			c2.12-1.566,2.641-3.113,1.934-5.285c-0.746-2.295-2.193-4.311-2.652-6.715l0.01-0.07l-0.063-0.16
			c-2.375,0.685-3.623-0.321-5.49-1.156c-4.305-1.923-8.724-3.562-13.423-1.021c-1.104,0.596-2.317,0.878-3.595,0.729l-0.001,0.061
			c-0.046,0.224-0.118,0.446-0.224,0.668c-1.516,3.212-3.834,7.646-3.331,10.537c0.503,2.891,4.567,4.623,7.185,6.699
			c1.23,0.977,2.432-0.389,3.538-0.775c1.032-0.363,2.602-1.98,3.48-2.781"/>
		<path fill="none" stroke="#000000" stroke-linecap="round" stroke-linejoin="round" stroke-miterlimit="10" d="M14.573,44.66
			c0,0.563-0.011,1.121,0.002,1.682c0.039,1.66,0.063,2.951,2.36,3.518c1.682,0.412,3.15,1.959,5.078,2.244
			c0,0,0.645,0.324,2.395-0.635c1.75-0.957,2.873-2.959,2.623-4.25c-0.25-1.293-0.875-1.5-0.875-1.5"/>
	</g>
</g>
</svg>
