<?xml version="1.0" encoding="utf-8"?>
<!-- Generator: Adobe Illustrator 16.0.0, SVG Export Plug-In . SVG Version: 6.00 Build 0)  -->
<!DOCTYPE svg PUBLIC "-//W3C//DTD SVG 1.1//EN" "http://www.w3.org/Graphics/SVG/1.1/DTD/svg11.dtd">
<svg version="1.1" id="Layer_1" xmlns="http://www.w3.org/2000/svg" xmlns:xlink="http://www.w3.org/1999/xlink" x="0px" y="0px"
	 width="40px" height="93px" viewBox="-6.178 0 29.996 69.746" enable-background="new -6.178 0 29.996 69.746"
	 xml:space="preserve">
<g>
	<path id="cervical" fill="none" d="M0.5,13.358c0.092,1.72,0.513,3.438,1.3,5.09c0.687,1.438,1.274,2.967,1.748,4.542
		c0.046,0.154,0.2,0.252,0.354,0.304c0.128,0.044,0.291,0.017,0.416-0.049l0.432-0.185c0.819-0.345,1.586,0.146,2.376,0.703
		c0.469,0.327,1,0.7,1.606,0.7c0.433,0,0.837-0.188,1.21-0.563c0.521-0.521,1.102-1.021,1.66-1.502
		c0.422-0.363,0.844-0.729,1.25-1.104c0.823-0.767,1.851-1.833,2.495-3.291c0.242-0.55,0.5-1.191,0.495-1.892
		c-0.008-0.942,0.279-1.978,0.698-2.516c0.063-0.081,0.109-0.16,0.17-0.24L0.5,13.358L0.5,13.358z"/>
</g>
<g id="root">
	<g>
		<path fill="none" stroke="#000000" stroke-linecap="round" stroke-linejoin="round" stroke-miterlimit="10" d="M12.51,20.93
			c-0.956,0.891-2.002,1.695-2.923,2.617c-0.762,0.764-1.409,0.346-2.179-0.193c-0.806-0.565-1.718-1.229-2.854-0.756l-0.457,0.194
			l-0.072,0.054c1.146,3.815,1.58,7.729,1.714,11.752c0.018,0.479-1.063,4.834-1.26,6.229c-0.493,3.515-0.711,7.052-1.125,10.57
			l-0.162,0.537c-0.161,1.883-0.844,3.748-0.488,5.771l0.41,0.652c1.647,0.023,3.058-0.327,3.606-2.158
			c0.297-0.984,1.218-1.155,2.029-1.635c0.146-2.989,1.193-6.016,1.622-9.158c0.587-4.315,0.47-8.656,0.896-12.969
			c0.28-2.837,0.271-5.716,1.438-8.404c0.373-0.858,0.332-1.756,0.008-2.637l-0.148-0.324L12.51,20.93z"/>
		<path fill="none" stroke="#000000" stroke-linecap="round" stroke-linejoin="round" stroke-miterlimit="10" d="M5.275,58.118
			c0.993,0.768,0.663,3.099,2.624,2.579c1.537-0.408,2.127-3.662,1.217-5.459"/>
	</g>
</g>
<g id="crown">
	<g>
		<path fill="none" stroke="#000000" stroke-linecap="round" stroke-linejoin="round" stroke-miterlimit="10" d="M4.098,22.793
			l0.457-0.194c1.138-0.475,2.05,0.188,2.854,0.756c0.77,0.539,1.417,0.957,2.179,0.193c0.92-0.922,1.967-1.729,2.923-2.617
			c0.955-0.892,1.82-1.865,2.378-3.128c0.243-0.552,0.457-1.104,0.452-1.687c-0.009-1.036,0.311-2.192,0.804-2.826
			c3.374-4.335,0.121-7.498-1.794-10.828C13.53,1.036,8.872-0.026,7.688,0.774C1.893,4.693-0.825,11.788,2.25,18.232
			c0.728,1.521,1.31,3.062,1.773,4.614L4.098,22.793z"/>
		<path fill="none" stroke="#000000" stroke-linecap="round" stroke-linejoin="round" stroke-miterlimit="10" d="M5.755,7.716
			c1.626-3.432,4.811-4.323,7.683-2.161c0.409,0.31,0.597,0.896,1.197,0.964"/>
	</g>
</g>
</svg>
