<?xml version="1.0" encoding="utf-8"?>
<!-- Generator: Adobe Illustrator 16.0.0, SVG Export Plug-In . SVG Version: 6.00 Build 0)  -->
<!DOCTYPE svg PUBLIC "-//W3C//DTD SVG 1.1//EN" "http://www.w3.org/Graphics/SVG/1.1/DTD/svg11.dtd">
<svg version="1.1" id="Layer_1" xmlns="http://www.w3.org/2000/svg" xmlns:xlink="http://www.w3.org/1999/xlink" x="0px" y="0px"
	 width="40px" height="93px" viewBox="-1.582 -22.821 34.996 69.991" enable-background="new -1.582 -22.821 34.996 69.991"
	 xml:space="preserve">
<g>
	<path id="cervical" fill="none" d="M3.382,29.355l-0.084,0.221c-1.548,2.93-3.13,5.987-2.738,9.138h28.107c-0.035-1.074-0.207-2.127-0.363-3.063
		c-0.338-2.018-0.979-4.206-1.721-6.354L3.382,29.355z"/>
</g>
<g id="root">
	<g>
		<path fill="none" stroke="#000000" stroke-linecap="round" stroke-linejoin="round" stroke-miterlimit="10" d="M14.504,19.394
			c0.3-4.268,1.876-8.086,4.347-11.502c1.836-2.537,3.766-5.043,6.689-6.506c2.182-1.092,2.739-1.02,5.276,0.963
			c0.152,1.357-0.819,2.5-0.715,3.845c0,0-0.123,1.458-0.562,1.958c-0.439,0.5-0.879,0.441-0.879,0.441
			c-1.406,0.613-1.041,2.043-1.438,3.119l-0.24,0.48c-0.897,0.75-0.739,1.99-1.407,2.902c-2.371,3.238-1.875,6.638-0.855,10.328
			c0.398,1.445,0.9,2.869,1.391,4.287"/>
		<path fill="none" stroke="#000000" stroke-linecap="round" stroke-linejoin="round" stroke-miterlimit="10" d="M25.972,29.712
			c-6.723,0-15.309,0-22.283,0c0.756-1.406,1.097-2.625,1.481-3.832c1.069-3.353,1.64-6.838,3.019-10.121
			c0.543-1.295,1.709-2.303,1.756-3.809c0,0-0.076-1.029,1.4-1.759c1.389-0.687,2.239-2.166,2.688-3.759
			c0.634-2.252,2.29-3.709,4.075-5.039c1.713-1.275,3.72-1.18,5.759,0.236l0.446,0.347"/>
	</g>
</g>
<g id="crown">
	<g>
		<path fill="none" stroke="#000000" stroke-linecap="round" stroke-linejoin="round" stroke-miterlimit="10" d="M15.138,42.651
			c-1.201,0.959-2.814,2.156-3.988,3.146c-1.273,1.076-2.84,1.097-4.041,0.396c-1.352-0.787-2.979-1.344-3.885-2.803l-0.24-0.479
			c-3.754-4.656-1.418-8.928,0.841-13.2c0,0,0.11,0,0.233,0c6.906,0,15.311,0,21.914,0l0.139-0.002
			c0.688,1.992,1.357,3.979,1.701,6.021c0.494,2.949,0.996,6.394-2.246,8.646c-0.771,0.537-1.623,0.611-2.426,0.92
			c-3.799,1.455-6.621,0.313-8.395-3.348"/>
	</g>
</g>
</svg>
