<?xml version="1.0" encoding="utf-8"?>
<!-- Generator: Adobe Illustrator 16.0.0, SVG Export Plug-In . SVG Version: 6.00 Build 0)  -->
<!DOCTYPE svg PUBLIC "-//W3C//DTD SVG 1.1//EN" "http://www.w3.org/Graphics/SVG/1.1/DTD/svg11.dtd">
<svg version="1.1" id="Layer_1" xmlns="http://www.w3.org/2000/svg" xmlns:xlink="http://www.w3.org/1999/xlink" x="0px" y="0px"
	 width="40px" height="93px" viewBox="-4.751 0 29.996 69.746" enable-background="new -4.751 0 29.996 69.746"
	 xml:space="preserve">
<g>
	<path id="cervical" fill="none" d="M0.5,16.205c0.242,3.174,1.307,6.354,3.056,9.051c0.152,0.234,0.323,0.457,0.511,0.666
		c0.953,1.076,2.313,1.847,3.627,2.592c0.809,0.457,1.644,0.932,2.36,1.463c0.567,0.421,1.175,0.583,1.817,0.477
		c1.554-0.258,2.771-2.021,3.427-2.969l0.207-0.296c0.646-0.883,1.253-2.175,1.278-2.229c0.032-0.067,0.048-0.139,0.048-0.209
		l0.163-0.754c0.591-2.722,1.161-5.313,2.264-7.789H0.5V16.205z"/>
</g>
<g id="root">
	<g>
		<path fill="none" stroke="#000000" stroke-linecap="round" stroke-linejoin="round" stroke-miterlimit="10" d="M12.938,69.245
			c-2.224-0.734-3.903-2.798-4.078-5.04c-0.131-1.684-0.293-3.396-0.57-5.023c-0.817-4.783-1.063-9.623-1.479-14.427
			C6.48,40.927,5.627,37.232,5.135,33.47c-0.315-2.412-1.346-4.791-0.837-7.306l0.143-0.574c1.471,1.66,4.004,2.568,5.912,3.984
			c2.113,1.568,4.125-1.828,4.75-2.682c0.317-0.434,0.629-0.98,0.86-1.414l0.015,0.787c-0.459,1.945,0.354,3.822-0.506,5.836
			c-0.74,1.732-0.313,4.021-0.717,5.92c-0.809,3.775-0.742,7.56-0.515,11.297c0.188,3.113,0.687,6.225,0.921,9.361
			c0.262,3.486-0.594,6.666-1.742,9.846"/>
	</g>
</g>
<g id="crown">
	<g>
		<path fill="none" stroke="#000000" stroke-linecap="round" stroke-linejoin="round" stroke-miterlimit="10" d="M16.3,14.765
			c-0.693,2.604-1.085,2.813-3.601,1.92c-2.074,2.12-2.395,2.115-4.322,0.002c-1.059-1.16-2.58-1.996-2.639-3.842"/>
		<path fill="none" stroke="#000000" stroke-linecap="round" stroke-linejoin="round" stroke-miterlimit="10" d="M5.739,9.486
			c-0.121-2.123,1.279-3.24,2.9-4.037c0.852-0.418,1.351,0.186,1.18,1.156"/>
		<path fill="none" stroke="#000000" stroke-linecap="round" stroke-linejoin="round" stroke-miterlimit="10" d="M16.538,8.525
			c-0.282-1.941-1.457-2.921-3.359-3.119"/>
		<path fill="none" stroke="#000000" stroke-linecap="round" stroke-linejoin="round" stroke-miterlimit="10" d="M16.329,24.746
			c0,0-0.604,1.293-1.229,2.146s-2.636,4.25-4.75,2.682C8.443,28.158,5.91,27.25,4.439,25.59c-0.17-0.19-0.326-0.393-0.465-0.606
			c-1.818-2.803-2.947-6.204-3.033-9.737c-0.037-1.522,0.029-3.043-0.229-4.563c-0.489-2.866,1.538-4.532,3.4-5.927
			c1.832-1.372,3.867-2.496,5.76-3.838c1.65-1.172,3.243,0.408,4.738,1.144c1.783,0.877,3.215,2.076,3.386,4.302
			c0.118,1.537,0.864,3.094,1.575,4.225c0.986,1.568,0.471,2.998-0.018,3.879c-1.779,3.219-2.451,6.695-3.213,10.179"/>
	</g>
</g>
</svg>
