<?xml version="1.0" encoding="utf-8"?>
<!-- Generator: Adobe Illustrator 16.0.0, SVG Export Plug-In . SVG Version: 6.00 Build 0)  -->
<!DOCTYPE svg PUBLIC "-//W3C//DTD SVG 1.1//EN" "http://www.w3.org/Graphics/SVG/1.1/DTD/svg11.dtd">
<svg version="1.1" id="Layer_1" xmlns="http://www.w3.org/2000/svg" xmlns:xlink="http://www.w3.org/1999/xlink" x="0px" y="0px"
	 width="40px" height="93px" viewBox="-7.678 0 29.996 69.746" enable-background="new -7.678 0 29.996 69.746"
	 xml:space="preserve">
<g>
	<path id="cervical" fill="none" d="M13.71,14.724H1.514c0.659,2.753,1.177,5.447,1.197,8.27c0.001,0.155,0.074,0.303,0.199,0.396
		c0.125,0.095,0.285,0.125,0.435,0.082l0.398-0.098c0.27,0,0.491,0.194,0.802,0.492l0.126,0.12c1.729,1.622,2.596,2.437,3.742,2.437
		c0.816,0,1.664-0.426,3.166-1.227l0.318-0.252c0.142-0.109,0.211-0.285,0.188-0.461C11.93,23.349,12,22.087,12.274,21.11
		C12.865,19.005,13.339,16.873,13.71,14.724z"/>
</g>
<g id="root">
	<g>
		<path fill="none" stroke="#000000" stroke-linecap="round" stroke-linejoin="round" stroke-miterlimit="10" d="M5.75,51.323
			c-0.563-1.765-1.285-3.476-1.213-5.399c0.154-4.129-0.569-8.18-1.18-12.24c-0.441-2.945-0.418-5.932-0.204-8.876
			c0.045-0.61,0.063-1.217,0.058-1.816l0.379-0.105c0.645-0.088,1.055,0.396,1.423,0.738c2.995,2.809,3.098,2.846,6.257,1.182
			l0.32-0.252c0.521,3.791-0.973,7.243-1.346,10.831C9.726,40.355,8.494,45.45,10.69,50.53c1.181,2.726,1,5.813-1.832,8.063
			c-2.101-1.485-2.394-3.942-2.63-6.425"/>
	</g>
</g>
<g id="crown">
	<g>
		<path fill="none" stroke="#000000" stroke-linecap="round" stroke-linejoin="round" stroke-miterlimit="10" d="M5.75,13.042
			c0.938,2.987,1.592,3.434,4.653,3.11c0.362-1.575,0.733-3.185,1.104-4.79"/>
		<path fill="none" stroke="#000000" stroke-linecap="round" stroke-linejoin="round" stroke-miterlimit="10" d="M12.23,4.884
			C10.69,3.876,9.234,2.82,7.188,2.916C5.618,2.989,4.464,3.393,3.832,4.885"/>
		<path fill="none" stroke="#000000" stroke-linecap="round" stroke-linejoin="round" stroke-miterlimit="10" d="M11.27,24.804
			c-3.159,1.664-3.262,1.627-6.257-1.182c-0.368-0.346-0.778-0.828-1.423-0.738l-0.379,0.104c-0.027-3.905-1.007-7.626-1.964-11.399
			C0.539,8.796,0.107,5.824,1.013,2.984c0.36-1.129,1.536-2.008,2.82-2.152c3.069-0.345,6.143-0.938,8.926,1.354
			c1.07,0.881,1.403,1.77,1.379,2.939c-0.108,5.381-0.891,10.658-2.346,15.853c-0.314,1.122-0.354,2.467-0.202,3.575L11.27,24.804z"
			/>
	</g>
</g>
</svg>
