<?xml version="1.0" encoding="utf-8"?>
<!-- Generator: Adobe Illustrator 16.0.0, SVG Export Plug-In . SVG Version: 6.00 Build 0)  -->
<!DOCTYPE svg PUBLIC "-//W3C//DTD SVG 1.1//EN" "http://www.w3.org/Graphics/SVG/1.1/DTD/svg11.dtd">
<svg version="1.1" id="Layer_1" xmlns="http://www.w3.org/2000/svg" xmlns:xlink="http://www.w3.org/1999/xlink" x="0px" y="0px"
	 width="40px" height="93px" viewBox="-10.731 -9.973 34.995 69.991" enable-background="new -10.731 -9.973 34.995 69.991"
	 xml:space="preserve">
<g>
	<path id="cervical" fill="none" d="M12.599,47.916c-0.103-0.81-0.197-1.615-0.313-2.418c-0.23-1.613-0.635-3.191-1.023-4.722
		c-0.447-1.762-0.873-3.577-1.045-5.258c-0.025-0.258-0.242-0.604-0.496-0.604c-0.011,0-0.021,0-0.027,0L9.206,35.1
		c-2.382,0.023-3.741,0.448-4.698,1.271c-0.882,0.76-1.404,1.973-1.693,3.844c-0.36,2.328-0.84,5.095-1.639,7.701H12.599
		L12.599,47.916z"/>
</g>
<g id="root">
	<g>
		<path fill="none" stroke="#000000" stroke-linecap="round" stroke-linejoin="round" stroke-miterlimit="10" d="M9.21,35.755
			c-2.069,0.021-3.452,0.275-4.377,1.072L4.41,36.474c-1.662-1.095-0.1-2.413-0.154-3.604c-0.224-4.653,0.119-9.28,0.752-13.934
			c0.469-3.449,0.371-7.042-0.746-10.571c-0.813-2.57-2.145-5.576,0.896-7.864C6.93,2.144,8.379,4.057,8.962,6.478
			c1.521,6.325,1.822,12.718,1.256,19.202c-0.293,3.353-0.82,6.862-0.496,10.047L9.21,35.755z"/>
	</g>
</g>
<g id="crown">
	<g>
		<path fill="none" stroke="#000000" stroke-linecap="round" stroke-linejoin="round" stroke-miterlimit="10" d="M9.21,35.755
			c-2.069,0.021-3.452,0.275-4.377,1.072c-0.803,0.693-1.262,1.793-1.526,3.502c-0.412,2.666-0.91,5.348-1.688,7.856
			c-0.245,0.791,0.057,2.282-0.098,3.433c-0.17,1.28-0.789,2.196-0.891,2.563c-0.193,0.688-0.186,1.601,0.104,2.646
			c0.36,1.301,1.838,2.771,3.918,2.469c1.824-0.271,3.617,0.58,5.533,0.035c1.979-0.563,3.051-1.336,2.819-3.412
			c-0.387-3.448-0.724-6.91-1.215-10.354c-0.485-3.396-1.74-6.616-2.069-9.842L9.21,35.755z"/>
		<path fill="none" stroke="#000000" stroke-linecap="round" stroke-linejoin="round" stroke-miterlimit="10" d="M8.011,57.595
			c-1.075-0.313-2.089-0.879-3.137-1.139c-1.798-0.443-1.558-1.474-1.185-2.701"/>
		<path fill="none" stroke="#000000" stroke-linecap="round" stroke-linejoin="round" stroke-miterlimit="10" d="M5.37,41.755
			c0.936,0.166,1.203,1.836,2.664,1c1.119-0.644,0.884-1.533,0.938-2.439"/>
		<path fill="none" stroke="#000000" stroke-linecap="round" stroke-linejoin="round" stroke-miterlimit="10" d="M9.21,45.115
			c0.082-0.964-0.063-1.886-0.479-2.761"/>
		<path fill="none" stroke="#000000" stroke-linecap="round" stroke-linejoin="round" stroke-miterlimit="10" d="M8.972,57.354
			c2.062,0.153,2.123-1.146,1.92-2.64"/>
		<path fill="none" stroke="#000000" stroke-linecap="round" stroke-linejoin="round" stroke-miterlimit="10" d="M4.891,44.156
			c0.08-0.962,0.16-1.921,0.24-2.882"/>
	</g>
</g>
</svg>
