<?xml version="1.0" encoding="utf-8"?>
<!-- Generator: Adobe Illustrator 16.0.0, SVG Export Plug-In . SVG Version: 6.00 Build 0)  -->
<!DOCTYPE svg PUBLIC "-//W3C//DTD SVG 1.1//EN" "http://www.w3.org/Graphics/SVG/1.1/DTD/svg11.dtd">
<svg version="1.1" id="Layer_1" xmlns="http://www.w3.org/2000/svg" xmlns:xlink="http://www.w3.org/1999/xlink" x="0px" y="0px"
	 width="40px" height="93px" viewBox="-4.01 0 29.996 69.747" enable-background="new -4.01 0 29.996 69.747"
	 xml:space="preserve">
<g>
	<path id="cervical" fill="none" d="M0.37,10.657c0.579,2.854,1.658,5.737,3.96,8.219c0.039,0.043,0.087,0.072,0.136,0.1
		c0.026,0.053,0.062,0.104,0.105,0.145c0.203,0.188,0.521,0.172,0.706-0.031c0.974-1.067,2.552-1.641,4.968-1.803
		c1.504-0.106,2.776,0.422,4.133,0.977c1.093,0.445,2.223,0.906,3.476,1.014c0.047,0.004,0.089-0.008,0.132-0.015
		c0.03,0.01,0.059,0.026,0.092,0.03c0.271,0.049,0.523-0.152,0.563-0.428c0.03-0.224,0.266-0.471,0.454-0.668
		c0.085-0.09,0.163-0.172,0.223-0.246c1.688-2.09,1.907-4.515,2.121-6.859l0.04-0.432H0.37V10.657z"/>
</g>
<g id="root">
	<g>
		<path fill="none" stroke="#000000" stroke-linecap="round" stroke-linejoin="round" stroke-miterlimit="10" d="M14.776,27.417
			c1.519-2.641,3.771-4.983,3.364-8.398c-0.009-0.076-0.008-0.149,0.002-0.222c0.069-0.504,0.562-0.885,0.783-1.161
			c1.744-2.161,1.829-4.731,2.074-7.259c0.27-2.795-0.151-5.471-1.654-7.926c-1.03-1.682-2.565-2.416-4.314-1.641
			c-1.764,0.781-3.629,1.465-5.042,2.859c-0.792,0.782-1.383,0.868-2.44,0.28c-2.021-1.121-4.21-0.715-6.18,0.254
			C0.801,4.479,0.157,5.034,0.275,6.305c0.415,4.51,1.217,8.773,4.421,12.23"/>
		<path fill="none" stroke="#000000" stroke-linecap="round" stroke-linejoin="round" stroke-miterlimit="10" d="M6.136,40.375
			c1.773,0.297,2.442-1.063,3.377-2.146c2.534-2.935,5.974-8.864,5.828-10.136c-0.132-1.152-1.193-0.385-1.54-0.233
			c-1.747,0.759-3.615,1.638-4.225,3.423c-0.952,2.786-2.755,5.19-3.564,7.926c-0.746,2.521-2.24,3.604-4.436,4.287l-0.393-0.055
			c-0.357-0.679-1.11-1.206-1.084-2.107c0.095-2.881,0.659-5.637,1.428-8.412c0.849-3.063,1.76-6.213,1.862-9.35
			c0.07-2.125,0.505-3.716,1.519-4.823c1.057-1.16,2.742-1.793,5.303-1.965c2.892-0.192,5.021,1.764,7.685,1.99"/>
		<path fill="none" stroke="#000000" stroke-linecap="round" stroke-linejoin="round" stroke-miterlimit="10" d="M6.136,7.017
			c-0.384-1.479,1.828-1.31,1.681-2.64"/>
	</g>
</g>
<g id="crown">
	<g>
		<path fill="none" stroke="#000000" stroke-linecap="round" stroke-linejoin="round" stroke-miterlimit="10" d="M18.142,18.795
			c0.069-0.504,0.562-0.885,0.783-1.161c1.744-2.161,1.829-4.731,2.074-7.259c0.27-2.795-0.151-5.471-1.654-7.926
			c-1.03-1.682-2.565-2.416-4.314-1.641c-1.764,0.781-3.629,1.465-5.042,2.859C9.197,4.45,8.606,4.536,7.548,3.948
			c-2.021-1.121-4.21-0.715-6.18,0.254C0.801,4.479,0.157,5.034,0.275,6.305c0.415,4.51,1.217,8.773,4.421,12.23"/>
		<path fill="none" stroke="#000000" stroke-linecap="round" stroke-linejoin="round" stroke-miterlimit="10" d="M4.909,18.75
			c1.057-1.16,2.742-1.793,5.303-1.965c2.892-0.192,5.021,1.764,7.685,1.99"/>
		<path fill="none" stroke="#000000" stroke-linecap="round" stroke-linejoin="round" stroke-miterlimit="10" d="M6.136,7.017
			c-0.384-1.479,1.828-1.31,1.681-2.64"/>
	</g>
</g>
</svg>
