<?xml version="1.0" encoding="utf-8"?>
<!-- Generator: Adobe Illustrator 16.0.0, SVG Export Plug-In . SVG Version: 6.00 Build 0)  -->
<!DOCTYPE svg PUBLIC "-//W3C//DTD SVG 1.1//EN" "http://www.w3.org/Graphics/SVG/1.1/DTD/svg11.dtd">
<svg version="1.1" id="Layer_1" xmlns="http://www.w3.org/2000/svg" xmlns:xlink="http://www.w3.org/1999/xlink" x="0px" y="0px"
	 width="40px" height="93px" viewBox="-4.692 -24.445 34.996 69.991" enable-background="new -4.692 -24.445 34.996 69.991"
	 xml:space="preserve">
<path fill="none" stroke="#000000" stroke-linecap="round" stroke-linejoin="round" stroke-miterlimit="10" d="M410.74,161.434"/>
<path id="cervical" fill="none" d="M25.987,37.021c-0.223-2.689-1.09-5.086-2.629-7.258c-0.17-0.238-0.321-0.498-0.453-0.771
	c-0.073-0.153-0.223-0.26-0.393-0.279l-0.556-0.066c-0.666-0.056-1.33-0.074-1.994-0.096c-1.144-0.033-2.322-0.07-3.483-0.3
	c-1.406-0.278-2.558-0.407-3.618-0.407c-2.788,0-4.977,0.942-6.688,2.881C5.998,30.922,5.68,31.04,5.323,31.04
	c-0.052,0-0.104-0.002-0.167-0.01L4.897,31.01c-0.27-0.017-0.486,0.162-0.529,0.416c-0.195,1.159-0.618,2.39-1.37,3.988
	c-0.249,0.525-0.456,1.063-0.634,1.605L25.987,37.021L25.987,37.021z"/>
<path fill="none" stroke="#000000" stroke-linecap="round" stroke-linejoin="round" stroke-miterlimit="10" d="M10.639,13.543
	c-1.406-3.291-3.275-6.297-6.028-8.604C3.261,3.81,1.599,4.222,0.063,4.947c0.061,2.401,1.104,4.604,1.708,6.914
	c0.892,3.406,2.146,6.734,2.146,10.322c0.001,2.131,0.421,4.174,0.893,6.256c0.232,1.035,0.225,2.063,0.055,3.07l0.259,0.02
	c0.502,0.052,1.082-0.086,1.428-0.477c2.736-3.095,6.311-3.01,9.837-2.313c1.869,0.369,3.693,0.251,5.534,0.402l0.535,0.064
	c-0.975-2.043-0.771-4.547-1.203-6.794c-0.589-3.08-1.923-5.815-3.125-8.65c-1.194-2.818-2.329-5.597-4.058-8.187
	C12.297,2.919,9.67,1.823,7.028,0.612c-0.524-0.241-1.25-0.137-1.424,0.69c-0.255,1.209-1.226,2.027-1.686,3.12"/>
<path fill="none" stroke="#000000" stroke-linecap="round" stroke-linejoin="round" stroke-miterlimit="10" d="M410.74,161.434"/>
<path fill="none" stroke="#000000" stroke-linecap="round" stroke-linejoin="round" stroke-miterlimit="10" d="M5.12,31.527
	c0.502,0.053,1.082-0.084,1.428-0.476c2.736-3.095,6.311-3.01,9.836-2.313c1.87,0.37,3.694,0.251,5.535,0.403l0.535,0.063
	c0.141,0.292,0.303,0.573,0.495,0.846c2.169,3.058,2.821,6.327,2.536,9.89c-0.096,1.215-0.271,2.453-1.391,3.385
	c-3.166,2.629-6.684,2.229-9.957-1.469c-1.954,3.789-5.473,3.188-8.779,3.109c-2.407-0.054-3.046-0.89-3.145-3.343
	C2.131,39.5,2.56,37.516,3.447,35.626c0.628-1.335,1.174-2.712,1.411-4.118L5.12,31.527z"/>
<path fill="none" stroke="#000000" stroke-linecap="round" stroke-linejoin="round" stroke-miterlimit="10" d="M410.74,161.434"/>
</svg>
