<?xml version="1.0" encoding="utf-8"?>
<!-- Generator: Adobe Illustrator 16.0.0, SVG Export Plug-In . SVG Version: 6.00 Build 0)  -->
<!DOCTYPE svg PUBLIC "-//W3C//DTD SVG 1.1//EN" "http://www.w3.org/Graphics/SVG/1.1/DTD/svg11.dtd">
<svg version="1.1" id="Layer_1" xmlns="http://www.w3.org/2000/svg" xmlns:xlink="http://www.w3.org/1999/xlink" x="0px" y="0px"
	 width="40px" height="93px" viewBox="-0.325 0 29.996 69.746" enable-background="new -0.325 0 29.996 69.746"
	 xml:space="preserve">
<g>
	<path id="cervical" fill="none" d="M0.632,12.669c0.319,0.85,0.757,1.654,1.314,2.384c0.413,0.54,0.817,1.088,1.225,1.636
		c0.841,1.139,1.711,2.316,2.656,3.409c0.505,0.584,0.845,1.281,1.067,2.192c0.065,0.27,0.331,0.432,0.604,0.365
		c0.109-0.025,0.194-0.094,0.263-0.174l0.185-0.152c0.263-0.221,0.521-0.442,0.779-0.666c1.407-1.213,2.736-2.357,4.384-3.104
		c2.241-1.015,7.086,0.83,8.266,3.194l1.291,1.853c0.066,0.096,0.164,0.154,0.269,0.187c0.029,0.012,0.054,0.028,0.086,0.036
		c0.271,0.057,0.535-0.121,0.589-0.393c0.274-1.361,0.809-2.729,1.633-4.178c1.146-2.018,2.029-4.24,2.883-6.391
		c0.026-0.067,0.055-0.133,0.081-0.2L0.632,12.669L0.632,12.669z"/>
</g>
<g id="root">
	<g>
		<path fill="none" stroke="#000000" stroke-linecap="round" stroke-linejoin="round" stroke-miterlimit="10" d="M16.885,49.575
			c1.358,2.72,2.391,1.804,3.211,0.687c2.146-2.92,3.127-6.318,3.271-9.836c0.064-1.615,0.854-2.988,0.823-4.557
			c-0.042-2.264,0.054-4.5-0.688-6.732c-0.662-1.997-0.766-3.909-0.386-5.797l-0.043-0.018l-1.291-1.854
			c-1.271-2.563-6.39-4.49-8.882-3.363c-2.028,0.918-3.611,2.436-5.278,3.844l-0.2,0.164l-0.042,0.059
			c0.353,1.438,0.353,2.973,0.855,4.376c1.373,3.813,2.994,7.75,2.226,11.955c-0.632,3.445-0.302,6.888-0.443,10.326
			c-0.051,1.235,0.207,2.407,0.431,3.61c0.162,0.883,0.609,1.729,1.229,1.57c0.701-0.179,1.474-0.025,2.256-0.789
			c3.516-3.432,4.498-7.691,4.734-12.313c0.143-2.801-0.021-5.676,0.578-8.377c0.518-2.326,1.076-4.894,3.259-6.502"/>
		<path fill="none" stroke="#000000" stroke-linecap="round" stroke-linejoin="round" stroke-miterlimit="10" d="M9.784,42.107
			c-0.694-0.191-1.239,0.242-1.405,0.731c-0.81,2.371-2.321,4.484-2.262,7.188c0.027,1.269-0.311,2.906-2.331,2.63
			c-1.676-0.229-1.979-1.4-1.937-2.871c0.08-2.726-0.014-5.445,0.411-8.172c0.146-0.947,0.787-1.404,1.111-2.115
			c1.573-3.447,2.308-7.353,5.211-10.11"/>
	</g>
</g>
<g id="crown">
	<g>
		<path fill="none" stroke="#000000" stroke-linecap="round" stroke-linejoin="round" stroke-miterlimit="10" d="M14.105,4.188
			c-1.216-1.558-2.743-1.961-4.559-1.195C8.285,3.524,7.031,3.643,5.7,3.239C3.56,2.589,2.381,3.081,1.398,5.155
			c-1.372,2.899-1.263,6.715,0.944,9.594c1.284,1.676,2.479,3.428,3.86,5.021c0.635,0.732,0.968,1.549,1.177,2.399"/>
		<path fill="none" stroke="#000000" stroke-linecap="round" stroke-linejoin="round" stroke-miterlimit="10" d="M23.118,23.339
			c0.291-1.447,0.864-2.881,1.688-4.326c1.483-2.609,2.508-5.542,3.669-8.355c1.087-2.637-0.347-8.062-2.646-9.28
			c-2.317-1.229-5.031-1.108-7.372,0.002c-1.979,0.938-3.856,2.194-5.148,4.2c-0.445,0.693-0.039,1.467-0.645,1.97"/>
		<path fill="none" stroke="#000000" stroke-linecap="round" stroke-linejoin="round" stroke-miterlimit="10" d="M7.424,22.112
			l0.2-0.164c1.667-1.408,3.25-2.926,5.278-3.844c2.492-1.127,7.61,0.801,8.882,3.363l1.291,1.854"/>
		<path fill="none" stroke="#000000" stroke-linecap="round" stroke-linejoin="round" stroke-miterlimit="10" d="M26.105,8.028
			c-1.628-3.313-2.859-3.724-5.76-1.92"/>
		<path fill="none" stroke="#000000" stroke-linecap="round" stroke-linejoin="round" stroke-miterlimit="10" d="M12.426,8.508
			c-1.127-1.834-3.285-2.813-4.08-4.92"/>
	</g>
</g>
</svg>
