<?xml version="1.0" encoding="utf-8"?>
<!-- Generator: Adobe Illustrator 16.0.0, SVG Export Plug-In . SVG Version: 6.00 Build 0)  -->
<!DOCTYPE svg PUBLIC "-//W3C//DTD SVG 1.1//EN" "http://www.w3.org/Graphics/SVG/1.1/DTD/svg11.dtd">
<svg version="1.1" id="Layer_1" xmlns="http://www.w3.org/2000/svg" xmlns:xlink="http://www.w3.org/1999/xlink" x="0px" y="0px"
	 width="40px" height="93px" viewBox="-1.879 0 29.996 69.746" enable-background="new -1.879 0 29.996 69.746"
	 xml:space="preserve">
<g>
	<path id="cervical" fill="none" d="M0.502,10.741c0.146,0.518,0.317,1.027,0.537,1.531c0.563,1.285,1.386,2.391,2.186,3.458
		c0.85,1.136,1.649,2.208,2.197,3.558l0.47,0.728l0.085,0.092c0.108,0.119,0.271,0.183,0.433,0.158
		c0.162-0.021,0.303-0.119,0.379-0.263c0.475-0.897,1.446-1.498,3.078-2.289c1.787-0.869,3.273-0.85,5.124,0.063
		c1.441,0.713,2.954,1.139,4.492,1.264l0.728,0.063c0.141,0.008,0.284-0.037,0.389-0.136c1.959-1.868,3.066-4.235,4.141-6.525
		c0.25-0.533,0.5-1.068,0.761-1.596c0.015-0.035,0.022-0.071,0.039-0.105L0.502,10.741L0.502,10.741z"/>
</g>
<g id="root">
	<g>
		<path fill="none" stroke="#000000" stroke-linecap="round" stroke-linejoin="round" stroke-miterlimit="10" d="M18.451,46.625
			l0.353-0.004c2.704-0.027,3.398-0.649,3.079-3.354c-0.274-2.345-0.215-4.784-2.071-6.769c-1.227-1.309-1.57-3.111-1.52-4.998
			c0.105-3.705-0.477-7.451,0.961-11.05c0.229-0.572,0.373-1.277,0.775-1.641c0.075-0.068,0.147-0.137,0.222-0.206l-0.727-0.062
			c-1.519-0.125-2.962-0.547-4.313-1.215c-1.865-0.92-3.529-1.052-5.563-0.063c-1.739,0.845-2.765,1.483-3.303,2.506
			c-0.348,0.659-0.491,1.478-0.499,2.612c-0.009,1.279,0.023,2.561-0.008,3.84c-0.078,3.236,0.129,6.783,1.854,9.242
			c2.518,3.595,4.507,7.272,5.851,11.393c0.432,1.318,1.229,2.333,2.864,2.168c1.773-0.18,1.96-1.627,2.125-2.889
			c0.286-2.188-0.284-4.354-0.749-6.461c-0.367-1.661-0.219-3.021,0.782-4.334l0.275-0.397"/>
		<path fill="none" stroke="#000000" stroke-linecap="round" stroke-linejoin="round" stroke-miterlimit="10" d="M7.821,35.61
			l-0.298,0.212C5.5,37.259,6.932,38.862,7.596,40.1c0.862,1.606,1.625,3.772,4.245,3.28l0.357-0.059"/>
	</g>
</g>
<g id="crown">
	<g>
		<path fill="none" stroke="#000000" stroke-linecap="round" stroke-linejoin="round" stroke-miterlimit="10" d="M13.639,2.978
			l0.362-0.517c0.744-0.709,1.076-1.938,2.399-1.92c1.887,0.029,1.825,2.015,2.869,2.89c1.242-0.974,2.751-1.544,4.056-0.679
			c2.51,1.666,3.104,5.065,1.72,7.871c-1.38,2.795-2.463,5.754-4.797,7.979l-0.727-0.062c-1.519-0.125-2.962-0.547-4.313-1.215
			c-1.866-0.92-3.529-1.052-5.563-0.063c-1.739,0.845-2.765,1.483-3.304,2.506L6.26,19.676l-0.415-0.655
			c-1.026-2.576-3.236-4.403-4.348-6.948C0.781,10.433,0.49,8.79,0.546,7.021c0.054-1.675,0.862-2.76,2.426-3.083
			c1.29-0.268,2.097-1.074,2.86-1.966c1.366-1.595,2.647-1.86,4.576-0.962c1.701,0.791,3.205,1.802,4.59,3.095
			c1.027,0.961,3.074,1.099,4.274-0.674"/>
	</g>
</g>
</svg>
