<?xml version="1.0" encoding="utf-8"?>
<!-- Generator: Adobe Illustrator 16.0.0, SVG Export Plug-In . SVG Version: 6.00 Build 0)  -->
<!DOCTYPE svg PUBLIC "-//W3C//DTD SVG 1.1//EN" "http://www.w3.org/Graphics/SVG/1.1/DTD/svg11.dtd">
<svg version="1.1" id="Layer_1" xmlns="http://www.w3.org/2000/svg" xmlns:xlink="http://www.w3.org/1999/xlink" x="0px" y="0px"
	 width="40px" height="93px" viewBox="-5.821 0 29.996 69.746" enable-background="new -5.821 0 29.996 69.746"
	 xml:space="preserve">
<g>
	<path id="cervical" fill="none" d="M0.499,14.24c0.027,1.17,0.235,2.258,0.665,3.119c0.897,1.805,1.596,3.313,1.696,4.973
		c0.02,0.274,0.233,0.491,0.53,0.468c0.083-0.005,0.156-0.033,0.223-0.073c0.061,0.015,0.121,0.02,0.186,0.009
		c1.028-0.125,1.997,0.687,2.779,1.349l0.347,0.29c2.019,1.646,3.849,1.086,5.618,0.547l0.214-0.063
		c0.229-0.069,0.438-0.172,0.614-0.305c0.344-0.256,0.573-0.618,0.667-1.052c0.68-3.19,1.841-6.27,3.069-9.261H0.499L0.499,14.24z"
		/>
</g>
<g id="root">
	<g>
		<path fill="none" stroke="#000000" stroke-linecap="round" stroke-linejoin="round" stroke-miterlimit="10" d="M3.733,22.238
			c1.411-0.19,2.604,1.007,3.51,1.746c1.886,1.538,3.527,0.951,5.37,0.393c0.177-0.053,0.325-0.127,0.45-0.217"/>
		<path fill="none" stroke="#000000" stroke-linecap="round" stroke-linejoin="round" stroke-miterlimit="10" d="M13.088,24.359
			c0.48,5.35,0.13,10.719,0.478,16.096c1.072,16.598-1.021,18.566-1.021,18.566c-3.879-4.063-6.47-9.731-7.439-15.016
			C4.345,39.86,3.834,35.57,3.521,31.317c-0.158-2.161-1.093-4.345-0.46-6.462c0.271-0.907,0.354-1.756,0.301-2.569"/>
	</g>
</g>
<g id="crown">
	<g>
		<path fill="none" stroke="#000000" stroke-linecap="round" stroke-linejoin="round" stroke-miterlimit="10" d="M3.733,22.238
			c1.411-0.19,2.604,1.007,3.51,1.746c1.886,1.538,3.527,0.951,5.37,0.393c0.183-0.055,0.334-0.132,0.462-0.227
			c0.26-0.193,0.412-0.459,0.477-0.754c0.946-4.45,2.771-8.571,4.515-12.743c0.776-1.858-0.197-3.938-1.221-5.438
			c-1.506-2.205-4.015-3.469-6.421-4.561C8.8-0.084,5.874,1.922,4.484,4.457C4.29,4.808,3.702,5.069,4.206,6.063
			c0.378,0.432,0.845,1.348,2.18,0.315c4.408-3.397,4.254-2.047,7.209-0.063c0.875,0.588,1.322,1.634,2.373,1.96"/>
		<path fill="none" stroke="#000000" stroke-linecap="round" stroke-linejoin="round" stroke-miterlimit="10" d="M3.362,22.299
			c-0.111-1.809-0.893-3.443-1.749-5.163C0.102,14.103,1.528,8.141,3.967,6.117"/>
	</g>
</g>
</svg>
