<?xml version="1.0" encoding="utf-8"?>
<!-- Generator: Adobe Illustrator 16.0.0, SVG Export Plug-In . SVG Version: 6.00 Build 0)  -->
<!DOCTYPE svg PUBLIC "-//W3C//DTD SVG 1.1//EN" "http://www.w3.org/Graphics/SVG/1.1/DTD/svg11.dtd">
<svg version="1.1" id="Layer_1" xmlns="http://www.w3.org/2000/svg" xmlns:xlink="http://www.w3.org/1999/xlink" x="0px" y="0px"
	 width="40px" height="93px" viewBox="-9.5 -7.188 34.995 69.992" enable-background="new -9.5 -7.188 34.995 69.992"
	 xml:space="preserve">
<path id="cervical" fill="none" d="M14.352,50.468c-0.013-0.268-0.029-0.533-0.041-0.799c-0.057-1.428-0.113-2.9-0.527-4.355
	c-0.088-0.311-0.129-0.65-0.172-1.016c-0.088-0.734-0.188-1.566-0.742-2.238c-0.288-0.348-0.264-0.5-0.123-1.025
	c0.049-0.188-0.014-0.375-0.146-0.496c-0.033-0.063-0.082-0.115-0.142-0.158c-0.003-0.002-0.369-0.271-0.933-0.86
	c-0.696-0.733-1.896-0.989-2.028-1.019c-0.032-0.008-0.065-0.01-0.099-0.01c-0.037,0-0.072,0.004-0.108,0.012
	c-2.745,0.617-4.702,1.744-5.981,3.447c-1.141,1.52-1.738,3.467-1.883,6.131c-0.042,0.76-0.251,1.596-0.49,2.392L14.352,50.468
	L14.352,50.468z"/>
<g>
	<path fill="none" stroke="#000000" stroke-linecap="round" stroke-linejoin="round" stroke-miterlimit="10" d="M12.262,40.903
		c0.771-2.894,0.485-5.703-0.143-8.65c-1.128-5.299-1.229-10.686-0.105-16.068c0.969-4.66,2.266-9.302,1.704-14.154
		c0,0-0.538-1.496-1.976-1.526c-1.438-0.031-2.264,0.479-3.031,1.53c-1.281,1.75-2.124,11.037-2.37,15.359
		c-0.366,6.432-1.487,12.701-2.843,18.977c-0.351,1.616-0.941,3.498-0.1,5.26l0.311,0.619c1.14-1.521,2.933-2.644,5.689-3.26
		c0,0,1.156,0.229,1.767,0.868c0.608,0.644,1,0.925,1,0.925L12.262,40.903z"/>
	<path fill="none" stroke="#000000" stroke-linecap="round" stroke-linejoin="round" stroke-miterlimit="10" d="M9.639,39.062
		c-0.031-0.996,0.625-1.949,0.479-2.953"/>
</g>
<g>
	<path fill="none" stroke="#000000" stroke-linecap="round" stroke-linejoin="round" stroke-miterlimit="10" d="M12.262,40.903
		c-0.148,0.565-0.229,0.933,0.221,1.478c0.705,0.852,0.531,2.063,0.818,3.07c0.701,2.461,0.342,4.995,0.79,7.479
		c0.214,1.185,1.232,1.659,1.38,2.853c0.316,2.534-2.595,5.502-4.393,6.006c-3.533,0.985-6.758,0.604-9.581-1.562
		c-0.332-0.254-1.037-0.694-0.996-2.233c0.045-1.724,0.014-4.525,0.257-5.322c0.358-1.178,1.079-3.006,1.166-4.563
		c0.125-2.295,0.604-4.289,1.784-5.856c1.14-1.521,2.933-2.644,5.688-3.262c0,0,1.156,0.229,1.768,0.87c0.609,0.644,1,0.925,1,0.925
		"/>
	<path fill="none" stroke="#000000" stroke-linecap="round" stroke-linejoin="round" stroke-miterlimit="10" d="M5.32,50.507
		c0.105-1.824,0.543-3.576,1.198-5.277"/>
	<path fill="none" stroke="#000000" stroke-linecap="round" stroke-linejoin="round" stroke-miterlimit="10" d="M6.039,58.908
		c-0.4,0-0.807-0.043-1.199,0.006c-1.803,0.229-2.068-0.709-1.682-2.166"/>
	<path fill="none" stroke="#000000" stroke-linecap="round" stroke-linejoin="round" stroke-miterlimit="10" d="M9.398,48.587
		c-0.123-1.119,0.896-2.238,0-3.357"/>
	<path fill="none" stroke="#000000" stroke-linecap="round" stroke-linejoin="round" stroke-miterlimit="10" d="M9.878,39.949
		c-0.163-0.304-0.229-0.599-0.239-0.89"/>
	<path fill="none" stroke="#000000" stroke-linecap="round" stroke-linejoin="round" stroke-miterlimit="10" d="M6.998,58.908
		c2.818,0.26,3.572-0.396,3.6-3.121"/>
	<path fill="none" stroke="#000000" stroke-linecap="round" stroke-linejoin="round" stroke-miterlimit="10" d="M10.838,57.228
		c0.826-0.188,0.71-0.846,0.721-1.438"/>
	<path fill="none" stroke="#000000" stroke-linecap="round" stroke-linejoin="round" stroke-miterlimit="10" d="M6.759,60.108
		C7.063,59.214,5.976,58.6,6.28,57.71"/>
</g>
</svg>
