<?xml version="1.0" encoding="utf-8"?>
<!-- Generator: Adobe Illustrator 16.0.0, SVG Export Plug-In . SVG Version: 6.00 Build 0)  -->
<!DOCTYPE svg PUBLIC "-//W3C//DTD SVG 1.1//EN" "http://www.w3.org/Graphics/SVG/1.1/DTD/svg11.dtd">
<svg version="1.1" id="Layer_1" xmlns="http://www.w3.org/2000/svg" xmlns:xlink="http://www.w3.org/1999/xlink" x="0px" y="0px"
	 width="40px" height="93px" viewBox="-7.32 -1.905 34.996 69.991" enable-background="new -7.32 -1.905 34.996 69.991"
	 xml:space="preserve">
<g>
	<path id="cervical" fill="none" d="M19.892,54.104c-0.375-2.283-0.941-4.535-1.537-6.856l-0.09-0.353c-0.543-2.123-1.157-3.521-2.054-4.67
		c-0.638-0.817-1.423-1.509-2.398-2.104c-1.036-0.636-2.223-0.972-3.432-0.972c-1.982,0-3.875,0.903-5.063,2.416
		c-0.576,0.733-0.969,1.58-1.163,2.517c-0.819,3.936-1.715,7.158-2.78,10.021h18.517V54.104z"/>
</g>
<g id="root">
	<g>
		<path fill="none" stroke="#000000" stroke-linecap="round" stroke-linejoin="round" stroke-miterlimit="10" d="M4.65,19.701
			c0,4.961-0.129,9.926,0.06,14.878c0.084,2.23-0.221,4.551,0.661,6.721l0.344,0.572c1.768-2.252,5.153-2.972,7.839-1.326
			c0.952,0.582,1.685,1.238,2.266,1.984l0.113-0.99c0.39-3.299-0.551-6.435-1.206-9.599c-0.396-1.909-1.139-3.741-0.969-5.763
			c0.377-4.494-0.228-8.973-0.554-13.434c-0.263-3.572-1.607-7.004-3.566-10.051C9.028,1.75,7.772,1.219,6.812,0.5
			C3.945,1.457,3.307,2.613,4.188,5.775c1.235,4.441,1.213,8.926,0.703,13.444"/>
		<path fill="none" stroke="#000000" stroke-linecap="round" stroke-linejoin="round" stroke-miterlimit="10" d="M4.409,19.222
			c-0.361-1.345-0.742-2.692,0.479-3.841"/>
	</g>
</g>
<g id="crown">
	<g>
		<path fill="none" stroke="#000000" stroke-linecap="round" stroke-linejoin="round" stroke-miterlimit="10" d="M6.09,52.822
			c1.879-1.271,1.332-3.609,2.263-5.354c0.67-1.26,0.925-1.561,1.79-0.619c1.279,1.389,2.293,0.604,3.388-0.146"/>
		<path fill="none" stroke="#000000" stroke-linecap="round" stroke-linejoin="round" stroke-miterlimit="10" d="M8.971,61.703
			c-1.746-0.72-2.688-2.777-4.802-2.881"/>
		<path fill="none" stroke="#000000" stroke-linecap="round" stroke-linejoin="round" stroke-miterlimit="10" d="M19.873,60.703
			c-0.049-0.304-0.074-0.605-0.063-0.92c0.146-4.41-0.947-8.529-2.03-12.767c-0.458-1.791-1.008-3.263-1.962-4.483
			c-0.581-0.746-1.313-1.402-2.266-1.986c-2.686-1.646-6.071-0.924-7.839,1.328c-0.509,0.646-0.883,1.424-1.066,2.311
			c-0.817,3.925-1.832,7.798-3.355,11.52c-1.525,3.729-1.02,5.032,2.621,6.996c0.229,0.123,1.459,0.924,1.459,0.924
			c0.881,1.643,3.054,1.449,4.08,2.881l1.68,0.479c3.885,1.186,4.912,0.771,6.979-2.629c0.438-0.715,1.104-1.291,1.662-1.932
			L19.873,60.703z"/>
		<path fill="none" stroke="#000000" stroke-linecap="round" stroke-linejoin="round" stroke-miterlimit="10" d="M15.69,49.94
			c-0.544-1.481-1.994-2.563-1.92-4.317"/>
		<path fill="none" stroke="#000000" stroke-linecap="round" stroke-linejoin="round" stroke-miterlimit="10" d="M14.49,63.144
			c1.429-0.197,1.517-1.869,2.641-2.4"/>
		<path fill="none" stroke="#000000" stroke-linecap="round" stroke-linejoin="round" stroke-miterlimit="10" d="M13.77,62.421
			c0.01,0.418,0.049,0.844-0.32,1.283c-0.666-0.345-1.021-1.479-2.079-1.043"/>
	</g>
</g>
</svg>
