<?xml version="1.0" encoding="utf-8"?>
<!-- Generator: Adobe Illustrator 16.0.0, SVG Export Plug-In . SVG Version: 6.00 Build 0)  -->
<!DOCTYPE svg PUBLIC "-//W3C//DTD SVG 1.1//EN" "http://www.w3.org/Graphics/SVG/1.1/DTD/svg11.dtd">
<svg version="1.1" id="Layer_1" xmlns="http://www.w3.org/2000/svg" xmlns:xlink="http://www.w3.org/1999/xlink" x="0px" y="0px"
	 width="40px" height="93px" viewBox="-11.799 -13.941 34.996 69.99" enable-background="new -11.799 -13.941 34.996 69.99"
	 xml:space="preserve">
<path id="cervical" fill="none" d="M-0.709,43.397l10.4,1.537c-0.012-0.644,0.015-1.295,0.044-1.963c0.044-0.964,0.087-1.953,0-2.938l-0.087-1.046
	c-0.111-1.37-0.228-2.79-0.501-4.154c-0.117-0.58-0.19-1.324-0.222-2.212C8.92,32.433,8.81,32.267,8.64,32.186l-0.493-0.228
	c-0.645-0.439-1.338-0.86-2.067-0.969c-0.943-0.14-1.773,0.252-2.536,1.197c-0.348,0.433-0.784,0.721-1.29,0.851
	C2.078,33.084,1.94,33.223,1.895,33.4L1.84,33.614c-0.01,0.039-0.015,0.078-0.016,0.118c-0.005,0.631-0.242,1.222-0.493,1.85
	c-0.214,0.537-0.436,1.09-0.523,1.696L0.599,37.58c-0.992,1.176-1.037,2.514-1.08,3.805C-0.504,42.093-0.535,42.765-0.709,43.397z"
	/>
<g>
	<path fill="none" stroke="#000000" stroke-linecap="round" stroke-linejoin="round" stroke-miterlimit="10" d="M12.938,1.341
		c-1.201,0.719-2.144,1.926-2.519,3.045C10.091,5.368,6.774,10,6.676,11.804c-0.245,4.533-1.821,8.649-2.958,12.925
		c-0.715,2.689-0.876,5.523-1.285,8.296L2.38,33.523c0.596-0.153,1.123-0.485,1.556-1.021c1.337-1.658,2.592-1.044,3.93-0.129
		l0.562,0.267c-0.08-2.422,0.178-5.369,0.354-7.161c0.325-3.298,2.128-6.079,2.582-9.328c0.244-1.755,1.196-3.553,1.919-5.282
		c1.063-2.539,1.313-5.147,1.331-7.821c0.007-0.917-0.219-1.799-1.399-1.907"/>
</g>
<g>
	<path fill="none" stroke="#000000" stroke-linecap="round" stroke-linejoin="round" stroke-miterlimit="10" d="M2.626,41.544
		c1.021-0.816,1.1-2.062,1.479-3.168c1.338-0.221,2.538-0.211,2.127,1.76"/>
	<path fill="none" stroke="#000000" stroke-linecap="round" stroke-linejoin="round" stroke-miterlimit="10" d="M6.551,51.101
		c0.895,0.271,0.754,1.084,0.463,1.504c-0.698,1.002-6.122,1.096-7.012,0.188c-0.532-0.545-0.921-1.199-0.679-2.03"/>
	<path fill="none" stroke="#000000" stroke-linecap="round" stroke-linejoin="round" stroke-miterlimit="10" d="M7.865,32.371
		c-1.338-0.915-2.593-1.529-3.93,0.129c-0.435,0.537-0.96,0.868-1.556,1.021l-0.053,0.214c-0.01,1.336-0.891,2.431-1.037,3.729
		l-0.307,0.438c-1.457,1.725-0.615,3.939-1.28,5.893c-0.993,2.906-2.33,5.711-2.852,8.781c-0.293,1.729,0.396,2.418,2.037,2.76
		c3.44,0.715,6.698-0.578,10.128-0.701c0.387-1.977,1.313-3.838,1.041-5.926L9.69,47.925c-0.949-2.563-0.221-5.232-0.454-7.85
		c-0.15-1.722-0.242-3.47-0.58-5.146c-0.13-0.65-0.2-1.438-0.229-2.294L7.865,32.371z"/>
</g>
</svg>
