<?xml version="1.0" encoding="utf-8"?>
<!-- Generator: Adobe Illustrator 16.0.0, SVG Export Plug-In . SVG Version: 6.00 Build 0)  -->
<!DOCTYPE svg PUBLIC "-//W3C//DTD SVG 1.1//EN" "http://www.w3.org/Graphics/SVG/1.1/DTD/svg11.dtd">
<svg version="1.1" id="Layer_1" xmlns="http://www.w3.org/2000/svg" xmlns:xlink="http://www.w3.org/1999/xlink" x="0px" y="0px"
	 width="40px" height="93px" viewBox="-0.313 -14.25 34.996 69.99" enable-background="new -0.313 -14.25 34.996 69.99"
	 xml:space="preserve">
<g>
	<path id="cervical" fill="none" d="M32.619,45.069c-0.468-1.394-1.102-2.707-1.729-3.985c-0.685-1.396-1.328-2.709-1.765-4.115l-0.074-0.247
		c-0.071-0.244-0.311-0.392-0.567-0.353l-0.293,0.055c-0.382,0.086-0.685,0.265-0.976,0.436c-0.237,0.141-0.463,0.271-0.713,0.338
		c-1.859,0.498-3.648,0.143-5.545-0.234c-1.033-0.207-2.103-0.42-3.181-0.479l-0.16-0.01c-1.003-0.06-1.986-0.111-2.962-0.111
		c-1.848,0-3.668,0.197-5.541,0.968c-0.433,0.17-0.844,0.403-1.241,0.629c-0.779,0.44-1.519,0.896-2.362,0.84
		c-0.276-0.008-0.571,0.002-0.853,0.099c-0.49,0.166-0.799,0.546-1.112,1.063c-0.878,1.455-1.3,3.045-1.707,4.582
		c-0.048,0.18-0.097,0.354-0.144,0.527L32.619,45.069L32.619,45.069z"/>
</g>
<g id="root">
	<g>
		<path fill="none" stroke="#000000" stroke-linecap="round" stroke-linejoin="round" stroke-miterlimit="10" d="M28.572,36.86
			c-1.195-4.061-1.046-8.266,0.346-12.466c0.639-1.924,1.994-3.604,2.023-5.727c0,0,0.395-1.881,0.456-3.568
			c0.063-1.688,1.226-2.432,1.226-2.432c0.51-1.254-0.354-2.965,0.334-3.76c1.642-1.9,0.492-3.93,0.856-5.842
			c0.149-0.791-0.052-1.52-0.954-1.654c-0.625-0.092-1.258-0.184-1.727,0.668c-0.493,0.904-1.699,1.388-1.631,2.668
			c0,0-3.344,5.445-5.344,10.82s-3.668,6.938-5.793,9.844c-2.125,2.907-3.986,2.376-3.986,2.376c-0.45-1.251-1.877-1.689-2.4-2.88
			l-0.24-0.479c0.287-1.228-0.77-2.015-1.018-3.104c-0.79-3.479-0.43-6.729,1.258-9.854l0.24-0.479
			c0.721-2.289,2.521-3.928,3.6-6.002c0.34-0.652,1.025-3.256,0.328-4.105c-0.756-0.919-2.939-0.025-3.688,0.986
			C11.021,3.821,9.158,7.509,7.4,10.259c-1.465,2.294-1.673,4.956-2.318,7.469c-0.52,2.018-1.152,4.051-1.061,6.225
			c0.075,1.801,0.889,3.432,0.801,5.281c-0.156,3.272-0.043,6.561-0.043,9.838l0.037,0.301c0.187-0.063,0.402-0.076,0.682-0.07
			c1.457,0.031,2.555-1.002,3.806-1.514c2.81-1.149,5.498-0.976,8.444-0.81c2.958,0.167,5.835,1.521,8.882,0.698
			c0.643-0.174,1.063-0.629,1.668-0.768L28.572,36.86z"/>
	</g>
</g>
<g id="crown">
	<g>
		<path fill="none" stroke="#000000" stroke-linecap="round" stroke-linejoin="round" stroke-miterlimit="10" d="M15.928,51.164
			c1.099-1.039,2.81-0.201,3.468,0.412c3.688,3.437,8.706,3.314,12.059-0.236c0.906-0.961,1.168-4.35,1.168-4.35
			c-0.682-3.564-2.936-6.519-3.974-9.873c-0.024-0.086-0.053-0.172-0.077-0.257L28.3,36.91c-0.604,0.139-1.024,0.594-1.666,0.768
			c-3.047,0.82-5.926-0.531-8.882-0.698c-2.947-0.166-5.635-0.345-8.445,0.81c-1.251,0.51-2.347,1.545-3.805,1.512
			c-0.28-0.006-0.496,0.01-0.682,0.07c-0.312,0.104-0.541,0.344-0.845,0.85c-1.599,2.646-1.626,5.799-3.052,8.441
			c-0.973,1.801-0.115,3.219,1.014,4.293c3.422,3.254,9.521,2.969,12.922-0.447c0.596-0.6,1.898-2.074,1.539-4.437"/>
	</g>
</g>
</svg>
