<?xml version="1.0" encoding="utf-8"?>
<!-- Generator: Adobe Illustrator 16.0.0, SVG Export Plug-In . SVG Version: 6.00 Build 0)  -->
<!DOCTYPE svg PUBLIC "-//W3C//DTD SVG 1.1//EN" "http://www.w3.org/Graphics/SVG/1.1/DTD/svg11.dtd">
<svg version="1.1" id="Layer_1" xmlns="http://www.w3.org/2000/svg" xmlns:xlink="http://www.w3.org/1999/xlink" x="0px" y="0px"
	 width="40px" height="93px" viewBox="-6.521 0 29.996 69.746" enable-background="new -6.521 0 29.996 69.746"
	 xml:space="preserve">
<g>
	<path id="cervical" fill="none" d="M1.664,13.673c0.449,1.863,0.684,3.799,0.906,5.692l0.14,1.169c0.274,2.237,2.339,4.057,4.599,4.057
		c0.765,0,1.506-0.213,2.145-0.617c0.301-0.188,0.578-0.414,0.854-0.639c0.494-0.398,0.959-0.775,1.539-0.91
		c0.029-0.006,0.125-0.045,0.152-0.058c0.146-0.065,0.255-0.196,0.288-0.354c0.124-0.58,0.271-1.022,0.438-1.313
		c1.022-1.786,1.979-3.847,2.924-6.298c0.095-0.245,0.177-0.486,0.261-0.729H1.664L1.664,13.673z"/>
</g>
<g id="root">
	<g>
		<path fill="none" stroke="#000000" stroke-linecap="round" stroke-linejoin="round" stroke-miterlimit="10" d="M11.734,21.938
			c-1.039,0.239-1.699,1.075-2.549,1.612c-1.778,1.125-4.084,0.39-5.254-1.24l-0.096,0.043l-0.383,0.279
			c-0.92,0.561-0.93,1.438-0.986,2.398c-0.17,2.926,0.34,5.771,0.728,8.644c0.521,3.873-0.513,7.678-0.804,11.51
			C2.198,47.75,2.513,50.3,2.167,52.893c-0.251,1.883-0.058,4.322,2.006,5.738c0,0,0.752-0.93,0.99-1.168
			c3.246-3.216,2.893-7.584,3.83-11.547c0.735-3.109,0.249-6.251,0.505-9.361c0.141-1.678,0.551-3.373,1.617-4.814
			c0.457-0.616,0.265-1.422,0.251-2.148c-0.035-1.875-0.046-5.433,0.433-7.683L11.734,21.938z"/>
	</g>
</g>
<g id="crown">
	<g>
		<path fill="none" stroke="#000000" stroke-linecap="round" stroke-linejoin="round" stroke-miterlimit="10" d="M13.292,7.992
			c-1.112-2.837-3.89-3.173-6.251-4.047C5.507,3.378,3.958,3.591,2.733,4.872"/>
		<path fill="none" stroke="#000000" stroke-linecap="round" stroke-linejoin="round" stroke-miterlimit="10" d="M11.734,21.938
			c-1.039,0.239-1.699,1.075-2.549,1.612c-2.356,1.49-5.638-0.285-5.979-3.076c-0.408-3.323-0.686-6.723-1.982-9.813
			C0.32,8.513,0.362,6.523,0.808,4.39c0.358-1.713,2.406-3.729,4.086-3.823c2.511-0.144,5.008-0.192,7.208,1.413
			c1.674,1.223,3.899,2.152,4.224,4.346c0.391,2.65-0.171,5.371-1.142,7.896c-0.822,2.133-1.758,4.248-2.895,6.228
			c-0.205,0.356-0.365,0.862-0.492,1.46L11.734,21.938z"/>
	</g>
</g>
</svg>
