<?xml version="1.0" encoding="utf-8"?>
<!-- Generator: Adobe Illustrator 16.0.0, SVG Export Plug-In . SVG Version: 6.00 Build 0)  -->
<!DOCTYPE svg PUBLIC "-//W3C//DTD SVG 1.1//EN" "http://www.w3.org/Graphics/SVG/1.1/DTD/svg11.dtd">
<svg version="1.1" id="Layer_1" xmlns="http://www.w3.org/2000/svg" xmlns:xlink="http://www.w3.org/1999/xlink" x="0px" y="0px"
	 width="40px" height="93px" viewBox="-0.822 0 29.996 69.746" enable-background="new -0.822 0 29.996 69.746"
	 xml:space="preserve">
<g>
	<path id="cervical" fill="none" d="M1.052,11.248c0.107,0.282,0.219,0.563,0.326,0.848c0.685,1.811,1.392,3.684,2.344,5.422
		c0.216,0.393,0.444,0.779,0.688,1.158c0.148,0.233,0.462,0.299,0.688,0.15c0.031-0.021,0.052-0.05,0.077-0.074
		c0.045-0.016,0.091-0.029,0.131-0.059c2.612-1.854,5.226-2.247,8.221-1.225c1.618,0.552,3.759,1.15,5.958,0.867
		c0.966-0.125,1.825-0.197,2.632,0.176l0.488,0.191c0.024,0.01,0.049,0.008,0.073,0.014c0.021,0.011,0.034,0.025,0.056,0.033
		c0.26,0.092,0.548-0.041,0.642-0.301c0.315-0.878,0.608-1.533,0.951-2.123c0.303-0.521,0.659-1,1.04-1.506
		c0.537-0.719,1.096-1.461,1.46-2.313l0.2-0.402c0.282-0.277,0.505-0.564,0.693-0.859H1.052V11.248z"/>
</g>
<g id="root">
	<g>
		<path fill="none" stroke="#000000" stroke-linecap="round" stroke-linejoin="round" stroke-miterlimit="10" d="M4.16,17.276
			c0.21,0.383,0.433,0.761,0.669,1.129c0.287,0.446,0.596,0.882,0.931,1.304c0.539,0.678,0.671,1.442,0.921,2.184
			c0.533,1.582,0.777,3.293,1.511,4.77c0.784,1.577,1.247,3.11,0.896,4.823c-0.484,2.375,0.764,4.56,0.564,6.969
			c-0.379,4.62-0.068,9.218,3.297,12.943c0.361,0.401,0.146,0.812,0.229,1.211c0,0,1.969,3.057,2.513,0.264
			c0.347-1.645,0.891-3.389,2.023-4.841c1.867-2.396,0.305-5.106,0.518-7.662c0.315-3.794,0.624-8.499,2.104-12.122"/>
		<path fill="none" stroke="#000000" stroke-linecap="round" stroke-linejoin="round" stroke-miterlimit="10" d="M17.976,48.525
			c3.008,0.854,5.082-0.455,5.604-4.067c0.695-4.843-0.269-9.372-1.519-13.933c-0.041-0.149,0.063-0.409-0.015-0.467
			c-3.316-2.462-2.016-5.048-0.563-7.979c0.596-1.199,0.953-2.512,1.418-3.801l-0.114-0.042l-0.49-0.19
			c-0.931-0.434-1.94-0.328-2.876-0.207c-2.009,0.256-3.968-0.244-5.733-0.846c-3.242-1.104-6-0.607-8.672,1.291"/>
		<path fill="none" stroke="#000000" stroke-linecap="round" stroke-linejoin="round" stroke-miterlimit="10" d="M10.776,48.766
			c-0.238,0-0.497-0.058-0.718,0.01c-3.307,0.984-3.5,0.779-4.836-2.637c-1.101-2.813-1.387-5.701-1.393-8.652
			c-0.005-1.86-0.496-3.728-0.408-5.518c0.223-4.484-0.528-10.076,0.684-14.535"/>
	</g>
</g>
<g id="crown">
	<g>
		<path fill="none" stroke="#000000" stroke-linecap="round" stroke-linejoin="round" stroke-miterlimit="10" d="M5.016,18.287
			c2.672-1.898,5.431-2.396,8.672-1.291c1.766,0.602,3.725,1.102,5.733,0.844c0.936-0.119,1.945-0.226,2.876,0.207l0.49,0.191"/>
		<path fill="none" stroke="#000000" stroke-linecap="round" stroke-linejoin="round" stroke-miterlimit="10" d="M22.902,18.28
			c0.271-0.75,0.578-1.493,0.989-2.202c0.767-1.322,1.882-2.388,2.485-3.791l0.24-0.48c0.818-0.784,1.284-1.657,1.229-2.881
			c-0.075-1.668,0.035-3.321-0.979-4.805c-1.204-1.757-3.64-1.779-4.897-3.531c-0.164-0.229-1.46-0.016-2.383,0.539
			c-2.373,1.424-5.138,2.08-7.84,0.584C9.229,0.321,6.883,0.162,4.27,1.683c-3.446,2.01-4.551,4.857-3.225,8.16
			c0.993,2.474,1.821,5.072,3.114,7.434c0.21,0.383,0.433,0.76,0.669,1.129"/>
		<path fill="none" stroke="#000000" stroke-linecap="round" stroke-linejoin="round" stroke-miterlimit="10" d="M4.105,17.434"/>
		<path fill="none" stroke="#000000" stroke-linecap="round" stroke-linejoin="round" stroke-miterlimit="10" d="M11.016,5.328
			C9.544,3.917,7.953,3.296,5.96,4.333C5.518,4.562,4.855,4.366,4.298,4.366"/>
		<path fill="none" stroke="#000000" stroke-linecap="round" stroke-linejoin="round" stroke-miterlimit="10" d="M21.105,0.539
			c0,0-2.834,1.709-4.042,3.334s-1.25,2.084-1.25,2.084"/>
	</g>
</g>
</svg>
