<?xml version="1.0" encoding="utf-8"?>
<!-- Generator: Adobe Illustrator 16.0.0, SVG Export Plug-In . SVG Version: 6.00 Build 0)  -->
<!DOCTYPE svg PUBLIC "-//W3C//DTD SVG 1.1//EN" "http://www.w3.org/Graphics/SVG/1.1/DTD/svg11.dtd">
<svg version="1.1" id="Layer_1" xmlns="http://www.w3.org/2000/svg" xmlns:xlink="http://www.w3.org/1999/xlink" x="0px" y="0px"
	 width="40px" height="93px" viewBox="-7.582 -1.709 34.995 69.991" enable-background="new -7.582 -1.709 34.995 69.991"
	 xml:space="preserve">
<path id="cervical" fill="none" d="M18.898,52.957c-0.236-1.398-0.674-2.748-1.105-4.056c-0.53-1.596-1.08-3.245-1.217-4.942
	c-0.021-0.271-0.138-0.504-0.332-0.672c-0.197-0.175-0.439-0.25-0.652-0.316c-0.342-0.109-0.449-0.164-0.502-0.318
	c-0.313-0.92-2.443-3.688-3.543-3.695c-0.2-0.002-0.402-0.012-0.604-0.018c-0.255-0.008-0.509-0.018-0.759-0.018
	c-1.423,0-2.858,0.268-3.728,2.205c-0.387,0.86-0.824,1.838-1.75,2.146l-0.51,0.123c-0.238,0.06-0.4,0.278-0.381,0.524
	c0.077,0.953-0.055,1.894-0.43,3.041c-0.273,0.845-0.566,1.681-0.859,2.517C2.13,50.61,1.739,51.778,1.38,52.957H18.898z"/>
<g>
	<path fill="none" stroke="#000000" stroke-linecap="round" stroke-linejoin="round" stroke-miterlimit="10" d="M15.916,43.664
		c-0.332-0.291-1.078-0.201-1.301-0.853c-0.307-0.899-2.335-3.354-3.072-3.358c-1.777-0.021-3.621-0.377-4.627,1.873
		C6.512,42.224,6,43.369,4.823,43.757L4.314,43.88c-0.023-0.277-0.063-0.564-0.121-0.859c-0.505-2.559,0.289-5.189,0.962-7.638
		c0.876-3.184,1.981-6.344,1.474-9.607c-0.231-1.476,1.408-0.897,0.739-3.13s1.429-6.639,1.985-9.613
		c0.188-1.005,0.515-3.793,0.796-4.73c0.281-0.937,0.434-1.623,0.434-1.623c1.094-1.771,0.629-4.394,3.101-5.447
		c0.562-0.239,1.065-1.004,1.674-0.631c0.702,0.432,1.465,1.121,1.208,2.113c-0.797,3.074-0.336,6.256-0.984,9.404
		c-0.477,2.293-0.822,4.841-0.531,7.41c0.531,4.663,2.08,9.174,2.013,13.909c-0.047,3.306,0.351,6.655-0.957,9.84L15.916,43.664z"/>
</g>
<g>
	<path fill="none" stroke="#000000" stroke-linecap="round" stroke-linejoin="round" stroke-miterlimit="10" d="M6.5,52.156
		c1.265-0.052,1.375-1.201,1.379-1.921c0.016-1.922,0.588-2.952,2.705-2.661c0.582,0.079,0.771-0.65,1.196-0.938"/>
	<path fill="none" stroke="#000000" stroke-linecap="round" stroke-linejoin="round" stroke-miterlimit="10" d="M13.46,50.235
		c-0.229-2.51-1.775-4.668-1.92-7.198"/>
	<path fill="none" stroke="#000000" stroke-linecap="round" stroke-linejoin="round" stroke-miterlimit="10" d="M6.5,61.517
		c-2.373-0.973-1.815-3.199-2.16-5.039"/>
	<path fill="none" stroke="#000000" stroke-linecap="round" stroke-linejoin="round" stroke-miterlimit="10" d="M11.3,61.517
		c2.188,0.34,4-1.369,4.32-4.08"/>
	<path fill="none" stroke="#000000" stroke-linecap="round" stroke-linejoin="round" stroke-miterlimit="10" d="M4.82,43.757
		c1.178-0.389,1.688-1.531,2.092-2.432c1.01-2.25,2.852-1.894,4.628-1.873c0.737,0.008,2.768,2.459,3.072,3.358
		c0.223,0.647,0.969,0.562,1.301,0.853c0.09,0.076,0.148,0.184,0.162,0.334c0.271,3.344,2.008,6.303,2.422,9.602l0.239,0.479
		c0.447,0.729,1.157,4.772-0.167,7.006c-1.894,3.192-6.32,4.869-7.775,6.414c-0.229,0.239-0.854,0.362-1.165,0.229
		c-2.55-1.08-5.712-1.065-7.239-4.037c-0.246-0.478-0.711-0.985-1.413-0.974c0,0-0.042-0.37-0.167-1.448S0.5,59.837,0.5,59.837
		c1.183-1.604,0.475-3.541,0.928-5.289c0.656-2.533,1.625-4.955,2.433-7.434c0.351-1.074,0.544-2.095,0.452-3.234L4.82,43.757z"/>
</g>
</svg>
