<?xml version="1.0" encoding="utf-8"?>
<!-- Generator: Adobe Illustrator 16.0.0, SVG Export Plug-In . SVG Version: 6.00 Build 0)  -->
<!DOCTYPE svg PUBLIC "-//W3C//DTD SVG 1.1//EN" "http://www.w3.org/Graphics/SVG/1.1/DTD/svg11.dtd">
<svg version="1.1" id="Layer_1" xmlns="http://www.w3.org/2000/svg" xmlns:xlink="http://www.w3.org/1999/xlink" x="0px" y="0px"
	 width="40px" height="93px" viewBox="-2.561 -0.5 29.996 69.746" enable-background="new -2.561 -0.5 29.996 69.746"
	 xml:space="preserve">
<g>
	<path id="cervical" fill="none" d="M1.253,10.519c0.345,0.381,0.492,0.697,0.556,1.182c0.2,1.537,0.8,2.854,1.282,3.911
		c0.339,0.742,0.631,1.384,0.721,1.927c0.068,0.416,0.068,0.893,0,1.418c-0.018,0.129,0.059,0.299,0.146,0.416
		c0.026,0.041,0.063,0.092,0.105,0.148c0.089,0.117,0.221,0.189,0.366,0.197c0.146-0.006,0.284-0.049,0.385-0.154
		c1.372-1.041,3.582-1.184,5.72-1.32c1.356-0.088,2.639-0.171,3.687-0.48c0.68-0.207,1.86,0.395,2.809,0.875
		c0.201,0.103,0.395,0.201,0.578,0.289c0.471,0.229,0.877,0.631,1.146,1.136c0.115,0.217,0.366,0.287,0.6,0.209
		c0.172-0.06,0.291-0.222,0.323-0.399l0.119-0.398c0.948-2.922,2.188-5.858,3.767-8.954L1.253,10.519L1.253,10.519z"/>
</g>
<g id="root">
	<g>
		<path fill="none" stroke="#000000" stroke-linecap="round" stroke-linejoin="round" stroke-miterlimit="10" d="M4.514,19.165
			c2.396-1.818,6.937-1.102,9.564-1.883c1.039-0.309,2.602,0.641,3.746,1.193c0.541,0.262,1.033,0.72,1.371,1.352
			c0.277,0.518,0.447,1.153,0.453,1.891c0.018,3.017,1.105,5.933,2.383,8.607c1.865,3.909,2.557,7.567-0.6,11.026
			c-0.549,0.601-0.399,0.998-0.521,2.166c-0.122,1.17-3.551-3.357-6.396-2.885c-0.429,0.071-0.984-0.389-1.429-0.684
			c-5.65-3.766-8.381-9.176-8.885-15.833"/>
		<path fill="none" stroke="#000000" stroke-linecap="round" stroke-linejoin="round" stroke-miterlimit="10" d="M5.585,20.573
			l-0.104,0.18c-0.633,0.705-0.408,2.181-1.041,2.886L4.2,24.118l-0.24-0.479c-0.344-1.041-0.481-2.081,0-3.121
			c0,0,0.236-0.65,0.348-1.498l0.061,0.061c0.021,0.034,0.053,0.082,0.096,0.139c0.152,0.201,0.431,0.529,0.736,0.894
			c0.61,0.726,1.332,1.589,1.379,1.85c0.582,3.172,1.77,6.077,3.334,8.903c1.164,2.098,2.746,3.833,4.068,5.775
			c0.717,1.051,2.074,1.938,1.74,3.557l-0.035,0.477"/>
	</g>
</g>
<g id="crown">
	<g>
		<path fill="none" stroke="#000000" stroke-linecap="round" stroke-linejoin="round" stroke-miterlimit="10" d="M18.154,3.44
			l0.203-0.031c1.984-0.406,2.164-1.852,2.164-1.852c3.42,0.91,4.435,2.525,3.547,5.986c-0.143,0.555,0.107,1.24-0.426,1.693
			l-0.24,0.479c-1.608,3.096-3.004,6.281-4.08,9.602l-0.135,0.45l0.01,0.058c-0.338-0.631-0.83-1.089-1.371-1.351
			c-1.146-0.554-2.707-1.503-3.746-1.193c-2.629,0.781-7.168,0.063-9.564,1.884l-0.052,0.053c-0.043-0.057-0.074-0.104-0.096-0.137
			l-0.06-0.062c0.063-0.485,0.085-1.035-0.003-1.563c-0.24-1.455-1.674-3.308-2-5.82c-0.098-0.758-0.373-1.182-0.938-1.725
			C0.124,8.716,0.231,6.966,1.592,5.915c0.95-0.736,1.745-1.65,3.071-2.023c2.301-0.646,3.918-2.62,6.465-3.203
			c2.356-0.538,3.931,0.126,5.539,1.371c1.235,0.957,2.099,2.436,3.856,2.619"/>
	</g>
</g>
</svg>
