<?xml version="1.0" encoding="utf-8"?>
<!-- Generator: Adobe Illustrator 16.0.0, SVG Export Plug-In . SVG Version: 6.00 Build 0)  -->
<!DOCTYPE svg PUBLIC "-//W3C//DTD SVG 1.1//EN" "http://www.w3.org/Graphics/SVG/1.1/DTD/svg11.dtd">
<svg version="1.1" id="Layer_1" xmlns="http://www.w3.org/2000/svg" xmlns:xlink="http://www.w3.org/1999/xlink" x="0px" y="0px"
	 width="40px" height="93px" viewBox="-0.033 -17.454 34.996 69.991" enable-background="new -0.033 -17.454 34.996 69.991"
	 xml:space="preserve">
<g>
	<path id="cervical" fill="none" d="M34.046,43.906c-0.51-0.769-1.085-1.48-1.648-2.179c-1.383-1.707-2.688-3.315-3.035-5.569l-0.131-0.83
		c-0.024-0.165-0.135-0.308-0.287-0.374c-0.15-0.07-0.327-0.061-0.471,0.027l-0.543,0.338c-1.021,0.64-2.229,0.964-3.58,0.964
		c-0.953,0-1.953-0.166-2.894-0.48c-1.526-0.513-3.082-0.775-4.585-1.029c-1.062-0.183-2.158-0.366-3.213-0.64
		c-0.363-0.093-0.749-0.141-1.146-0.141c-1.688,0-3.59,0.851-5.092,2.271c-1.005,0.953-1.728,2.084-2.032,3.186
		c-0.169,0.604-0.387,1.184-0.615,1.795C4.531,41.89,4.28,42.56,4.09,43.265c-0.058,0.215-0.104,0.428-0.142,0.641H34.046
		L34.046,43.906z"/>
</g>
<g id="root">
	<g>
		<path fill="none" stroke="#000000" stroke-linecap="round" stroke-linejoin="round" stroke-miterlimit="10" d="M19.794,0.943
			c-1.016-0.577-2.131-0.69-2.839,0.271c-0.762,1.033,0.087,1.928,0.65,2.867c1.537,2.559,2.998,5.029,3.814,8.094
			c1.273,4.781,0.739,8.902-1.63,13.008c-0.854,1.484-1.854,1.635-3.114,0.479c-1.334-1.224-2.254-2.759-3.117-4.32
			C11.521,17.66,11.37,13.324,9.485,9.58C7.163,4.635,3.147,1.143,1.357,1.75c-1.271,0.43-0.91,4.318-0.313,4.98
			c0.502,0.556,0.628,1.437,0.997,2.129c1.207,2.269,1.795,4.738,2.39,7.205c0.898,3.738,2.057,7.392,2.515,11.267
			c0.344,2.892,0.03,5.801,0.609,8.65l0.211,0.646c1.611-1.526,3.892-2.493,5.771-2.011c2.56,0.654,5.19,0.797,7.763,1.656
			c2,0.672,4.694,0.846,6.896-0.527l0.541-0.336c-0.473-2.913-1.029-5.738-0.41-8.807c0.544-2.69,0.344-5.604,0.042-8.37
			c-0.279-2.561-0.144-5.124-0.771-7.717c-0.842-3.461-2.709-5.872-5.4-7.891c-0.641-0.48-1.279-0.961-1.92-1.44"/>
	</g>
</g>
<g id="crown">
	<g>
		<path fill="none" stroke="#000000" stroke-linecap="round" stroke-linejoin="round" stroke-miterlimit="10" d="M28.194,35.746
			c-2.2,1.373-4.896,1.198-6.896,0.526c-2.568-0.858-5.203-1-7.763-1.655c-1.879-0.481-4.157,0.481-5.771,2.011
			c-0.905,0.856-1.602,1.896-1.896,2.955c-0.36,1.291-0.941,2.492-1.299,3.813c-0.938,3.486,0.843,6.363,4.422,6.527
			c1.253,0.059,2.443-0.137,3.597-0.516c4.104-1.351,7.495,0.896,11.029,2.215c2.438,0.91,7.063,0.274,9.159-1.447
			c0.769-0.631,0.445-1.979,1.654-2.193l-0.24-2.879c-1.646-3.025-4.754-5.117-5.324-8.873c-0.042-0.271-0.088-0.549-0.133-0.82
			L28.194,35.746z"/>
		<path fill="none" stroke="#000000" stroke-linecap="round" stroke-linejoin="round" stroke-miterlimit="10" d="M29.155,51.343
			c0.175-1.324,0.459-2.563,2.16-2.639"/>
	</g>
</g>
</svg>
