<?xml version="1.0" encoding="utf-8"?>
<!-- Generator: Adobe Illustrator 16.0.0, SVG Export Plug-In . SVG Version: 6.00 Build 0)  -->
<!DOCTYPE svg PUBLIC "-//W3C//DTD SVG 1.1//EN" "http://www.w3.org/Graphics/SVG/1.1/DTD/svg11.dtd">
<svg version="1.1" id="Layer_1" xmlns="http://www.w3.org/2000/svg" xmlns:xlink="http://www.w3.org/1999/xlink" x="0px" y="0px"
	 width="40px" height="32.55px" viewBox="0 0 33.583 27.333" enable-background="new 0 0 33.583 27.333" xml:space="preserve">
<g>
	<g>
		<path id="teeth-left" fill="none" stroke="#000000" stroke-linecap="round" stroke-linejoin="round" stroke-miterlimit="10" d="M3.665,22.667
			l4.601-4.601l0.078-0.09c-0.831-1.261-1.261-2.771-1.261-4.393l0,0c0-1.633,0.575-3.12,1.522-4.347L8.541,9.208L3.452,4.725
			L3.329,4.632C1.625,6.28,0.5,8.308,0.5,10.5v6.333c0,2.215,1.215,4.26,3.027,5.918L3.665,22.667z"/>
	</g>
</g>
<g>
	<g>
		<path id="teeth-bottom" fill="none" stroke="#000000" stroke-linecap="round" stroke-linejoin="round" stroke-miterlimit="10" d="M30.045,22.586
			l-4.336-4.397l-0.08-0.051c-1.402,2.081-3.988,3.444-7.922,3.444h-1.625c-3.679,0-6.306-1.435-7.739-3.606l-0.048,0.06
			L3.64,22.691l-0.1,0.069c2.707,2.47,6.74,4.072,10.043,4.072H20c3.332,0,7.404-1.629,10.112-4.135L30.045,22.586z"/>
	</g>
</g>
<g>
	<g>
		<path id="teeth-right" fill="none" stroke="#000000" stroke-linecap="round" stroke-linejoin="round" stroke-miterlimit="10" d="M30.327,4.498
			c1.666,1.672,2.756,3.75,2.756,6.002v6.333c0,2.188-1.187,4.211-2.961,5.856l-0.029-0.056l-4.407-4.469l-0.054-0.029
			c0.869-1.293,1.285-2.861,1.285-4.552l0,0c0-1.586-0.594-3.034-1.558-4.239l0.037-0.031l4.875-4.75L30.327,4.498z"/>
	</g>
</g>
<g>
	<g>
		<path id="teeth-top" fill="none" stroke="#000000" stroke-linecap="round" stroke-linejoin="round" stroke-miterlimit="10" d="M3.343,4.629
			l5.198,4.579l0.037,0.063c1.613-2.112,4.329-3.459,7.13-3.459h2.188c2.825,0,5.726,1.37,7.45,3.514l0.05-0.013l4.875-4.75
			l0.042-0.076C27.894,2.065,24.266,0.5,21,0.5h-7.834c-3.313,0-7.21,1.611-9.798,4.093L3.343,4.629z"/>
	</g>
</g>
<path id="teeth-center" fill="none" stroke="#000000" stroke-linecap="round" stroke-linejoin="round" stroke-miterlimit="10" d="
	M26.916,13.583c0,4.417-2.833,8-9.208,8h-1.625c-5.813,0-9-3.582-9-8l0,0c0-4.418,4.206-7.771,8.625-7.771h2.188
	C22.313,5.813,26.916,9.165,26.916,13.583L26.916,13.583z"/>
</svg>
