<?xml version="1.0" encoding="utf-8"?>
<!-- Generator: Adobe Illustrator 16.0.0, SVG Export Plug-In . SVG Version: 6.00 Build 0)  -->
<!DOCTYPE svg PUBLIC "-//W3C//DTD SVG 1.1//EN" "http://www.w3.org/Graphics/SVG/1.1/DTD/svg11.dtd">
<svg version="1.1" id="Layer_1" xmlns="http://www.w3.org/2000/svg" xmlns:xlink="http://www.w3.org/1999/xlink" x="0px" y="0px"
	 width="40px" height="93px" viewBox="-6.387 -10.067 34.995 69.991" enable-background="new -6.387 -10.067 34.995 69.991"
	 xml:space="preserve">
<g>
	<path id="cervical" fill="none" d="M1.497,45.082H21.26c-0.133-1.845-0.301-3.681-0.472-5.479c-0.164-1.735-0.328-3.471-0.456-5.208
		c-0.037-0.492-0.083-0.981-0.139-1.474c-0.029-0.273-0.271-0.473-0.553-0.44c-0.078,0.009-0.146,0.038-0.209,0.078
		c-0.057-0.124-0.158-0.228-0.298-0.272c-1.099-0.361-2.185-0.838-3.233-1.301c-0.769-0.338-1.532-0.674-2.31-0.971
		c-0.863-0.33-2.881-1.102-4.479,0.904c-0.904,1.136-1.909,2.248-3.354,2.304c-0.022,0.001-0.04,0.012-0.061,0.015
		c-0.043-0.007-0.085-0.017-0.13-0.012c-0.273,0.029-0.473,0.277-0.442,0.552c0.063,0.57-0.033,1.125-0.283,1.647
		C3.233,38.796,2.131,41.983,1.497,45.082z"/>
</g>
<g id="root">
	<g>
		<path fill="none" stroke="#000000" stroke-linecap="round" stroke-linejoin="round" stroke-miterlimit="10" d="M9.38,1.322
			c-1.043,6.988-0.833,14.15-3.526,20.91c-1.393,3.493-1.188,7.31-0.313,11.01c0.037,0.155,0.063,0.311,0.082,0.465l0.155,0.017
			c1.739-0.065,2.9-1.457,3.727-2.492c1.299-1.63,2.871-1.146,3.909-0.749c1.855,0.71,3.65,1.65,5.564,2.28l0.717,0.211
			c-0.33-2.974-0.957-5.883-1.323-8.834c-0.261-2.084-0.196-4.182-0.545-6.264c-0.794-4.749-3.058-9.036-4.061-13.687
			c-0.343-1.59-1.182-2.61-2.265-3.543c-0.276-0.239-1.195-0.282-1.163,0.678"/>
	</g>
</g>
<g id="crown_1_">
	<g>
		<path fill="none" stroke="#000000" stroke-linecap="round" stroke-linejoin="round" stroke-miterlimit="10" d="M18.979,58.683
			c-0.705,0.633-1.692-0.151-2.398,0.479"/>
		<path fill="none" stroke="#000000" stroke-linecap="round" stroke-linejoin="round" stroke-miterlimit="10" d="M16.1,59.401
			c-2.978,0.164-5.887-0.623-8.882-0.543c-2.556,0.066-4.628-1.271-5.459-3.797c-0.347-1.057-0.091-2.315-0.779-3.34L0.5,51.001
			c0.336-0.793,0.888-1.479,0.972-2.396c0.42-4.569,1.856-8.848,3.824-12.963c0.297-0.621,0.403-1.27,0.327-1.936l0.155,0.017
			c1.739-0.065,2.9-1.457,3.727-2.492c1.299-1.63,2.871-1.146,3.909-0.749c1.855,0.71,3.65,1.65,5.564,2.279l0.717,0.212
			c0.055,0.485,0.102,0.972,0.138,1.46c0.349,4.718,0.961,9.419,1.124,14.167c0.066,1.99,0.552,3.979,0.734,5.996
			c0.186,2.008-0.48,3.146-2.231,3.846"/>
	</g>
</g>
</svg>
