<?xml version="1.0" encoding="utf-8"?>
<!-- Generator: Adobe Illustrator 16.0.0, SVG Export Plug-In . SVG Version: 6.00 Build 0)  -->
<!DOCTYPE svg PUBLIC "-//W3C//DTD SVG 1.1//EN" "http://www.w3.org/Graphics/SVG/1.1/DTD/svg11.dtd">
<svg version="1.1" id="Layer_1" xmlns="http://www.w3.org/2000/svg" xmlns:xlink="http://www.w3.org/1999/xlink" x="0px" y="0px"
	 width="40px" height="93px" viewBox="-7.55 -4.358 34.996 69.991" enable-background="new -7.55 -4.358 34.996 69.991"
	 xml:space="preserve">
<g>
	<g>
		<path id="cervical" fill="none" d="M18.852,51.283c-0.424-0.634-0.506-1.384-0.584-2.179c-0.047-0.472-0.096-0.957-0.219-1.438l-0.248-0.965
			c-0.606-2.35-1.233-4.778-1.479-7.204c-0.021-0.222-0.196-0.388-0.396-0.433c-0.029-0.026-0.059-0.059-0.097-0.075
			c-3.879-1.931-7.874-2.123-10.688-0.519c-0.008,0.004-0.013,0.012-0.02,0.016c-0.179,0.07-0.339,0.238-0.346,0.449
			c-0.032,0.978-0.088,2.264-0.25,3.549c-0.372,2.959-1.117,5.861-2.264,8.796L18.852,51.283L18.852,51.283z"/>
	</g>
</g>
<g id="root">
	<g>
		<path fill="none" stroke="#000000" stroke-linecap="round" stroke-linejoin="round" stroke-miterlimit="10" d="M5.274,38.97
			c0.096-2.908,0.037-5.819,0.688-8.697c1.516-6.708,1.187-13.568,1.265-20.39c0.032-2.911,0.559-5.765,1.905-8.396
			c0.563-1.099,2.081-1.309,3.112-0.484c2.318,1.854,3.416,6.712,2.698,9.853c-0.825,3.61-1.934,7.376-1.361,11.005
			c0.645,4.083,0.09,8.403,2.054,12.247c0.226,0.439,0.237,0.828,0.193,1.213c-0.163,1.421-0.144,2.815-0.007,4.196l-0.215-0.076
			c-2.943-1.465-7.017-2.357-10.219-0.531L5.274,38.97z"/>
	</g>
</g>
<g id="crown_1_">
	<g>
		<path fill="none" stroke="#000000" stroke-linecap="round" stroke-linejoin="round" stroke-miterlimit="10" d="M18.484,51.882
			c-0.262,0.479-0.313,0.982,0.004,1.438c2.025,2.91,0.261,5.14-1.489,7.164c-1.317,1.526-2.609,3.248-4.532,4.078
			c-1.292,0.558-2.651,1.006-4.095-0.158c-1.701-1.372-3.668-2.41-5.482-3.647c-2.781-1.896-2.935-3.224-1.483-6.251
			C3.214,50.729,4.48,46.86,5.021,42.55c0.148-1.189,0.214-2.386,0.253-3.58l0.113-0.063c3.202-1.826,7.274-0.934,10.219,0.529
			l0.215,0.076c0.279,2.805,1.045,5.541,1.744,8.277c0.327,1.279,0.088,2.697,0.919,3.852"/>
	</g>
</g>
</svg>
