<?xml version="1.0" encoding="utf-8"?>
<!-- Generator: Adobe Illustrator 16.0.0, SVG Export Plug-In . SVG Version: 6.00 Build 0)  -->
<!DOCTYPE svg PUBLIC "-//W3C//DTD SVG 1.1//EN" "http://www.w3.org/Graphics/SVG/1.1/DTD/svg11.dtd">
<svg version="1.1" id="Layer_1" xmlns="http://www.w3.org/2000/svg" xmlns:xlink="http://www.w3.org/1999/xlink" x="0px" y="0px"
	 width="40px" height="93px" viewBox="0 0 34.996 70.75" enable-background="new 0 0 34.996 70.75" xml:space="preserve">
<g>
	<path id="cervical" fill="none" d="M2.318,11.196c0.717,1.813,1.412,3.67,1.891,5.565c0.065,0.26,0.122,0.521,0.168,0.784
		c0.035,0.194,0.18,0.349,0.371,0.397l0.541,0.135c1.033,0.289,2.072,0.638,3.077,0.975c1.022,0.344,2.082,0.699,3.148,0.997
		c2.423,0.676,4.587,1.132,6.776,1.132c0.771,0,1.545-0.057,2.336-0.18c0.723-0.113,1.424-0.349,2.104-0.578
		c0.914-0.308,1.781-0.595,2.578-0.551c0.078,0.003,0.146-0.007,0.214-0.034l0.246-0.097c0.12-0.047,0.218-0.14,0.271-0.257
		c0.768-1.675,1.612-3.253,2.506-4.925c0.273-0.512,0.549-1.025,0.822-1.544c0.338-0.641,0.629-1.24,0.898-1.82L2.318,11.196
		L2.318,11.196z"/>
</g>
<g id="crown">
	<g>
		<path fill="none" stroke="#000000" stroke-linecap="round" stroke-linejoin="round" stroke-miterlimit="10" d="M28.464,1.997
			c-2.638-1.172-5.524-1.982-8.086-0.585c-1.447,0.789-2.907,1.701-4.394,2.505"/>
		<path fill="none" stroke="#000000" stroke-linecap="round" stroke-linejoin="round" stroke-miterlimit="10" d="M29.904,6.556
			c-0.063-1.313-1.024-2.287-1.271-3.587c-0.281-1.493,0.686-2.098,1.529-2.341c1.122-0.308,3.747,2.692-1.24,12.154
			c-1.149,2.182-2.326,4.279-3.34,6.494l-0.246,0.097c-1.533-0.092-3.138,0.877-4.789,1.134c-3.076,0.479-5.959-0.119-8.898-0.939
			c-2.104-0.587-4.129-1.386-6.227-1.972l-0.554-0.139c-0.049-0.274-0.107-0.547-0.176-0.818C3.771,12.993,2.118,9.606,0.869,6.075
			c-2.03-7.128,14.282-7.815,15.116,0.241c0.107,1.047,0.317,2.081,0.479,3.12"/>
		<path fill="none" stroke="#000000" stroke-linecap="round" stroke-linejoin="round" stroke-miterlimit="10" d="M18.864,12.796
			c0.119-0.6-0.595-0.365-0.721-0.72c-1.019,1.063-2.633,1.527-3.12,3.12"/>
	</g>
</g>
<g id="root">
	<path fill="none" stroke="#000000" stroke-linecap="round" stroke-linejoin="round" stroke-miterlimit="10" d="M25.339,19.374
		c-1.533-0.092-3.138,0.877-4.789,1.134c-3.076,0.479-5.959-0.119-8.898-0.939c-2.104-0.587-4.129-1.386-6.227-1.972l-0.557-0.153
		c0.324,1.803,0.242,3.659,0.009,5.425c-0.48,3.631-0.805,7.462-2.269,10.728c-1.213,2.704-1.669,5.273-1.454,7.995
		c0.417,5.277,2.349,9.715,7.617,12.035c1.336,0.588,2.5,1.568,4.043,1.064c1.549-3.685,0.251-6.938-1.66-9.957
		c-2.529-3.998-2.502-8.945,0.256-12.75c0.947-1.306,1.2-2.99,2.166-4.315c0.521-0.715,0.661-1.714,1.929-1.706
		c1.294,0.008,1.152,1.231,1.354,1.746c1.323,3.359,3.75,5.803,6.34,8.11c3.87,2.667,6.082,14.89,6.721,16.33
		c0.496,1.115,1.312,1.541,2.635,1.25c1.189-0.26,1.654-0.865,1.666-1.963c0.02-1.603,0.19-3.228-0.028-4.797
		c-0.714-5.089-3.56-9.441-5.47-14.073c-1.359-3.3-2.889-6.29-2.682-9.933c0.053-0.948,0.287-1.954-0.216-2.879L25.339,19.374z"/>
</g>
</svg>
