<?xml version="1.0" encoding="utf-8"?>
<!-- Generator: Adobe Illustrator 16.0.0, SVG Export Plug-In . SVG Version: 6.00 Build 0)  -->
<!DOCTYPE svg PUBLIC "-//W3C//DTD SVG 1.1//EN" "http://www.w3.org/Graphics/SVG/1.1/DTD/svg11.dtd">
<svg version="1.1" id="Layer_1" xmlns="http://www.w3.org/2000/svg" xmlns:xlink="http://www.w3.org/1999/xlink" x="0px" y="0px"
	 width="40px" height="93px" viewBox="-2.818 -17.189 34.995 69.991" enable-background="new -2.818 -17.189 34.995 69.991"
	 xml:space="preserve">
<g>
	<path id="cervical" fill="none" d="M24.698,43.263c-0.194-2.451-0.896-5.729-3.136-7.604c-0.02-0.016-0.041-0.021-0.062-0.032
		c-0.008-0.015-0.011-0.03-0.021-0.044c-0.168-0.223-0.48-0.264-0.699-0.1c-0.1,0.077-0.479,0.116-1.902-0.446
		c-0.049-0.021-0.102-0.031-0.152-0.034c-0.164-0.01-4.037-0.24-5.791-0.24c-0.078,0-0.153,0.019-0.224,0.053l-0.538,0.274
		c-1.134,0.776-2.279,0.729-3.662,0.673c-0.208,0.008-0.382,0.133-0.455,0.318c-0.055,0.046-0.103,0.102-0.135,0.171
		C7.55,37.058,7.026,37.76,6.47,38.505c-0.635,0.85-1.292,1.729-1.722,2.792c-0.265,0.65-0.451,1.308-0.581,1.966H24.698z"/>
</g>
<g id="root">
	<g>
		<path fill="none" stroke="#000000" stroke-linecap="round" stroke-linejoin="round" stroke-miterlimit="10" d="M8.616,35.981
			c-0.532-1.842,0.412-3.467,1.02-5.018c1.793-4.582,3.094-9.324,4.618-13.983c0.654-2,1.15-3.827,2.746-5.258
			c0.585-0.524,1.729-2.13,3.137-2.382c1.264-0.226,1.072,3.876,0.69,6.273c-0.685,4.281-1.989,8.782-0.004,13.182
			c0.432,0.958,0.229,2.093-0.207,3.104l0.239,0.48c0.16,0.4,0.412,0.788,0.465,1.202c0.164,1.291,0.141,2.019-0.235,2.301
			C20.704,36.17,19.964,36,18.695,35.5c0,0-4-0.239-5.76-0.239L12.456,35.5c-1.288,0.882-2.557,0.817-3.965,0.761L8.616,35.981z"/>
		<path fill="none" stroke="#000000" stroke-linecap="round" stroke-linejoin="round" stroke-miterlimit="10" d="M20.92,15.012
			c0,0,1.252-1.613,2.576-1.83c1.322-0.217,1.543,1.729,1.411,2.877c-0.476,4.137-1.64,8.107-3.052,12.018
			c-0.178,0.488-0.514,0.473-0.76,0.706"/>
	</g>
</g>
<g id="crown_1_">
	<g>
		<path fill="none" stroke="#000000" stroke-linecap="round" stroke-linejoin="round" stroke-miterlimit="10" d="M8.492,36.263
			c1.408,0.057,2.677,0.121,3.965-0.761l0.479-0.239c1.76,0,5.759,0.239,5.759,0.239c1.27,0.5,2.01,0.67,2.391,0.383l0.157,0.158
			c3.655,3.063,2.969,10.345,2.969,10.345c0.445,1.739-1.063,2.688-2.635,3.274l-0.479,0.239c-1.267,1.283-2.875,0.506-4.32,0.721
			l-2.159-1.439c-1.285,1.678-3.229,2.293-5.04,3.119h-1.44c-1.838-0.437-3.313-1.574-3.521-3.369
			c-0.284-2.463-0.401-4.984,0.596-7.447c0.769-1.896,2.33-3.215,3.165-5.021L8.492,36.263z"/>
	</g>
</g>
</svg>
