<?xml version="1.0" encoding="utf-8"?>
<!-- Generator: Adobe Illustrator 16.0.0, SVG Export Plug-In . SVG Version: 6.00 Build 0)  -->
<!DOCTYPE svg PUBLIC "-//W3C//DTD SVG 1.1//EN" "http://www.w3.org/Graphics/SVG/1.1/DTD/svg11.dtd">
<svg version="1.1" id="Layer_1" xmlns="http://www.w3.org/2000/svg" xmlns:xlink="http://www.w3.org/1999/xlink" x="0px" y="0px"
	 width="40px" height="93px" viewBox="-2.374 -22.246 34.995 69.991" enable-background="new -2.374 -22.246 34.995 69.991"
	 xml:space="preserve">
<g>
	<path id="cervical" fill="none" d="M28.335,38.397c-0.155-0.863-0.433-1.74-0.84-2.609c-1.798-3.839-5.405-6.382-9.022-6.382
		c-0.061,0-0.121,0.001-0.184,0.002c-1.855,0.043-3.749,0.033-5.577,0.021c-0.857-0.005-1.713-0.011-2.57-0.011
		c-0.083,0-0.173-0.012-0.263-0.021c-0.284-0.029-0.638-0.071-0.944,0.112c-1.054,0.632-2.221,1.037-3.569,1.238
		c-0.269,0.039-0.454,0.288-0.42,0.557c-0.047,0.063-0.085,0.134-0.098,0.216c-0.087,0.545-0.462,0.918-0.897,1.351
		c-0.252,0.251-0.513,0.51-0.73,0.821c-0.982,1.402-1.418,2.983-1.839,4.517c-0.018,0.063-0.036,0.127-0.054,0.19L28.335,38.397
		L28.335,38.397z"/>
</g>
<g id="root">
	<g>
		<path fill="none" stroke="#000000" stroke-linecap="round" stroke-linejoin="round" stroke-miterlimit="10" d="M14.942,22.718
			c-1.447-3.681-0.909-7.181,0.96-10.561l2.64-3.359c2.162-1.379,2.937-3.808,4.25-5.807c0.325-0.494,0.507-1.76-0.423-2.333
			c-0.696-0.429-1.264,0.128-1.943,0.346c-3.477,1.11-6.35,2.916-8.085,6.134c-1.138,2.109-1.764,4.509-2.777,6.653
			c-1.759,3.722-2.232,7.757-3.582,11.538c-0.715,1.999-0.696,3.83-0.399,5.789l0.008,0.1c1.228-0.197,2.433-0.578,3.604-1.281
			c0.235-0.142,0.629-0.02,0.949-0.02c2.72,0,5.44,0.055,8.159-0.01c1.596-0.038,3.146,0.455,4.521,1.304l0.039-0.333
			c0.188-1.756-0.254-3.539,0.24-5.279c0,0-0.25,0.236,0.688-1.701s0.813-2.188,1.063-2.938c0,0,1.854-1.238,1.828-1.357
			c-0.684-3.039,1.93-4.998,2.524-7.662c0.563-2.529,0.701-4.969,0.349-7.458c-0.219-1.534-1.236-2.479-3.021-2.662
			c-1.259,0.903-1.827,2.348-1.705,3.854c0.296,3.634-1.884,6.201-3.724,8.829c-0.801,1.143-1.808,2.197-2.563,3.414
			c0,0-2.887,4.114-3.84,5.761"/>
	</g>
</g>
<g id="crown">
	<g>
		<path fill="none" stroke="#000000" stroke-linecap="round" stroke-linejoin="round" stroke-miterlimit="10" d="M15.632,43.491
			c-3.115,2.15-7.273,3.51-11.011,3.227l-0.479-0.239c-0.317-0.377-0.808-0.485-1.185-0.742c-1.492-1.019-3.163-2.114-2.146-4.282
			c1.137-2.422,1.232-5.211,2.817-7.478c0.561-0.801,1.541-1.306,1.712-2.377l0.1-0.358c0.05-0.007,0.1-0.015,0.149-0.022
			c1.228-0.197,2.433-0.578,3.604-1.281c0.235-0.142,0.629-0.02,0.949-0.02c2.72,0,5.44,0.055,8.159-0.01
			c1.596-0.038,3.146,0.455,4.521,1.304c4.49,2.771,7.113,9.337,3.398,13.587l-0.479,0.24c-0.601,0.813-1.804,0.623-2.4,1.438
			l-0.479,0.239c-1.104,0.324-2.189,0.863-3.359,0.24l-0.479-0.24c-4.099-1.993-3.549-5.577-3.12-9.12"/>
	</g>
</g>
</svg>
