<?xml version="1.0" encoding="utf-8"?>
<!-- Generator: Adobe Illustrator 16.0.0, SVG Export Plug-In . SVG Version: 6.00 Build 0)  -->
<!DOCTYPE svg PUBLIC "-//W3C//DTD SVG 1.1//EN" "http://www.w3.org/Graphics/SVG/1.1/DTD/svg11.dtd">
<svg version="1.1" id="Layer_1" xmlns="http://www.w3.org/2000/svg" xmlns:xlink="http://www.w3.org/1999/xlink" x="0px" y="0px"
	 width="40px" height="93px" viewBox="-9.2 -12.848 34.997 69.991" enable-background="new -9.2 -12.848 34.997 69.991"
	 xml:space="preserve">
<g>
	<path id="cervical" fill="none" d="M15.629,45.193c-0.105-0.521-0.205-1.043-0.293-1.56c-0.121-0.702-0.254-1.402-0.404-2.092
		c-0.241-1.106-0.654-2.191-1.047-3.242c-0.372-0.995-0.76-2.024-0.992-3.045c-0.005-0.021-0.02-0.036-0.025-0.055
		c-0.005-0.046-0.009-0.09-0.025-0.134c-0.03-0.074-0.762-1.842-1.875-2.561c-0.973-0.627-2.31-1.485-4.592-1.186
		c-1.927,0.257-2.633,2.146-2.759,3.209c-0.044,0.058-0.079,0.121-0.095,0.196c-0.411,1.938-1.15,3.848-1.864,5.693
		c-0.377,0.974-0.766,1.979-1.104,2.979c-0.189,0.563-0.331,1.166-0.424,1.791h15.5L15.629,45.193L15.629,45.193z"/>
</g>
<g id="root">
	<g>
		<path fill="none" stroke="#000000" stroke-linecap="round" stroke-linejoin="round" stroke-miterlimit="10" d="M4.049,34.709
			c0,0,0.266-2.609,2.391-2.892c2.125-0.281,3.313,0.5,4.281,1.125c0.968,0.625,1.656,2.313,1.656,2.313l0.024,0.109
			c-0.327-1.438-0.384-2.921,0.202-4.505c0.085-0.229-0.38-0.612-0.436-0.949c-0.676-4.154-2.198-8.266-1.812-12.467
			c0.261-2.803,0.287-5.617,0.522-8.417c0.242-2.856-0.146-5.635-2.742-7.75c-1.143-0.935-2.2-0.894-3.154-0.566
			C3.836,1.104,4.023,2.36,4.497,3.263c1.813,3.463,1.187,7.17,1.163,10.811c-0.014,2.079,0.265,4.176-0.224,6.239
			c0,0-1.6,6.598-1.19,9.6c0.232,1.705,0.101,3.329-0.232,4.903L4.049,34.709z"/>
	</g>
</g>
<g id="crown_1_">
	<g>
		<path fill="none" stroke="#000000" stroke-linecap="round" stroke-linejoin="round" stroke-miterlimit="10" d="M4.049,34.709
			c0,0,0.266-2.609,2.391-2.892c2.125-0.281,3.313,0.5,4.281,1.125c0.968,0.625,1.656,2.313,1.656,2.313l0.024,0.109
			c0.484,2.134,1.617,4.167,2.078,6.282c0.487,2.237,0.615,4.593,1.615,6.745v1.439c-1,1.123-1.011,2.451-1.626,3.651
			c-1.217,2.376-2.774,3.509-5.409,3.067l-1.932-0.961c-1.351-0.231-2.305-1.201-3.35-1.941c-3.158-2.232-3.933-6.582-2.75-10.088
			c0.979-2.896,2.349-5.734,2.986-8.746"/>
	</g>
</g>
</svg>
