<?xml version="1.0" encoding="utf-8"?>
<!-- Generator: Adobe Illustrator 16.0.0, SVG Export Plug-In . SVG Version: 6.00 Build 0)  -->
<!DOCTYPE svg PUBLIC "-//W3C//DTD SVG 1.1//EN" "http://www.w3.org/Graphics/SVG/1.1/DTD/svg11.dtd">
<svg version="1.1" id="Layer_1" xmlns="http://www.w3.org/2000/svg" xmlns:xlink="http://www.w3.org/1999/xlink" x="0px" y="0px"
	 width="40px" height="93px" viewBox="0 0 34.996 70.75" enable-background="new 0 0 34.996 70.75" xml:space="preserve">
<g>
	<path id="cervical" fill="none" d="M8.87,14.7c0.273,2.977,0.83,5.556,1.716,7.958c0.268,0.723,0.59,1.441,0.903,2.136
		c0.727,1.61,1.412,3.131,1.5,4.792c0.012,0.199,0.14,0.373,0.326,0.442l0.229,0.082c0.723,0.353,1.48,0.523,2.318,0.523
		c1.041,0,2.058-0.266,3.04-0.523c0.247-0.064,0.494-0.129,0.743-0.19c0.672-0.165,1.191-0.568,1.65-0.923
		c0.478-0.369,0.89-0.688,1.443-0.766l0.438-0.088c0.229-0.046,0.396-0.243,0.4-0.475l0.01-0.397c0.046-3.03,0.871-6.132,1.67-9.132
		c0.3-1.126,0.603-2.285,0.869-3.438L8.87,14.7L8.87,14.7z"/>
</g>
<g id="root">
	<g>
		<path fill="none" stroke="#000000" stroke-linecap="round" stroke-linejoin="round" stroke-miterlimit="10" d="M13.762,29.661
			c1.963,0.957,3.851,0.241,5.765-0.227c1.204-0.295,1.868-1.521,3.115-1.693l0.438-0.088c-0.103,3.774-0.822,7.531-0.362,11.389
			c0.258,2.164,0.104,4.612-0.406,6.972c-0.378,1.741,0.154,3.817,0.382,5.723c0.476,4,1.147,7.986,1.343,12.01
			c0.101,2.061,0.016,4.172-1.83,5.805c-0.973,0.861-1.949,0.732-2.917,0.629c-1.245-0.135-0.955-1.266-0.96-2.115
			c-0.008-1.514-0.732-2.854-1.005-4.313c-1.273-6.84-1.97-13.765-2.716-20.66c-0.455-4.207-1.4-8.402-1.122-12.709
			c0.019-0.276,0.02-0.549,0.004-0.818L13.762,29.661z"/>
	</g>
</g>
<g id="crown">
	<g>
		<path fill="none" stroke="#000000" stroke-linecap="round" stroke-linejoin="round" stroke-miterlimit="10" d="M13.488,29.56
			c-0.134-2.52-1.577-4.75-2.435-7.074c-1.272-3.456-1.738-6.967-1.857-10.585c-0.028-0.897,0.787-4.188,1.055-5.746
			c0.313-1.829,1.691-3.32,2.828-4.787c1.014-1.307,5.938-1.14,7.09,0.506c1.927,2.753,4.448,5.133,5.438,8.563
			c0.372,1.293,0.432,2.395,0.161,3.624c-0.97,4.398-2.611,8.789-2.679,13.202c-0.002,0.13-0.005,0.26-0.01,0.389l-0.438,0.088
			c-1.247,0.173-1.911,1.398-3.115,1.693c-1.914,0.468-3.802,1.184-5.765,0.227L13.488,29.56z"/>
	</g>
</g>
</svg>
