<?xml version="1.0" encoding="utf-8"?>
<!-- Generator: Adobe Illustrator 16.0.0, SVG Export Plug-In . SVG Version: 6.00 Build 0)  -->
<!DOCTYPE svg PUBLIC "-//W3C//DTD SVG 1.1//EN" "http://www.w3.org/Graphics/SVG/1.1/DTD/svg11.dtd">
<svg version="1.1" id="Layer_1" xmlns="http://www.w3.org/2000/svg" xmlns:xlink="http://www.w3.org/1999/xlink" x="0px" y="0px"
	 width="40px" height="93px" viewBox="-8.271 -16.025 34.995 69.991" enable-background="new -8.271 -16.025 34.995 69.991"
	 xml:space="preserve">
<g>
	<path id="cervical" fill="none" d="M18.402,43.553c0.004-2.364-0.182-4.741-2.47-6.516l-0.406-1c-0.14-0.592-0.207-1.248-0.211-2.07
		c0-0.018-0.008-0.03-0.01-0.047c0.001-0.021,0.01-0.037,0.009-0.059c-0.013-0.275-0.211-0.517-0.522-0.475
		c-1.504,0.068-2.541-0.211-3.908-0.762c-2.322-0.937-4.646-0.188-6.824,0.66c-0.213,0.082-0.328,0.297-0.308,0.514
		c-0.113,0.064-0.201,0.173-0.235,0.309c-0.774,3.027-1.615,6.092-2.57,9.363c-0.008,0.025-0.018,0.055-0.026,0.08h17.483v0.003
		H18.402z"/>
</g>
<g id="root">
	<g>
		<path fill="none" stroke="#000000" stroke-linecap="round" stroke-linejoin="round" stroke-miterlimit="10" d="M4.48,33.513
			C4.143,32.905,4.103,32.2,4.264,31.6c1.351-5.038,0.592-10.279,1.733-15.403c0.921-4.136,2.102-8.165,3.32-12.192
			C10.067,1.53,12,0.361,14.318,0.514c-0.026,1.064,1.124,1.769,0.748,3.008c-1.047,3.458-1.517,7.056-2.346,10.571
			c-0.429,1.813-0.474,3.769,0.088,5.761c0.903,3.206,1.454,6.524,1.954,9.826c0.209,1.382,0.05,2.795,0.051,4.203l-0.12,0.01
			c-1.521,0.057-2.58-0.23-3.997-0.803c-2.07-0.834-4.159-0.215-6.167,0.553L4.48,33.513z"/>
	</g>
</g>
<g id="crown_1_">
	<g>
		<path fill="none" stroke="#000000" stroke-linecap="round" stroke-linejoin="round" stroke-miterlimit="10" d="M14.814,33.883
			c0.001,0.76,0.048,1.519,0.226,2.271l0.48,1.201c2.755,2.047,2.352,5.073,2.375,7.92c0.018,2.049,0.48,4.141-1.609,5.815
			c-2.197,1.763-4.52,2.5-7.247,2.359c-0.502-0.025-1.099,0.045-1.417-0.277c-1.427-1.44-3.509-1.678-5.062-2.858"/>
		<path fill="none" stroke="#000000" stroke-linecap="round" stroke-linejoin="round" stroke-miterlimit="10" d="M14.694,33.892
			c-1.521,0.058-2.58-0.229-3.997-0.802c-2.07-0.834-4.159-0.217-6.167,0.552c-0.097,0.037-0.193,0.073-0.29,0.11L4,34.232
			c-0.804,3.142-1.666,6.267-2.574,9.378c-0.617,2.119-2.027,4.574,0.654,6.463"/>
	</g>
</g>
</svg>
