<?xml version="1.0" encoding="utf-8"?>
<!-- Generator: Adobe Illustrator 16.0.0, SVG Export Plug-In . SVG Version: 6.00 Build 0)  -->
<!DOCTYPE svg PUBLIC "-//W3C//DTD SVG 1.1//EN" "http://www.w3.org/Graphics/SVG/1.1/DTD/svg11.dtd">
<svg version="1.1" id="Layer_1" xmlns="http://www.w3.org/2000/svg" xmlns:xlink="http://www.w3.org/1999/xlink" x="0px" y="0px"
	 width="40px" height="93px" viewBox="0 0 34.996 70.75" enable-background="new 0 0 34.996 70.75" xml:space="preserve">
<g>
	<path id="cervical" fill="none" d="M11.399,10.133c0.055,0.417,0.07,0.835,0.082,1.218c0.096,2.987,0.684,5.938,1.799,9.02
		c0.111,0.307,0.173,0.625,0.189,0.974c0.009,0.195,0.131,0.367,0.313,0.44l0.182,0.071c0.998,0.524,2.054,0.778,3.23,0.779l0,0
		c0.935,0,1.932-0.159,3.129-0.498l0.375-0.099c0.153-0.041,0.28-0.152,0.339-0.301c0.015-0.036,0.029-0.071,0.05-0.107
		c1.396-2.643,2.346-5.736,2.969-9.654c0.219-0.649,0.395-1.261,0.541-1.843H11.399z"/>
</g>
<g id="root">
	<g>
		<path fill="none" stroke="#000000" stroke-linecap="round" stroke-linejoin="round" stroke-miterlimit="10" d="M13.969,21.321
			c0.047,0.948-0.217,1.858-0.356,2.716c-0.297,1.824-0.052,3.519,0.015,5.3c0.23,6.151,0.485,12.354-0.102,18.458
			c-0.243,2.516-0.018,5.214-0.963,7.717c-0.277,0.734-0.313,1.822,0.913,2.145c1.067,0.277,1.568-0.518,1.896-1.215
			c2.547-5.402,5.012-10.813,4.854-17.026c-0.139-5.518-0.104-11.043,0.223-16.559c0.025-0.431-0.061-0.839,0.123-1.3l-0.375,0.099
			c-2.026,0.573-4.038,0.79-6-0.24L13.969,21.321z"/>
	</g>
</g>
<g id="crown">
	<g>
		<path fill="none" stroke="#000000" stroke-linecap="round" stroke-linejoin="round" stroke-miterlimit="10" d="M14.196,21.413
			c1.962,1.03,3.974,0.813,6,0.24l0.375-0.099c0.021-0.052,0.045-0.104,0.073-0.158c1.582-2.998,2.398-6.246,2.937-9.579
			c3.037-9.06-1.394-11.521-2.669-11.305c-0.699,0.118-1.437,0.019-2.156,0.021c-5.352,0.021-6.726,0.903-8.385,5.766l0.465,1.435
			c1.037,0.987,1.105,2.383,1.145,3.602c0.099,3.074,0.738,6.015,1.77,8.866c0.137,0.378,0.201,0.752,0.219,1.12L14.196,21.413z"/>
	</g>
</g>
</svg>
