<?xml version="1.0" encoding="utf-8"?>
<!-- Generator: Adobe Illustrator 16.0.0, SVG Export Plug-In . SVG Version: 6.00 Build 0)  -->
<!DOCTYPE svg PUBLIC "-//W3C//DTD SVG 1.1//EN" "http://www.w3.org/Graphics/SVG/1.1/DTD/svg11.dtd">
<svg version="1.1" id="Layer_1" xmlns="http://www.w3.org/2000/svg" xmlns:xlink="http://www.w3.org/1999/xlink" x="0px" y="0px"
	 width="40px" height="93px" viewBox="0 0 34.996 70.75" enable-background="new 0 0 34.996 70.75" xml:space="preserve">
<g >
	<path id="cervical" fill="none" d="M7.439,11.348c0.107,1.204,0.334,2.396,0.56,3.573l0.159,0.839c0.403,2.18,1.637,3.673,2.529,4.606
		c0.634,0.662,1.333,1.277,2.01,1.872c0.462,0.407,0.924,0.813,1.366,1.236c0.549,0.523,1.178,0.81,1.786,1.086
		c0.226,0.102,0.447,0.204,0.664,0.317c0.888,0.467,1.961,0.371,2.896,0.177c0.666-0.139,1.277-0.239,1.788-0.039l0.688,0.261
		c0.058,0.022,0.117,0.032,0.177,0.032c0.19,0,0.373-0.11,0.456-0.294l0.323-0.722c0.346-0.781,0.827-1.502,1.339-2.265
		c0.882-1.318,1.794-2.682,1.962-4.396c0.048-0.497,0.267-1.217,0.519-2.05c0.387-1.27,0.846-2.795,0.896-4.235H7.439V11.348z"/>
</g>
<g id="root">
	<g>
		<path fill="none" stroke="#000000" stroke-linecap="round" stroke-linejoin="round" stroke-miterlimit="10" d="M21.372,24.549
			c-1.494-0.587-2.953,0.769-4.627-0.113c-0.774-0.409-1.651-0.67-2.337-1.323c-1.1-1.048-2.316-2.002-3.36-3.092l-0.236,0.687
			c-0.237,0.621-0.507,1.196-0.503,1.92c0.04,6.32,0.021,12.641,0.028,18.96c0.001,0.592,0.329,1.217,0.381,1.689
			c0.288,2.676,1.891,4.902,2.18,7.652c0.248,2.368,0.966,4.969,2.703,6.985c1.14,1.321,2.522,1.324,2.812-0.265
			c0.313-1.721,1.18-3.34,1.227-5.026c0.174-6.34,0.496-12.66,1.249-18.959c0.047-0.395,0.116-0.84-0.013-1.192
			c-1.02-2.809,0.104-5.27,1.188-7.665L21.372,24.549z"/>
	</g>
</g>
<g id="crown">
	<g>
		<path fill="none" stroke="#000000" stroke-linecap="round" stroke-linejoin="round" stroke-miterlimit="10" d="M21.372,24.549
			c-1.494-0.587-2.953,0.769-4.627-0.113c-0.774-0.409-1.651-0.67-2.337-1.323c-1.1-1.048-2.316-2.002-3.36-3.092
			c-1.136-1.188-2.063-2.538-2.398-4.352C8.022,12.289,7.175,8.958,8.856,5.57c1.146-2.309,3.646-3.071,5.17-4.945
			c0.306-0.373,1.841,0.185,2.783,0.414c4.257,1.033,7.194,3.748,9.365,7.428c2.192,2.381-0.337,7.115-0.532,9.117
			c-0.247,2.526-2.279,4.293-3.26,6.507c-0.105,0.239-0.215,0.479-0.322,0.719L21.372,24.549z"/>
	</g>
</g>
</svg>
