<?xml version="1.0" encoding="utf-8"?>
<!-- Generator: Adobe Illustrator 16.0.0, SVG Export Plug-In . SVG Version: 6.00 Build 0)  -->
<!DOCTYPE svg PUBLIC "-//W3C//DTD SVG 1.1//EN" "http://www.w3.org/Graphics/SVG/1.1/DTD/svg11.dtd">
<svg version="1.1" id="Layer_1" xmlns="http://www.w3.org/2000/svg" xmlns:xlink="http://www.w3.org/1999/xlink" x="0px" y="0px"
	 width="40px" height="93px" viewBox="0 0 34.996 70.75" enable-background="new 0 0 34.996 70.75" xml:space="preserve">
<g>
	<path id="cervical" fill="none" d="M5.063,10.306c0.274,1.125,0.668,2.32,1.218,3.603c0.063,0.138,0.142,0.272,0.219,0.405
		c0.099,0.163,0.188,0.316,0.208,0.437c0.241,1.461,0.818,2.685,1.716,3.636c1.669,1.773,4.196,2.389,6.645,2.868
		c1.479,0.289,2.979,0.433,4.467,0.433c1.979,0,3.942-0.254,5.815-0.762c0.83-0.224,1.5-0.684,2.147-1.127
		c0.688-0.47,1.335-0.914,2.114-1.038c0.083-0.013,0.156-0.046,0.22-0.093c0.043,0.019,0.089,0.032,0.138,0.039
		c0.269,0.036,0.524-0.155,0.563-0.429c0.211-1.566,0.852-3.036,1.898-4.371c0.774-0.989,1.213-2.262,1.504-3.601H5.063
		L5.063,10.306z"/>
</g>
<g id="root">
	<g>
		<path fill="none" stroke="#000000" stroke-linecap="round" stroke-linejoin="round" stroke-miterlimit="10" d="M19.934,55.467
			c-0.666-2.145-0.223-4.357,0.576-6.199c1.453-3.354,1.752-6.94,2.803-10.42c-0.176-0.158,0.98-4.891,0.261-7.393
			c-1.151-4.01-5.147-4.06-7.439-1.633c-2.921,3.092-4.553,6.938-5.854,10.984c-1.061,3.301-2.23,6.604-4.023,9.618
			c0,0-1.983,2.964-3.096,3.423C1.69,54.454,1.442,54.5,1.208,53.066C0.241,47.143,2.368,41.9,4.855,36.766
			c0.388-0.803,0.867-1.535,1.214-2.397c1.626-4.039,1.867-8.244,1.859-12.501c-0.002-1.162-0.082-2.327,0.604-3.359l0.251-0.463
			c1.606,1.707,4.098,2.273,6.376,2.72c3.237,0.633,6.72,0.583,10.058-0.32c1.604-0.435,2.647-1.91,4.313-2.177l0.502-0.056
			c-0.239,1.794,0.054,3.584,0.612,5.286c1.302,3.951,1.371,7.839,1.244,11.809c-0.082,2.583-0.168,5.341-1.254,7.636
			c-1.597,3.371-2.955,7.021-6.137,9.418c-0.429,0.322-2.963,3.797-4.328,3.348"/>
	</g>
</g>
<g id="crown">
	<g>
		<path fill="none" stroke="#000000" stroke-linecap="round" stroke-linejoin="round" stroke-miterlimit="10" d="M19.934,3.147
			c-0.178,1.663,0.693,3.145,0.787,4.796c0.104,1.828,0.066,3.372-1.746,4.324"/>
		<path fill="none" stroke="#000000" stroke-linecap="round" stroke-linejoin="round" stroke-miterlimit="10" d="M29.535,18.267
			c-1.666,0.267-2.709,1.742-4.313,2.177c-3.338,0.903-6.819,0.953-10.058,0.32c-2.279-0.446-4.77-1.013-6.376-2.72
			c-0.772-0.822-1.343-1.909-1.585-3.375c-0.056-0.338-0.316-0.637-0.464-0.964C2.157,3.015,8.74,1.119,10.162,0.775
			c1.422-0.344,2.095-0.268,2.095-0.268c1.357,0.004,2.592,0.471,3.879,0.814c1.794,0.479,3.389,2.438,5.469,1.323
			c3.504-1.875,6.771-0.86,10.1,0.482c1.584,0.64,2.475,1.987,2.301,3.368c-0.309,2.441-0.557,5.309-1.967,7.103
			c-1.182,1.504-1.791,3.06-2,4.613"/>
		<path fill="none" stroke="#000000" stroke-linecap="round" stroke-linejoin="round" stroke-miterlimit="10" d="M7.282,5.452
			c0,0,0.875-0.582,1.229-1.791c0.354-1.209,1.792-2.813,1.792-2.813"/>
	</g>
</g>
</svg>
