<?xml version="1.0" encoding="utf-8"?>
<!-- Generator: Adobe Illustrator 16.0.0, SVG Export Plug-In . SVG Version: 6.00 Build 0)  -->
<!DOCTYPE svg PUBLIC "-//W3C//DTD SVG 1.1//EN" "http://www.w3.org/Graphics/SVG/1.1/DTD/svg11.dtd">
<svg version="1.1" id="Layer_1" xmlns="http://www.w3.org/2000/svg" xmlns:xlink="http://www.w3.org/1999/xlink" x="0px" y="0px"
	 width="40px" height="93px" viewBox="0 0 34.996 69.992" enable-background="new 0 0 34.996 69.992" xml:space="preserve">
<g>
	<g>
		<path fill="#0099CC" d="M26.68,54.689v3.252C26.831,56.936,26.838,55.854,26.68,54.689z"/>
		<path id="cervical" fill="none" d="M9.51,52.166h16.342c0.002-0.008,0.008-0.02,0.008-0.023c0.08-2.822-0.645-5.537-1.344-8.164
			c-0.287-1.082-0.586-2.198-0.823-3.313c-0.041-0.188-0.188-0.34-0.38-0.383c-0.766-0.178-1.541-0.537-2.358-0.922
			c-2.082-0.973-4.442-2.07-7.1-0.158l-0.633,0.314c-0.133,0.063-0.229,0.188-0.263,0.332c-0.153,0.647-0.391,1.327-0.706,2.021
			c-0.144,0.313-0.306,0.627-0.469,0.938c-0.466,0.896-0.947,1.818-1.071,2.9c0,0-0.279,4.514-1.157,6.182
			C9.51,51.979,9.501,52.074,9.51,52.166z"/>
	</g>
</g>
<g id="root">
	<g>
		<path fill="none" stroke="#000000" stroke-linecap="round" stroke-linejoin="round" stroke-miterlimit="10" d="M14.078,39.646
			c3.492-2.506,6.282,0.473,9.124,1.121l-0.244-0.398c0.549-1.006,0.588-2.438,0.153-3.063c-1.942-2.772-0.904-6.028-1.751-8.966
			c-0.521-1.813-0.986-3.987-0.666-5.711c0.936-5.031-0.052-9.949-0.218-14.902c-0.053-1.617-0.896-3.271-1.644-4.78
			C18.199,1.66,17.195,0.546,15.545,0.5c-0.914,0.797-0.711,1.928-1.006,2.9c-0.703,2.314,0.247,4.61-0.146,6.979
			c-0.895,5.385-1.959,10.777-1.541,16.31c0.162,2.147,0.026,4.317,0.026,6.479c0,0.479-0.155,1.028,0.025,1.429
			c0.825,1.833,0.961,3.592,0.538,5.383L14.078,39.646z"/>
	</g>
</g>
<g id="crown_1_">
	<g>
		<path fill="none" stroke="#000000" stroke-linecap="round" stroke-linejoin="round" stroke-miterlimit="10" d="M15.998,66.287
			c-2.988-1.336-4.722-4.07-6.963-6.238c-0.695-0.674-0.584-1.551-0.761-2.393c-0.42-2.008,1.076-3.352,1.482-5.053l0.24-0.479
			c0.922-1.75,1.2-6.236,1.2-6.236c0.122-1.414,0.955-2.592,1.51-3.811c0.323-0.709,0.569-1.408,0.732-2.102l0.638-0.332
			c3.492-2.509,6.282,0.473,9.124,1.121c0.827,3.848,2.269,7.471,2.154,11.356l0.479,0.84c0.923,3.604,0.673,6.99-2.188,9.688
			c-0.938,0.886-1.383,2.104-2.369,2.91"/>
		<path fill="none" stroke="#000000" stroke-linecap="round" stroke-linejoin="round" stroke-miterlimit="10" d="M20.798,65.809
			c-1.266,1.28-2.875,0.504-4.319,0.719"/>
	</g>
</g>
</svg>
