<?xml version="1.0" encoding="utf-8"?>
<!-- Generator: Adobe Illustrator 16.0.0, SVG Export Plug-In . SVG Version: 6.00 Build 0)  -->
<!DOCTYPE svg PUBLIC "-//W3C//DTD SVG 1.1//EN" "http://www.w3.org/Graphics/SVG/1.1/DTD/svg11.dtd">
<svg version="1.1" id="Layer_1" xmlns="http://www.w3.org/2000/svg" xmlns:xlink="http://www.w3.org/1999/xlink" x="0px" y="0px"
	 width="40px" height="93px" viewBox="0 0 34.996 70.75" enable-background="new 0 0 34.996 70.75" xml:space="preserve">
<g>
	<path id="cervical" fill="none" d="M1.104,9.06c0.228,0.629,0.498,1.255,0.787,1.902c0.749,1.678,1.834,3.186,2.884,4.643
		c0.907,1.26,1.845,2.563,2.525,3.933c0.087,0.175,0.264,0.278,0.448,0.278c0.067,0,0.135-0.014,0.2-0.042l0.472-0.214
		c1.142-0.748,2.408-0.556,3.748-0.355c0.656,0.099,1.333,0.195,1.997,0.185c1.334-0.033,2.706,0.057,4.031,0.145
		c2.861,0.188,5.818,0.452,8.752-0.546l0.354,0.072c0.004,0,0.006,0,0.008,0c0.197,0,0.377-0.183,0.457-0.364
		c0.16-0.36,0.346-0.742,0.526-1.09c0.384-0.721,0.777-1.482,0.964-2.332l0.905-1.368c0.024-0.04,0.047-0.087,0.062-0.133
		c0.549-1.762,0.438-3.31-0.027-4.713L1.104,9.06L1.104,9.06z"/>
</g>
<g id="root">
	<g>
		<path fill="none" stroke="#000000" stroke-linecap="round" stroke-linejoin="round" stroke-miterlimit="10" d="M15.827,22.5
			c2.658,2.645,3.982,6.198,6.227,9.131c1.813,2.373,3.426,4.875,4.612,7.652c0.486,1.135,1.613,1.869,2.589,2.672
			c2.313,1.91,3.29,1.73,4.571-0.977"/>
		<path fill="none" stroke="#000000" stroke-linecap="round" stroke-linejoin="round" stroke-miterlimit="10" d="M34.065,40.5
			c-1.697-3.912-3.928-7.598-5.035-11.762c-0.727-2.719-2.184-5.201-2.219-8.158c-0.01-0.8,0.205-1.497,0.498-2.155l-0.441-0.006
			c-4.215,1.468-8.479,0.361-12.715,0.469c-1.936,0.049-4.093-1.001-6.006,0.252l-0.399,0.175c0.494,0.996,0.87,2.048,1.045,3.196
			c0.644,4.201,3.072,7.549,4.753,11.214c1.724,3.759,4.295,7.202,7.821,9.626c2.022,1.391,4.325,1.766,6.698,0.748"/>
	</g>
</g>
<g id="crown">
	<g>
		<path fill="none" stroke="#000000" stroke-linecap="round" stroke-linejoin="round" stroke-miterlimit="10" d="M16.306,6.42
			c-1.12-1.279-2.262-2.541-3.354-3.844c-1.813-2.162-5.103-3.084-8.216-0.537c-0.404,0.33-0.941,0.663-1.383,1.029
			C2.432,3.832,0.905,4.003,0.931,5.7c0.027,1.828,0.682,3.412,1.416,5.058c1.376,3.083,3.918,5.57,5.4,8.558l0.399-0.175
			c1.913-1.253,4.07-0.203,6.006-0.252c4.235-0.107,8.5,0.999,12.715-0.469l0.44,0.006c0.502-1.131,1.237-2.146,1.479-3.365
			l0.959-1.44c1.082-3.479-0.519-6.053-2.59-8.68c-2.05-2.599-4.774-3.305-7.731-3.524c-2.731-0.202-3.375,0.406-4.318,3.204"/>
		<path fill="none" stroke="#000000" stroke-linecap="round" stroke-linejoin="round" stroke-miterlimit="10" d="M18.707,9.061
			c-1.222,0.389-0.594,1.704-1.2,2.399"/>
		<path fill="none" stroke="#000000" stroke-linecap="round" stroke-linejoin="round" stroke-miterlimit="10" d="M15.827,9.54
			c0.72,1.104,0.874,2.321,0.72,3.601"/>
	</g>
</g>
</svg>
