<?xml version="1.0" encoding="utf-8"?>
<!-- Generator: Adobe Illustrator 16.0.0, SVG Export Plug-In . SVG Version: 6.00 Build 0)  -->
<!DOCTYPE svg PUBLIC "-//W3C//DTD SVG 1.1//EN" "http://www.w3.org/Graphics/SVG/1.1/DTD/svg11.dtd">
<svg version="1.1" id="Layer_1" xmlns="http://www.w3.org/2000/svg" xmlns:xlink="http://www.w3.org/1999/xlink" x="0px" y="0px"
	 width="40px" height="93px" viewBox="0 0 34.996 70.75" enable-background="new 0 0 34.996 70.75" xml:space="preserve">
<g>
	<path id="cervical" fill="none" d="M3.186,9.081c0.184,1.211,0.549,2.271,1.094,3.172c0.786,1.298,1.355,2.638,1.74,4.094
		c0.07,0.269,0.347,0.426,0.611,0.356c0.063-0.018,0.119-0.044,0.169-0.081c0.036-0.001,0.074-0.006,0.111-0.017
		c1.141-0.288,2.136,0.108,3.332,1.331c1.876,1.917,3.55,2.834,5.381,2.834c1.047,0,2.144-0.3,3.357-0.885
		c2.498-1.204,6.048-1.476,8.255-0.634c0.186,0.07,0.355,0.146,0.519,0.231c0.178,0.094,0.394,0.073,0.549-0.053
		c2.729-2.213,4.384-5.475,5.053-9.97c0.019-0.126,0.029-0.254,0.043-0.381L3.186,9.081L3.186,9.081z"/>
</g>
<g id="root">
	<g>
		<path fill="none" stroke="#000000" stroke-linecap="round" stroke-linejoin="round" stroke-miterlimit="10" d="M27.428,19.242
			c0.043,4.902-0.346,9.761-0.816,14.652c-0.629,6.491-3.621,11.532-7.563,16.322c-0.975,1.185-2.016,1.482-3.384,0.907
			c-0.067-2.287,0.676-4.393,1.676-6.447c2.117-4.355,3.682-8.908,4.558-13.678c0.428-2.334-1.047-5.381-2.632-5.503
			c-1.333-0.104-2.521,0.483-3.333,1.444c-2.752,3.252-4.894,6.835-6.063,11.01c-0.964,3.439-3.667,12.93-3.766,13.224
			c-0.374,1.104-0.89,1.735-2.201,1.447c-1.355-0.298-1.661-1.15-1.977-2.404c-0.663-2.64-0.231-5.362,0.461-7.646
			c1.521-5.024,3.301-9.979,4.127-15.174c0.602-3.781,0.949-7.531-0.014-11.177l0.286-0.098c1.614-0.411,2.833,0.466,3.813,1.466
			c2.642,2.698,4.89,3.426,8.165,1.849c2.725-1.313,6.38-1.516,8.648-0.649L27.428,19.242z"/>
	</g>
</g>
<g id="crown">
	<g>
		<path fill="none" stroke="#000000" stroke-linecap="round" stroke-linejoin="round" stroke-miterlimit="10" d="M6.503,16.22
			c-0.376-1.426-0.953-2.836-1.795-4.226C3.513,10.02,3.389,7.479,3.674,5.082c0.307-2.581,3.041-4.82,5.515-4.563
			c1.083,0.113,1.781,0.926,2.636,1.448c2.449,1.494,4.98,2.791,7.911,1.638C21.266,3.003,22.881,2.6,24.32,1.74
			c1.327-0.795,2.764-0.942,4.314-0.521c3.574,0.979,4.684,5.104,4.229,8.167c-0.545,3.658-1.815,7.178-4.873,9.655
			c-0.18-0.095-0.371-0.182-0.574-0.258c-2.27-0.866-5.924-0.662-8.647,0.649c-3.273,1.577-5.522,0.851-8.165-1.849
			c-0.979-1-2.199-1.877-3.813-1.466"/>
		<path fill="none" stroke="#000000" stroke-linecap="round" stroke-linejoin="round" stroke-miterlimit="10" d="M17.828,4.361
			c0.608,1.736,0.14,3.521,0.24,5.28"/>
		<path fill="none" stroke="#000000" stroke-linecap="round" stroke-linejoin="round" stroke-miterlimit="10" d="M21.908,11.321
			c-0.16,0.08-0.266-0.116-0.486-0.222c-3.683-1.732-4.074-1.611-6.473,1.902"/>
	</g>
</g>
</svg>
