<?xml version="1.0" encoding="utf-8"?>
<!-- Generator: Adobe Illustrator 16.0.0, SVG Export Plug-In . SVG Version: 6.00 Build 0)  -->
<!DOCTYPE svg PUBLIC "-//W3C//DTD SVG 1.1//EN" "http://www.w3.org/Graphics/SVG/1.1/DTD/svg11.dtd">
<svg version="1.1" id="Layer_1" xmlns="http://www.w3.org/2000/svg" xmlns:xlink="http://www.w3.org/1999/xlink" x="0px" y="0px"
	 width="40px" height="93px" viewBox="0 0 34.996 70.75" enable-background="new 0 0 34.996 70.75" xml:space="preserve">
<g>
	<path id="cervical" fill="none" d="M7.704,9.16c0.107,1.773,0.535,3.366,0.891,4.517c0.164,0.531,0.444,1.021,0.834,1.457
		c0.559,0.626,1.306,1.103,2.22,1.416c2.941,1.005,5.973,1.761,9.01,2.248c0.817,0.131,1.599,0.197,2.345,0.197
		c1.28,0,2.465-0.195,3.573-0.586c1.416-0.499,2.738-1.34,3.931-2.497c1.6-1.554,2.992-4.132,3.668-6.751L7.704,9.16L7.704,9.16z"/>
</g>
<g id="root">
	<g>
		<path fill="none" stroke="#000000" stroke-linecap="round" stroke-linejoin="round" stroke-miterlimit="10" d="M16.89,28.68
			c-0.802,4.599-2.604,8.701-6.004,11.996c-0.854,0.827-1.71,1.65-2.604,2.44c-1.499,1.325-3.111,1.81-5.075,1.672
			c-1.832-0.127-2.935-1.312-2.106-2.881c1.135-2.15,1.809-4.521,3.722-6.338c1.767-1.679,1.971-4.319,2.44-6.654
			c0.814-4.063,1.466-8.155,2.186-12.235l0.353-1.88c0.471,0.528,1.138,0.978,2.009,1.275c2.933,1.002,5.913,1.743,8.93,2.228
			c2,0.321,3.895,0.261,5.674-0.367L26.73,18.6c1.094,1.813,0.479,6.24,0.479,6.24c-0.494,3.687-1.615,7.167-3.611,10.312
			c-1.932,3.04-4.144,5.886-6.988,8.118c-0.664,0.521-6.915,4.205-8.6,2.45"/>
		<path fill="none" stroke="#000000" stroke-linecap="round" stroke-linejoin="round" stroke-miterlimit="10" d="M8.103,43.182
			c0,0-0.521,1.354-0.458,1.75c0.063,0.396,0.313,0.707,0.313,0.707"/>
	</g>
</g>
<g id="crown">
	<g>
		<path fill="none" stroke="#000000" stroke-linecap="round" stroke-linejoin="round" stroke-miterlimit="10" d="M20.01,3.72
			c0.268-1.904-1.438-1.691-2.411-2.135C13.257-0.394,8.633,2.52,8.22,7.318c-0.185,2.164,0.244,4.242,0.852,6.211
			c0.138,0.446,0.38,0.881,0.729,1.271c0.471,0.528,1.138,0.978,2.009,1.275c2.933,1.002,5.913,1.743,8.929,2.228
			c2,0.321,3.895,0.261,5.674-0.367c1.313-0.462,2.563-1.231,3.748-2.384c2.793-2.714,4.889-8.61,3.529-12.072
			c-0.748-1.907-3.32-3.622-5.465-2.743c-2.035,0.836-4.791,0.528-6.055,2.983"/>
		<path fill="none" stroke="#000000" stroke-linecap="round" stroke-linejoin="round" stroke-miterlimit="10" d="M21.209,9
			c-1.335,0.219-1.425,2.101-2.88,2.16"/>
		<path fill="none" stroke="#000000" stroke-linecap="round" stroke-linejoin="round" stroke-miterlimit="10" d="M21.691,7.081
			c0,0.96,0.07,1.927-0.02,2.878c-0.113,1.209,0.639,1.21,1.459,1.202"/>
		<path fill="none" stroke="#000000" stroke-linecap="round" stroke-linejoin="round" stroke-miterlimit="10" d="M19.706,3.847
			c0,0,0.96-0.708,1.793-0.438c0.832,0.27,0.813,1.083,0.813,1.083"/>
	</g>
</g>
</svg>
