<?xml version="1.0" encoding="utf-8"?>
<!-- Generator: Adobe Illustrator 16.0.0, SVG Export Plug-In . SVG Version: 6.00 Build 0)  -->
<!DOCTYPE svg PUBLIC "-//W3C//DTD SVG 1.1//EN" "http://www.w3.org/Graphics/SVG/1.1/DTD/svg11.dtd">
<svg version="1.1" id="Layer_1" xmlns="http://www.w3.org/2000/svg" xmlns:xlink="http://www.w3.org/1999/xlink" x="0px" y="0px"
	 width="40px" height="93px" viewBox="0 0 34.996 70.75" enable-background="new 0 0 34.996 70.75" xml:space="preserve">
<g>
	<path id="cervical" fill="none" d="M11.217,11.277c0.35,3.4,0.952,6.386,1.125,6.866c0.539,1.503,0.923,3.143,1.175,5.014
		c0.027,0.198,0.168,0.36,0.36,0.415l0.508,0.142c1.069,0.346,2.035,0.521,2.873,0.521c1.168,0,2.144-0.337,2.895-1.003
		c1.058-0.936,1.675-2.486,1.89-4.741c0.114-1.206,0.594-2.432,0.866-3.618c0.269-1.166-0.129-2.371,0.871-3.586
		c0-0.002,0-0.005,0-0.008H11.217V11.277z"/>
</g>
<g id="root">
	<g>
		<path fill="none" stroke="#000000" stroke-linecap="round" stroke-linejoin="round" stroke-miterlimit="10" d="M14.012,23.09
			c0.255,1.887,0.348,3.794,0.39,5.67c0.058,2.595-0.322,5.269-0.344,7.917c-0.031,4.108,0.476,8.175,0.96,12.24l0.24,0.96
			c0.633,1.88,1.659,3.471,3.36,4.561l0.479,0.239c1.021-0.374,1.129-1.163,1.234-2.155c0.581-5.367-0.158-10.725-0.033-16.082v-2.4
			c0.133-2.248-0.313-4.469-0.299-6.721c0.01-1.357,0.791-2.72,0.059-4.079l-0.237-0.382c-1.157,1.025-2.896,1.153-5.281,0.382
			L14.012,23.09z"/>
	</g>
</g>
<g id="crown">
	<g>
		<path fill="none" stroke="#000000" stroke-linecap="round" stroke-linejoin="round" stroke-miterlimit="10" d="M14.012,23.09
			c-0.233-1.736-0.604-3.456-1.199-5.116c-0.526-1.466-3.142-16.896,0.767-17.296c3.908-0.4,3.52,0,5.279,0l1.438,0.24
			c2.226,0.285,3.219,1.156,3.348,3.121c0.158,2.431-0.502,4.797-0.756,7.193c-0.258,2.424-1.115,4.786-1.348,7.21
			c-0.199,2.09-0.761,3.562-1.723,4.414c-1.157,1.025-2.896,1.153-5.281,0.382L14.012,23.09z"/>
	</g>
</g>
</svg>
