<?xml version="1.0" encoding="utf-8"?>
<!-- Generator: Adobe Illustrator 16.0.0, SVG Export Plug-In . SVG Version: 6.00 Build 0)  -->
<!DOCTYPE svg PUBLIC "-//W3C//DTD SVG 1.1//EN" "http://www.w3.org/Graphics/SVG/1.1/DTD/svg11.dtd">
<svg version="1.1" id="Layer_1" xmlns="http://www.w3.org/2000/svg" xmlns:xlink="http://www.w3.org/1999/xlink" x="0px" y="0px"
	 width="40px" height="93px" viewBox="0 0 34.996 70.75" enable-background="new 0 0 34.996 70.75" xml:space="preserve">
<g>
	<path id="cervical" fill="none" d="M2.882,9.634c0.034,0.196,0.061,0.388,0.103,0.588c0.388,1.826,1.229,3.455,2.042,5.03
		C5.52,16.207,6.03,17.194,6.421,18.2c0.251,0.646,0.959,0.944,1.514,1.178l0.352,0.15c1.148,0.511,2.314,0.759,3.564,0.759
		c1.104,0,2.26-0.197,3.536-0.602l0.584-0.191c1.33-0.443,2.602-0.781,3.948-0.349c0.418,0.134,0.906,0.202,1.452,0.202
		c2.434,0,5.451-1.307,6.426-2.431c0.204-0.235,0.334-0.474,0.383-0.708c0.25-1.198,0.601-2.397,0.938-3.56
		c0.286-0.982,0.565-1.996,0.806-3.017L2.882,9.634L2.882,9.634z"/>
</g>
<g id="root">
	<g>
		<path fill="none" stroke="#000000" stroke-linecap="round" stroke-linejoin="round" stroke-miterlimit="10" d="M30.365,50.675
			c0.729-0.073,0.878-0.684,0.943-1.2c0.455-3.666,1.135-7.228,0.621-11.057c-0.867-6.463-1.299-12.966-3.453-19.193
			c-0.271-0.78,0.222-1.81-0.752-2.39l-0.306-0.244c-1.104,1.272-5.161,2.78-7.348,2.079c-1.854-0.597-3.242,0.033-4.836,0.539
			c-2.232,0.709-4.459,0.88-6.746-0.138c-0.13-0.058-0.266-0.114-0.4-0.17l-0.286,0.333c-0.24,0.16-0.224,0.342-0.254,0.477
			c-1.035,4.582,0.218,9.072,1.134,13.41c0.862,4.08,1.071,8.264,2.317,12.322c0.883,2.882,2.129,5.011,4.479,6.677
			c1.579,1.118,2.643,0.802,2.873-0.968c0.244-1.889-0.018-3.895-0.787-5.479c-2.771-5.707-2.612-11.736-2.585-17.799
			c0.003-0.685,0.304-1.06,0.684-1.379c5.846,2.91,7.971,8.815,10.994,13.922c0.793,1.339,1.3,3.142,1.417,4.972
			c0.099,1.523,0.276,3.271,1.537,4.598"/>
	</g>
</g>
<g id="crown">
	<g>
		<path fill="none" stroke="#000000" stroke-linecap="round" stroke-linejoin="round" stroke-miterlimit="10" d="M16.007,4.064
			c1.108,0.892,2.291,0.074,3.066-0.919c1.938-2.479,4.679-2.865,7.442-2.553c1.756,0.2,2.651,2.015,3.045,3.543
			c0.386,1.503,0.344,3.232,0.023,4.768c-0.502,2.424-1.385,4.764-1.896,7.205c-0.03,0.152-0.125,0.315-0.271,0.482
			c-1.104,1.272-5.163,2.78-7.348,2.079c-1.855-0.597-3.242,0.033-4.836,0.539c-2.232,0.709-4.459,0.88-6.746-0.138
			c-0.13-0.058-0.266-0.114-0.4-0.17c-0.526-0.222-1.037-0.455-1.204-0.882c-1.042-2.678-2.806-5.039-3.413-7.901
			C1.37,0.197,10.307-0.647,16.007,4.064z"/>
		<path fill="none" stroke="#000000" stroke-linecap="round" stroke-linejoin="round" stroke-miterlimit="10" d="M18.126,8.435
			c-0.259,1.485,1.307,2.771,0.479,4.319"/>
	</g>
</g>
</svg>
