<?xml version="1.0" encoding="utf-8"?>
<!-- Generator: Adobe Illustrator 16.0.0, SVG Export Plug-In . SVG Version: 6.00 Build 0)  -->
<!DOCTYPE svg PUBLIC "-//W3C//DTD SVG 1.1//EN" "http://www.w3.org/Graphics/SVG/1.1/DTD/svg11.dtd">
<svg version="1.1" id="Layer_1" xmlns="http://www.w3.org/2000/svg" xmlns:xlink="http://www.w3.org/1999/xlink" x="0px" y="0px"
	 width="40px" height="93px" viewBox="-5.788 -25.005 34.996 69.991" enable-background="new -5.788 -25.005 34.996 69.991"
	 xml:space="preserve">
<g>
	<g>
		<path id="cervical" fill="none" d="M22.983,35.979c-0.69-2.31-2.159-4.579-4.133-6.273c-2.243-1.932-4.829-2.868-7.246-2.627
			c-0.067-0.016-0.165-0.009-0.331-0.02c-1.391-0.085-5.602-0.352-7.271,1.088l-0.204,0.115c-0.114,0.063-0.198,0.169-0.234,0.294
			c-0.25,0.851-0.566,1.505-0.992,2.063c-1.24,1.621-2.059,3.506-2.394,5.358h22.805V35.979z"/>
	</g>
</g>
<g id="root">
	<g>
		<path fill="none" stroke="#000000" stroke-linecap="round" stroke-linejoin="round" stroke-miterlimit="10" d="M4.039,28.711
			c0.483-1.634,0.583-3.42,1.265-5.009c0.33-0.771,0.547-1.772,0.868-2.578c1.154-2.892,0.681-5.222-1.181-7.765
			c-1.847-2.521-3.959-5.173-3.005-8.833c0.376-1.441,1.223-2.475,2.449-2.534C5.883,1.921,7.227,2.59,7.333,4.538
			c0.21,3.822,0.703,7.645-0.503,11.4"/>
		<path fill="none" stroke="#000000" stroke-linecap="round" stroke-linejoin="round" stroke-miterlimit="10" d="M4.293,28.557
			c1.722-1.561,7.068-0.953,7.337-0.979c2.504-0.243,4.984,0.832,6.979,2.58l0.221-0.179c0.701-0.69,0.445-1.577,0.479-2.399
			c0.165-4.263,0.054-8.517-0.739-12.715c-0.377-1.992-1.471-3.765-2.442-5.487C14.93,7.259,14.52,4.633,12.351,3.1l-0.48-0.24
			c-0.56-0.479-1.076-1.026-1.688-1.427C8.134,0.094,7.402,0.022,6.35,2.379"/>
	</g>
</g>
<g id="crown">
	<g>
		<path fill="none" stroke="#000000" stroke-linecap="round" stroke-linejoin="round" stroke-miterlimit="10" d="M4.67,44.379
			c1.958,0.461,3.651-0.653,4.702-1.772c1.69-1.797,2.306-1.463,4.418-0.146c2.111,1.315,5.279,0.479,5.279,0.479
			c2.563-0.334,3.978-2.023,3.843-4.561c-0.285-5.392-5.728-11.342-11.283-10.803c-0.269,0.026-5.615-0.58-7.337,0.979l-0.256,0.157
			c-0.232,0.784-0.553,1.533-1.069,2.208C0.052,34.735-1.104,41.09,4.19,44.14L4.67,44.379z"/>
	</g>
</g>
</svg>
