<?xml version="1.0" encoding="utf-8"?>
<!-- Generator: Adobe Illustrator 16.0.0, SVG Export Plug-In . SVG Version: 6.00 Build 0)  -->
<!DOCTYPE svg PUBLIC "-//W3C//DTD SVG 1.1//EN" "http://www.w3.org/Graphics/SVG/1.1/DTD/svg11.dtd">
<svg version="1.1" id="Layer_1" xmlns="http://www.w3.org/2000/svg" xmlns:xlink="http://www.w3.org/1999/xlink" x="0px" y="0px"
	 width="40px" height="93px" viewBox="-7.396 -12.393 34.995 69.991" enable-background="new -7.396 -12.393 34.995 69.991"
	 xml:space="preserve">
<g>
	<path id="cervical" fill="none" d="M20.188,46.172c0.092-3.162-1.104-5.967-2.273-8.68c-0.296-0.688-0.593-1.373-0.866-2.065
		c-0.014-0.032-0.033-0.069-0.054-0.101c-0.002-0.003-0.187-0.278-0.353-0.891c-0.072-0.267-0.345-0.423-0.613-0.353
		c-0.08,0.021-0.146,0.066-0.203,0.119c-0.096-0.042-0.199-0.063-0.311-0.04c-0.597,0.129-1.211-0.087-1.859-0.316
		c-0.871-0.313-1.857-0.66-2.945-0.176l-0.798,0.002c-1.413-0.138-2.801,0.185-4.364,1.018c-0.037,0.02-0.063,0.05-0.093,0.077
		c-0.078-0.056-0.166-0.096-0.268-0.098c-0.312,0.014-0.505,0.214-0.511,0.489c-0.034,1.549-0.494,2.987-1.447,4.527
		c-0.484,0.78-0.883,1.614-1.269,2.422c-0.345,0.722-0.702,1.466-1.114,2.16c-0.379,0.64-0.62,1.276-0.743,1.901h20.084V46.172z"/>
</g>
<g id="root">
	<g>
		<path fill="none" stroke="#000000" stroke-linecap="round" stroke-linejoin="round" stroke-miterlimit="10" d="M15.144,5.373
			c2.42-0.908,1.516-2.865,1.672-4.424c-2.017-1.177-3.075,0.244-4.313,1.064"/>
		<path fill="none" stroke="#000000" stroke-linecap="round" stroke-linejoin="round" stroke-miterlimit="10" d="M5.17,35.33
			c0.043-1.06-0.109-2.165-0.457-3.354c-0.548-1.877,0.461-4.29,1.44-5.883c2.162-3.515,2.631-7.229,2.739-11.12
			C8.988,11.529,8.644,8.058,9.42,4.662c0.146-0.638,0.188-1.297,0.395-1.944c0.367-1.148,1.106-1.479,1.94-0.904
			c1.311,0.904,2.965,2.159,3.012,3.564c0.098,2.864,0.748,5.648,0.363,8.664c-0.416,3.269-1.179,6.632-0.756,10.058
			c0.409,3.315,1.057,6.571,1.646,9.85c0.041,0.231,0.088,0.436,0.137,0.615l-0.534,0.09c-1.651,0.363-3.099-1.328-4.8-0.48h-0.96
			c-1.47-0.145-2.805,0.281-4.08,0.96L5.17,35.33z"/>
	</g>
</g>
<g id="crown_1_">
	<g>
		<path fill="none" stroke="#000000" stroke-linecap="round" stroke-linejoin="round" stroke-miterlimit="10" d="M5.783,35.132
			c1.275-0.679,2.61-1.104,4.08-0.96h0.96c1.701-0.848,3.146,0.845,4.8,0.48l0.534-0.09c0.197,0.731,0.426,1.05,0.426,1.05
			c1.391,3.499,3.313,6.859,3.104,10.799c-0.166,3.184-1.086,5.965-4.294,7.463c-1.141,0.533-2.146,1.324-3.147,2.117
			c-2.364,1.864-5.21,1.311-6.952-1.173c-1.314-1.872-2.733-3.67-4.064-5.53c-1.127-1.576-0.817-3.309,0.046-4.765
			c0.886-1.491,1.479-3.121,2.378-4.571c0.946-1.529,1.453-3.023,1.517-4.623L5.783,35.132z"/>
	</g>
</g>
</svg>
