<?xml version="1.0" encoding="utf-8"?>
<!-- Generator: Adobe Illustrator 16.0.0, SVG Export Plug-In . SVG Version: 6.00 Build 0)  -->
<!DOCTYPE svg PUBLIC "-//W3C//DTD SVG 1.1//EN" "http://www.w3.org/Graphics/SVG/1.1/DTD/svg11.dtd">
<svg version="1.1" id="Layer_1" xmlns="http://www.w3.org/2000/svg" xmlns:xlink="http://www.w3.org/1999/xlink" x="0px" y="0px"
	 width="40px" height="93px" viewBox="0 0 34.996 70.75" enable-background="new 0 0 34.996 70.75" xml:space="preserve">
<g>
	<path id="cervical" fill="none" d="M8.73,14.183c0.188,0.457,0.382,0.907,0.581,1.351c0.549,1.22,1.066,2.371,1.271,3.646
		c0.206,1.271,0.46,2.552,0.707,3.791c0.338,1.7,0.688,3.459,0.911,5.196c0.026,0.206,0.178,0.374,0.38,0.422l0.463,0.108
		c0.932,0.316,1.876,0.35,2.79,0.383c0.8,0.029,1.555,0.058,2.305,0.259c0.317,0.085,0.625,0.129,0.911,0.129
		c0.789,0,1.481-0.329,2.063-0.98c0.613-0.692,1.152-1.794,1.694-3.468l0.4-1.238c1.021-3.155,2.069-6.379,3.132-9.599H8.73z"/>
</g>
<g id="root">
	<g>
		<path fill="none" stroke="#000000" stroke-linecap="round" stroke-linejoin="round" stroke-miterlimit="10" d="M10.805,66.864
			c1.286,0.172,2.626-0.595,2.765-1.458c0.305-1.914,2.05-2.596,2.733-4.071c0.207-0.444,0.404-0.923,0.561-1.412
			c1.569-4.973,3.21-9.955,3.668-15.147c0.169-1.916,1.158-3.781,0.586-5.748c-0.657-2.25-0.66-4.441-0.055-6.737
			c0.313-1.189,0.611-2.588-0.178-3.824l-0.146-0.308c-0.662,0.744-1.445,0.977-2.471,0.701c-1.7-0.459-3.428-0.078-5.063-0.633
			l-0.508-0.121c0.147,1.15,0.245,2.31,0.256,3.479c0.051,5.2,0.046,10.4,0,15.602c-0.032,3.696-1.022,7.23-1.813,10.82
			c-0.58,2.641-2.068,5.264-1.057,8.141"/>
	</g>
</g>
<g id="crown">
	<g>
		<path fill="none" stroke="#000000" stroke-linecap="round" stroke-linejoin="round" stroke-miterlimit="10" d="M12.697,28.103
			c-0.39-3.022-1.134-5.995-1.62-9.004c-0.454-2.813-2.368-5.089-2.66-7.916c-0.097-0.94-1.029-1.662-1.008-3.895
			c0.021-2.167,3.923-3.14,6.074-4.438c2.056-1.242,4.151-3.18,6.91-1.962c2.899,1.278,5.619,2.853,6.971,5.978l0.224,1.996
			c-1.8,5.319-3.524,10.664-5.257,16.006c-0.49,1.518-0.992,2.614-1.594,3.29c-0.662,0.744-1.445,0.977-2.471,0.701
			c-1.7-0.459-3.428-0.078-5.063-0.633L12.697,28.103z"/>
	</g>
</g>
</svg>
