<?xml version="1.0" encoding="utf-8"?>
<!-- Generator: Adobe Illustrator 16.0.0, SVG Export Plug-In . SVG Version: 6.00 Build 0)  -->
<!DOCTYPE svg PUBLIC "-//W3C//DTD SVG 1.1//EN" "http://www.w3.org/Graphics/SVG/1.1/DTD/svg11.dtd">
<svg version="1.1" id="Layer_1" xmlns="http://www.w3.org/2000/svg" xmlns:xlink="http://www.w3.org/1999/xlink" x="0px" y="0px"
	 width="40px" height="93px" viewBox="-11.125 -12.313 34.995 69.991"
	 enable-background="new -11.125 -12.313 34.995 69.991" xml:space="preserve">
<g>
	<path id="cervical" fill="none" d="M12.575,44.819c-0.287-3.045-0.914-6.041-1.529-8.959c-0.215-1.024-0.432-2.049-0.633-3.075
		c-0.055-0.271-0.314-0.449-0.588-0.395c-0.07,0.014-0.137,0.043-0.193,0.083c-0.041-0.026-0.088-0.046-0.139-0.06l-0.32-0.072
		c-0.198-0.045-0.398-0.088-0.592-0.156c-1.824-0.654-3.338-0.67-4.5-0.055c-1.124,0.596-1.923,1.783-2.374,3.529
		c-0.79,3.055-1.225,6.15-1.459,9.158L12.575,44.819L12.575,44.819z"/>
</g>
<g id="root">
	<g>
		<path fill="none" stroke="#000000" stroke-linecap="round" stroke-linejoin="round" stroke-miterlimit="10" d="M9.852,0.5
			C10.481,4.214,9.6,7.862,9.4,11.542c-0.317,5.834-0.96,11.626-0.132,17.533c0.186,1.328,0.424,2.647,0.686,3.963L9.372,32.9
			c-0.32-0.08-0.648-0.133-0.959-0.244c-2.265-0.812-3.957-0.598-5.071,0.705l0.03-0.221c0.037-0.619-0.597-0.83-0.78-1.422
			c-1.383-4.466-0.949-8.961-0.393-13.455c0.178-1.44,0.077-3.001,0.53-4.296c1.123-3.203,2.776-6.218,3.946-9.408
			c0.598-1.628,1.429-2.818,2.937-3.58"/>
	</g>
</g>
<g id="crown_1_">
	<g>
		<path fill="none" stroke="#000000" stroke-linecap="round" stroke-linejoin="round" stroke-miterlimit="10" d="M9.954,33.039
			c0.936,4.729,2.158,9.412,2.276,14.262c0.056,2.238-0.022,5.482-0.219,6.722c-0.197,1.238-1.658,1.783-2.88,1.438
			c-0.57-0.16-0.862,0.953-2.145,0.797c-0.918-0.11-0.707,0.609-2.416,0.884c-1.709,0.275-4.03-1.054-4.06-3.359
			c-0.072-6.055,0.155-12.098,1.68-17.997c0.267-1.031,0.65-1.838,1.151-2.424c1.114-1.303,2.807-1.516,5.072-0.705
			c0.31,0.111,0.639,0.164,0.959,0.244L9.954,33.039z"/>
	</g>
</g>
</svg>
