<?xml version="1.0" encoding="utf-8"?>
<!-- Generator: Adobe Illustrator 16.0.0, SVG Export Plug-In . SVG Version: 6.00 Build 0)  -->
<!DOCTYPE svg PUBLIC "-//W3C//DTD SVG 1.1//EN" "http://www.w3.org/Graphics/SVG/1.1/DTD/svg11.dtd">
<svg version="1.1" id="Layer_1" xmlns="http://www.w3.org/2000/svg" xmlns:xlink="http://www.w3.org/1999/xlink" x="0px" y="0px"
	 width="40px" height="93px" viewBox="0 0 34.996 70.75" enable-background="new 0 0 34.996 70.75" xml:space="preserve">
<g>
	<path id="cervical" fill="none" d="M10.141,11.181c-0.117,2.863,0.056,5.7,0.54,8.483c0.099,0.566,0.493,1.193,1.171,1.86
		c1.444,1.424,4.241,3.018,6.241,3.111c0.278,0.013,0.558,0.018,0.835,0.018l1.33-0.253l0.666-0.219c0.006,0,0.014,0,0.02,0
		c0.252,0,0.466,0.054,0.496-0.197l0.056-0.365c0.352-3.376,1.327-6.762,2.271-10.094c0.227-0.797,0.447-1.538,0.668-2.344H10.141z"
		/>
</g>
<g id="root">
	<g>
		<path fill="none" stroke="#000000" stroke-linecap="round" stroke-linejoin="round" stroke-miterlimit="10" d="M12.203,21.169
			c1.471,1.449,4.164,2.885,5.914,2.967c0.718,0.034,1.438,0.006,2.159,0.006l0.667,0.023c-0.378,3.108-1.249,6.195-1.08,9.333
			c0.068,1.307-0.62,2.325-0.617,3.604c0.009,2.783,0.349,5.506,1.089,8.146c0.391,1.387-0.548,2.832,0.422,4.097l0.162,0.526
			c0.653,4.237,2.973,8.624-0.699,12.698c-2.854-1.207-3.492-4.059-4.403-6.543c-0.388-1.053-0.581-2.239-1.048-3.326
			c-1.022-2.381-0.971-4.914-0.97-7.438c0-3.279-0.013-6.561,0.004-9.841c0.014-2.705-0.856-5.275-1.168-7.924
			c-0.232-1.987-1.258-3.924-0.517-5.996L12.203,21.169z"/>
	</g>
</g>
<g id="crown">
	<g>
		<path fill="none" stroke="#000000" stroke-linecap="round" stroke-linejoin="round" stroke-miterlimit="10" d="M20.276,24.142
			c-0.722,0-1.441,0.028-2.159-0.006c-1.75-0.082-4.443-1.518-5.914-2.967c-0.562-0.553-0.945-1.108-1.029-1.591
			c-0.865-4.966-0.746-9.935,0.236-14.874c0.353-1.776,0.72-3.603,3.366-2.964c0.307,0.073,1.119,0.001,1.676-0.375
			c1.936-1.311,4.121-1.067,5.67,0.301c1.496,1.321,3.085,2.999,2.713,5.437c-0.078,0.51-0.719,3.359-0.719,3.359
			c-1.175,4.387-2.659,8.804-3.118,13.226c-0.017,0.16-0.034,0.319-0.055,0.479L20.276,24.142z"/>
	</g>
</g>
</svg>
