<?xml version="1.0" encoding="utf-8"?>
<!-- Generator: Adobe Illustrator 16.0.0, SVG Export Plug-In . SVG Version: 6.00 Build 0)  -->
<!DOCTYPE svg PUBLIC "-//W3C//DTD SVG 1.1//EN" "http://www.w3.org/Graphics/SVG/1.1/DTD/svg11.dtd">
<svg version="1.1" id="Layer_1" xmlns="http://www.w3.org/2000/svg" xmlns:xlink="http://www.w3.org/1999/xlink" x="0px" y="0px"
	 width="40px" height="93px" viewBox="-3.402 -16.392 34.996 69.992" enable-background="new -3.402 -16.392 34.996 69.992"
	 xml:space="preserve">
<g>
	<g>
		<path id="cervical" fill="none" d="M27.924,43.11c-0.557-2.434-1.814-5.188-2.011-5.604c-1.065-4.436-3.237-4.817-6.683-5.075
			c-2.527-0.188-5.905-0.142-8.885-0.102c-1.182,0.018-2.307,0.031-3.302,0.031c-0.031,0-0.061,0.014-0.091,0.02
			c-0.256-0.084-0.529,0.053-0.619,0.307c-0.578,1.617-1.413,3-2.554,4.228c-1.642,1.768-2.799,3.91-3.377,6.198h27.521
			L27.924,43.11L27.924,43.11z"/>
		<path fill="#0099CC" d="M17.982,53.11c0.679,0.293,1.413,0.482,2.235,0.482c0.62,0,1.288-0.1,2.012-0.324
			c0.094-0.029,0.162-0.09,0.221-0.158H17.982z"/>
	</g>
</g>
<g id="root">
	<g>
		<path fill="none" stroke="#000000" stroke-linecap="round" stroke-linejoin="round" stroke-miterlimit="10" d="M17.759,20.391
			c0.601-1.776,1.884-3.186,2.478-5.016c0.568-1.748,0.4-3.102-0.812-4.33c-0.954-0.968-1.082-2.222-1.135-3.377
			c-0.095-2.1-1.17-3.838-1.729-5.758c-0.282-0.965-1.321-1.466-1.906-1.356c0,0-2.111-1.214-2.627,7.847
			c-0.167,0.475-0.006,1.011-0.497,1.444c-1.608,1.421-1.524,3.115-0.476,4.776c1.347,2.135,2.01,4.585,3.256,6.78
			c0.468,0.824,2.541,0.654,1.526,2.351"/>
		<path fill="none" stroke="#000000" stroke-linecap="round" stroke-linejoin="round" stroke-miterlimit="10" d="M10.56,11.031
			C9.107,9.558,9.058,7.394,7.95,5.73C7.438,4.96,7.165,4.091,6,4.311c0,0-5.08,2.925-0.231,16.078
			c0.79,2.849,2.383,5.488,1.934,8.646c-0.189,1.332-0.461,2.598-0.889,3.801l0.231,0.024c3.521,0,8.65-0.192,12.15,0.068
			c1.477,0.109,2.652,0.239,3.594,0.674l0.012-0.252c-0.129-5.017,2.922-9.272,3.371-14.159c0.318-3.457,0.609-6.924-0.285-10.313
			C25.246,6.46,24.491,5.845,22.08,4.79c-1.53,0.489-1.313,1.783-1.162,2.875c0.16,1.14,0.563,2.227-0.518,3.125"/>
		<path fill="none" stroke="#000000" stroke-linecap="round" stroke-linejoin="round" stroke-miterlimit="10" d="M17.519,20.871
			c-0.479,0.48-0.959,0.96-1.439,1.44"/>
	</g>
</g>
<g id="crown_1_">
	<g>
		<path fill="none" stroke="#000000" stroke-linecap="round" stroke-linejoin="round" stroke-miterlimit="10" d="M22.561,52.551
			c3.789-0.825,5.098-3.118,5.131-7.438c0.02-2.631-2.252-7.44-2.252-7.44c-0.561-2.355-1.395-3.484-2.65-4.066
			c-0.939-0.436-2.117-0.564-3.594-0.674c-3.5-0.263-8.63-0.068-12.15-0.068l-0.231-0.025c-0.563,1.58-1.394,3.051-2.665,4.417
			c-2.1,2.259-3.425,5.168-3.639,8.341c-0.229,3.424,3.771,6.875,7.16,6.188c0.958-0.195,2.201,0.223,2.891-0.91l0.479-0.24
			c0.668-0.609,1.336-1.223,2.252-2.063c2.396,2.203,4.546,5.551,8.788,4.225L22.561,52.551z"/>
	</g>
</g>
</svg>
