<?xml version="1.0" encoding="utf-8"?>
<!-- Generator: Adobe Illustrator 16.0.0, SVG Export Plug-In . SVG Version: 6.00 Build 0)  -->
<!DOCTYPE svg PUBLIC "-//W3C//DTD SVG 1.1//EN" "http://www.w3.org/Graphics/SVG/1.1/DTD/svg11.dtd">
<svg version="1.1" id="Layer_1" xmlns="http://www.w3.org/2000/svg" xmlns:xlink="http://www.w3.org/1999/xlink" x="0px" y="0px"
	 width="40px" height="93px" viewBox="0 0 34.996 70.75" enable-background="new 0 0 34.996 70.75" xml:space="preserve">
<path id="cervical" fill="none" d="M7.92,10.632c0.048,0.104,0.099,0.203,0.153,0.302c0.099,0.176,0.176,0.314,0.241,0.572
	c0.37,1.447,0.953,2.805,1.518,4.12c0.459,1.071,0.935,2.178,1.276,3.303c0.106,0.341,0.169,0.609,0.159,0.891
	c-0.005,0.182,0.088,0.353,0.245,0.446l0.252,0.149c2.457,1.552,4.347,2.215,6.318,2.215l0,0c1.273,0,2.563-0.291,3.944-0.889
	c0.157-0.069,0.317-0.143,0.48-0.22c0.103-0.048,0.185-0.13,0.231-0.23l0.017-0.046c1.179-1.645,1.794-3.531,2.391-5.355
	c0.376-1.157,0.767-2.353,1.294-3.456c0.254-0.53,0.543-1.139,0.784-1.801L7.92,10.632L7.92,10.632z"/>
<g>
	<path fill="none" stroke="#000000" stroke-linecap="round" stroke-linejoin="round" stroke-miterlimit="10" d="M11.434,20.997
		c0.229-0.45,0.322-0.819,0.333-1.161l0.265,0.157c3.3,2.084,6.094,2.896,9.796,1.29l0.284,0.63c1.823,2.96-0.172,5.911-0.063,8.883
		c0.147,4.023-1.361,7.843-2.146,11.748c-0.563,2.801-0.61,5.606-0.624,8.41c-0.015,2.985-1.132,5.125-3.615,6.769
		c-0.859,0.569-1.731,0.584-2.403,0.352c-0.696-0.244-0.979-1.151-1.024-2.078c-0.128-2.607,0.255-5.148,0.763-7.682
		c0.77-3.847,0.709-7.681-0.005-11.521c-0.662-3.569,0.069-7.219-0.667-10.811c-0.32-1.57-0.592-3.181-0.774-4.789L11.434,20.997z"
		/>
</g>
<g>
	<path fill="none" stroke="#000000" stroke-linecap="round" stroke-linejoin="round" stroke-miterlimit="10" d="M12.032,19.993
		c3.3,2.084,6.094,2.896,9.796,1.29c0.153-0.067,0.31-0.138,0.467-0.213l0.059-0.117c1.875-2.615,2.269-5.87,3.639-8.735
		c0.906-1.893,2.15-4.507,0.339-7.197c-0.774-1.149-1.624-1.353-2.544-1.815c-2.58-1.296-5.047-2.831-8.156-2.696
		c-1.984,0.084-3.511,0.438-4.883,2.136c-0.381,0.472-2.258,1.27-2.704,2.346C7.327,6.72,8.091,8.82,8.091,8.82
		c0.063,1.828,0.474,1.646,0.708,2.563c0.663,2.589,2.019,4.876,2.788,7.4c0.11,0.364,0.19,0.693,0.18,1.053L12.032,19.993z"/>
</g>
</svg>
