<?xml version="1.0" encoding="utf-8"?>
<!-- Generator: Adobe Illustrator 16.0.0, SVG Export Plug-In . SVG Version: 6.00 Build 0)  -->
<!DOCTYPE svg PUBLIC "-//W3C//DTD SVG 1.1//EN" "http://www.w3.org/Graphics/SVG/1.1/DTD/svg11.dtd">
<svg version="1.1" id="Layer_1" xmlns="http://www.w3.org/2000/svg" xmlns:xlink="http://www.w3.org/1999/xlink" x="0px" y="0px"
	 width="40px" height="93px" viewBox="0 0 34.996 70.75" enable-background="new 0 0 34.996 70.75" xml:space="preserve">
<g>
	<path id="cervical" fill="none" d="M7.132,10.161c0.271,0.949,0.697,1.847,1.153,2.677c1.328,2.415,2.703,4.912,3.128,7.719
		c0.026,0.179,0.147,0.329,0.317,0.393l0.251,0.095c0.045,0.018,0.093,0.027,0.142,0.031l0.314,0.026
		c1.168,0.115,2.036,0.407,2.816,0.946c1.101,0.76,2.454,0.893,3.599,0.328c0.823-0.407,1.619-0.335,2.355,0.186l0.378,0.282
		c0.087,0.066,0.191,0.101,0.3,0.101c0.039,0,0.077-0.004,0.116-0.014c0.146-0.034,0.267-0.132,0.332-0.265
		c0.229-0.461,0.536-0.935,0.939-1.448c2.486-3.151,4.734-6.677,4.531-11.059L7.132,10.161L7.132,10.161z"/>
</g>
<g id="root">
	<g>
		<path fill="none" stroke="#000000" stroke-linecap="round" stroke-linejoin="round" stroke-miterlimit="10" d="M21.885,22.445
			c-0.395,0.796-0.605,1.626-0.632,2.596c-0.057,2.098,0.296,3.559-0.268,6.184l0.04,0.777c-0.423,1.941-0.236,7.289-0.218,8.159
			c0.077,3.287-0.678,6.369-1.941,9.36c0,0-0.596,1.646-0.753,1.898c-1.265,2.048-2.762,3.954-4.807,5.236
			c-0.626,0.393-1.909,0.26-1.87-1.137c0.06-2.16-0.254-4.338,0.232-6.479c0.701-3.086,1.771-6.099,1.466-9.363
			c-0.163-1.743-0.042-3.517-0.025-5.276c0.022-2.349-0.091-4.714-0.771-6.945c-0.654-2.146-0.57-4.174,0.048-6.254l0.1-0.598
			c1.05,0.104,2.079,0.361,3.052,1.033c0.842,0.58,1.986,0.836,3.093,0.29c0.986-0.485,1.964-0.413,2.877,0.233L21.885,22.445z"/>
	</g>
</g>
<g id="crown">
	<g>
		<path fill="none" stroke="#000000" stroke-linecap="round" stroke-linejoin="round" stroke-miterlimit="10" d="M11.907,20.481
			c-0.435-2.878-1.823-5.414-3.184-7.885C7.495,10.363,6.789,8.172,7.87,5.861c1.392-2.979,3.459-5.164,7.154-5.349
			c3.015-0.151,5.468,1.11,7.907,2.478c1.076,0.603,3.829,1.94,4.682,3.463c0.729,1.302-0.362,2.821-0.328,3.229
			c0.386,4.475-1.84,7.979-4.401,11.229c-0.406,0.517-0.739,1.02-0.996,1.535l-0.378-0.283c-0.913-0.646-1.891-0.72-2.877-0.232
			c-1.106,0.545-2.251,0.289-3.093-0.291c-0.973-0.672-2.001-0.93-3.052-1.033c-0.108-0.012-0.219-0.021-0.328-0.028L11.907,20.481z
			"/>
	</g>
</g>
</svg>
