<?xml version="1.0" encoding="utf-8"?>
<!-- Generator: Adobe Illustrator 16.0.0, SVG Export Plug-In . SVG Version: 6.00 Build 0)  -->
<!DOCTYPE svg PUBLIC "-//W3C//DTD SVG 1.1//EN" "http://www.w3.org/Graphics/SVG/1.1/DTD/svg11.dtd">
<svg version="1.1" id="Layer_1" xmlns="http://www.w3.org/2000/svg" xmlns:xlink="http://www.w3.org/1999/xlink" x="0px" y="0px"
	 width="40px" height="93px" viewBox="-8.273 -13.502 34.994 69.991" enable-background="new -8.273 -13.502 34.994 69.991"
	 xml:space="preserve">
<g>
	<path id="cervical" fill="none" d="M18.087,44.547c-0.108-0.549-0.213-1.075-0.263-1.61c-0.492-5.232-2.795-8.894-7.038-11.188
		c-0.095-0.051-0.196-0.061-0.294-0.049c-0.084-0.143-0.229-0.244-0.406-0.252c-1.309-0.039-2.458,0.403-3.569,0.84
		c-0.7,0.275-1.36,0.535-2.055,0.676c-1.165,0.236-1.295,1.369-1.391,2.197c-0.033,0.28-0.063,0.547-0.124,0.743
		c-0.297,0.968-0.646,1.949-0.983,2.898c-0.661,1.859-1.331,3.764-1.692,5.744L18.087,44.547L18.087,44.547z"/>
</g>
<g id="root">
	<g>
		<path fill="none" stroke="#000000" stroke-linecap="round" stroke-linejoin="round" stroke-miterlimit="10" d="M7.429,1.468
			C6.915,5.446,6.59,9.465,5.021,13.225c-0.297,0.713-0.247,1.438-0.227,2.163c0.102,3.683-0.27,7.378,0.441,11.047
			c0.182,0.938-0.075,1.908-0.361,2.897c-0.34,1.178-0.271,2.558,0.154,3.814l0.053,0.18c1.669-0.468,3.188-1.443,4.987-1.379
			l0.479,0.24c1.146,0.619,2.129,1.334,2.966,2.141l0.395-0.221c0.58-0.439,0.492-1.076,0.479-1.68
			c-0.092-3.952-0.576-7.884-1.275-11.747c-0.651-3.595-1.445-7.149-1.332-10.813c0.044-1.385,0.05-2.763-0.299-4.074
			c-0.655-2.472-1.17-5.188-4.773-4.834C6.327,0.998,5.911,0.663,5.513,0.5C4.275,3.001,4.502,6.751,5.989,8.428"/>
	</g>
</g>
<g id="crown_1_">
	<g>
		<path fill="none" stroke="#000000" stroke-linecap="round" stroke-linejoin="round" stroke-miterlimit="10" d="M3.829,54.987
			c-2.391-1.807-3.228-4.408-3.322-7.201c-0.14-4.146,1.736-7.879,2.919-11.734c0.265-0.862,0.013-2.369,1.136-2.598
			c0.175-0.035,0.348-0.078,0.52-0.127c1.669-0.468,3.188-1.443,4.986-1.379l0.48,0.24c1.145,0.619,2.129,1.334,2.965,2.141
			c2.301,2.219,3.481,5.131,3.813,8.652c0.174,1.842,0.924,3.569,0.487,5.541c-0.285,1.299-0.487,2.405-1.739,3.117
			c-2.339,1.325-4.533,2.899-6.966,4.067"/>
		<path fill="none" stroke="#000000" stroke-linecap="round" stroke-linejoin="round" stroke-miterlimit="10" d="M4.309,55.228
			c1.266,1.282,2.876,0.506,4.32,0.723"/>
	</g>
</g>
</svg>
