<?xml version="1.0" encoding="utf-8"?>
<!-- Generator: Adobe Illustrator 16.0.0, SVG Export Plug-In . SVG Version: 6.00 Build 0)  -->
<!DOCTYPE svg PUBLIC "-//W3C//DTD SVG 1.1//EN" "http://www.w3.org/Graphics/SVG/1.1/DTD/svg11.dtd">
<svg version="1.1" id="Layer_1" xmlns="http://www.w3.org/2000/svg" xmlns:xlink="http://www.w3.org/1999/xlink" x="0px" y="0px"
	 width="40px" height="93px" viewBox="-5.685 -10.563 34.995 69.991" enable-background="new -5.685 -10.563 34.995 69.991"
	 xml:space="preserve">
<g>
	<path id="cervical" fill="none" d="M23.334,46.583c-0.336-3.182-1.045-6.125-2.822-8.848c-0.242-0.367-0.455-0.762-0.67-1.152
		c-0.643-1.182-1.309-2.401-2.682-3.067c-0.553-0.271-1.102-0.554-1.649-0.838c-2.429-1.257-4.94-2.557-7.934-2.595l-2.79,0.084
		c-0.27,0.008-0.484,0.229-0.485,0.498c-0.007,2.456-0.517,4.946-1.515,7.401c-1.168,2.875-1.96,5.701-2.394,8.518H23.334z"/>
</g>
<g id="root">
	<g>
		<path fill="none" stroke="#000000" stroke-linecap="round" stroke-linejoin="round" stroke-miterlimit="10" d="M7.592,30.582
			c3.506,0.045,6.36,1.926,9.351,3.381c0.195,0.097,0.375,0.204,0.542,0.324l0.188-0.345c1.236-2.442,0.371-5.008,0.156-7.434
			c-0.643-7.2-2.268-14.31-1.85-21.608c0.113-1.988-1.352-3.121-2.587-4.401c-1.217,0.699-1.982,1.656-2.189,2.963
			c-0.552,3.48-2.579,6.297-4.052,9.376C4.725,17.911,4.228,23.359,4.726,28.9c0.054,0.596,0.079,1.188,0.077,1.775L7.592,30.582z"
			/>
	</g>
</g>
<g id="crown_1_">
	<g>
		<path fill="none" stroke="#000000" stroke-linecap="round" stroke-linejoin="round" stroke-miterlimit="10" d="M6.153,58.663
			c-0.41-0.502-0.962-0.199-1.441-0.229c-2.168-0.125-3.895-1.746-4.082-3.854c-0.505-5.666,0.486-11.072,2.62-16.328
			c0.988-2.435,1.542-4.959,1.553-7.579l2.789-0.094c3.506,0.045,6.36,1.926,9.351,3.381c0.195,0.096,0.375,0.204,0.542,0.324
			c1.256,0.9,1.773,2.445,2.607,3.723c2.594,3.969,2.863,8.508,3.029,12.975c0.148,4.072-3.037,7.781-7.851,6.959"/>
		<path fill="none" stroke="#000000" stroke-linecap="round" stroke-linejoin="round" stroke-miterlimit="10" d="M14.792,58.181
			c-2.674,0.754-5.412,0.797-8.16,0.721"/>
	</g>
</g>
</svg>
