<?xml version="1.0" encoding="utf-8"?>
<!-- Generator: Adobe Illustrator 16.0.0, SVG Export Plug-In . SVG Version: 6.00 Build 0)  -->
<!DOCTYPE svg PUBLIC "-//W3C//DTD SVG 1.1//EN" "http://www.w3.org/Graphics/SVG/1.1/DTD/svg11.dtd">
<svg version="1.1" id="Layer_1" xmlns="http://www.w3.org/2000/svg" xmlns:xlink="http://www.w3.org/1999/xlink" x="0px" y="0px"
	 width="40px" height="93px" viewBox="-4.157 -23.039 34.995 69.991" enable-background="new -4.157 -23.039 34.995 69.991"
	 xml:space="preserve">
<g>
	<g>
		<path id="cervical" fill="none" d="M25.936,37.899c-0.854-1.172-1.506-2.507-2.139-3.8c-0.611-1.256-1.247-2.554-2.072-3.738
			c-0.115-0.163-0.313-0.248-0.514-0.202l-0.389,0.083c-0.559,0.054-1.084,0.229-1.594,0.396c-0.918,0.305-1.711,0.565-2.575,0.135
			l-0.48-0.24c-0.078-0.04-0.171-0.061-0.257-0.053c-2.889,0.195-7.177-0.398-9.852-1.063l-0.153-0.064
			c-0.198-0.082-0.429-0.03-0.571,0.133c-0.004,0.005-0.03,0.031-0.117,0.063c-0.113,0.04-0.208,0.119-0.269,0.225L4.05,31.358
			c-2.232,1.617-2.965,4.147-3.612,6.385l-0.235,0.803c-0.313,1.044,0.149,0.354,0.149,0.354h26"/>
		<path fill="#0099CC" d="M17.41,46.899c0.313,0.031,0.628,0.052,0.941,0.052c0.313,0,0.627-0.021,0.939-0.052H17.41z"/>
		<path fill="#0099CC" d="M7.336,46.899c0.016,0,0.03,0.002,0.045,0.002c0.016,0,0.031-0.002,0.046-0.002H7.336z"/>
	</g>
</g>
<g id="root">
	<g>
		<path fill="none" stroke="#000000" stroke-linecap="round" stroke-linejoin="round" stroke-miterlimit="10" d="M13.072,3.86
			c0,0.24-0.102,0.563,0.015,0.708c2.539,3.16,2.13,6.907,2.155,10.572c0.002,0.32-1.66,5.611-1.45,8.16
			c0,0-0.378-2.088-0.878-3.619c-0.5-1.531-1.282-2.621-1.282-2.621c-0.575-1.437-0.972-2.863-2.104-4.129
			C6.416,9.456,6.326,5.408,8.032,1.22l0.48-0.72c1.467,1.674,2.979,2.811,5.507,3.029C16.685,3.758,18.7,5.9,19.758,8.434
			c1.668,3.997,1.742,8.202,1.268,12.47c-0.258,2.3-0.904,4.612-0.289,7.006"/>
		<path fill="none" stroke="#000000" stroke-linecap="round" stroke-linejoin="round" stroke-miterlimit="10" d="M20.752,28.1
			c-1.193,0.641-0.188,1.569,0.059,1.875c0.172,0.215,0.336,0.437,0.494,0.66l-0.434,0.104c-1.48,0.143-2.854,1.274-4.438,0.479
			l-0.48-0.24c-2.916,0.195-7.238-0.391-10.079-1.101l-0.138-0.082c0.269-0.332,0.008-0.841,0.147-1.213
			c1.54-4.081,0.375-7.889-0.903-11.787c-0.632-1.924-2.147-3.491-2.028-5.74c-1.225-8.346,4.4-8.252,4.4-8.252"/>
	</g>
</g>
<g id="crown">
	<g>
		<path fill="none" stroke="#000000" stroke-linecap="round" stroke-linejoin="round" stroke-miterlimit="10" d="M12.352,44.181
			c-4.466,3.112-5.896,2.744-9.116,0.234c-1.865-1.453-3.248-3.412-2.552-5.729c0.753-2.51,1.331-5.295,3.749-6.985l0.96-1.681
			c0.146-0.053,0.25-0.119,0.321-0.196l0.159,0.056c2.841,0.71,7.163,1.296,10.079,1.102l0.48,0.239
			c1.583,0.794,2.958-0.338,4.438-0.479l0.455-0.072c1.651,2.373,2.503,5.188,4.204,7.527c1.031,1.413,0.813,3.776-0.489,4.991
			c-0.785,0.729-1.578,1.463-2.369,2.192l-0.479,0.24c-2.561,1.108-5.12,1.108-7.679,0l-0.48-0.24
			c-1.486-1.813-2.445-3.813-2.16-6.239"/>
	</g>
</g>
</svg>
