<?xml version="1.0" encoding="utf-8"?>
<!-- Generator: Adobe Illustrator 16.0.0, SVG Export Plug-In . SVG Version: 6.00 Build 0)  -->
<!DOCTYPE svg PUBLIC "-//W3C//DTD SVG 1.1//EN" "http://www.w3.org/Graphics/SVG/1.1/DTD/svg11.dtd">
<svg version="1.1" id="Layer_1" xmlns="http://www.w3.org/2000/svg" xmlns:xlink="http://www.w3.org/1999/xlink" x="0px" y="0px"
	 width="40px" height="93px" viewBox="-3.949 -19.185 34.996 69.991" enable-background="new -3.949 -19.185 34.996 69.991"
	 xml:space="preserve">
<g>
	<path id="cervical" fill="none" d="M26.943,40.265c-0.221-1.462-0.715-2.863-1.711-4.168c-0.65-0.853-1.406-1.627-2.139-2.377
		c-0.335-0.343-0.669-0.685-0.992-1.035c-0.022-0.024-0.055-0.039-0.08-0.059c-0.025-0.117-0.09-0.229-0.194-0.303
		c-0.228-0.159-0.537-0.107-0.698,0.115c-0.04,0.058-0.102,0.115-0.18,0.176c-0.209,0.155-0.342,0.126-0.818-0.082
		c-0.132-0.058-0.268-0.115-0.406-0.165c-1.856-0.655-3.827-1.098-5.564-1.487c-0.561-0.125-0.902-0.297-1.176-0.594
		c-0.113-0.122-0.271,0.022-0.423,0.041c-0.087-0.148-0.241-0.063-0.426-0.063h-4.8c-0.184,0-0.337-0.086-0.424,0.062
		c-0.084-0.011-0.17-0.102-0.253-0.065l-1.646,0.658c-0.124-0.027-0.259-0.032-0.375,0.042c-0.232,0.148-0.301,0.44-0.15,0.674
		c0,0.094-0.199,0.352-0.306,0.493L4.073,32.27c-1.509,2.058-2.353,4.437-3.17,6.736c-0.149,0.422-0.299,0.841-0.452,1.261h26.492
		V40.265z"/>
</g>
<g id="root">
	<g>
		<path fill="none" stroke="#000000" stroke-linecap="round" stroke-linejoin="round" stroke-miterlimit="10" d="M17.895,12.385
			c-1.551-0.708-2.125-2.235-2.585-3.618c-0.868-2.616-0.854-5.422-1.345-8.156c-2.393-0.382-3.256,0.161-2.963,2.646
			c0.334,2.83-0.919,5.28-1.255,7.93c-0.02,0.147-0.021,0.307-0.252,0.48c-3.559,2.698-0.854,5.668-0.14,8.372
			c0.533,2.019,3.325,2.318,4.92,0.728c2.362-2.357,3.723-5.124,3.946-8.615c0.188-2.957,0.842-5.898,0.602-8.883
			c0,0-0.049-1.086,0.265-1.481c0.313-0.396,0.968-0.081,0.968-0.081c3.127,1.651,4.291,5.427,3.689,9.015
			c-0.818,4.895-3.335,9.362-3.424,14.385c-0.035,2.028,0.182,4.077,0.953,5.991c0.24,0.598,0.65,1.148,0.229,1.677
			c-0.063,0.081-0.146,0.161-0.256,0.241c-0.592,0.44-1.081,0.039-1.689-0.176c-1.788-0.631-3.653-1.055-5.509-1.471
			c-0.577-0.129-1.046-0.322-1.435-0.743l-0.48-0.24c-1.6,0-3.199,0-4.8,0l-0.479,0.24c-0.561,0.239-1.119,0.479-1.681,0.72
			l-0.223,0.1c-0.011-0.026-0.025-0.056-0.043-0.083c-1.063-1.651-0.543-3.587-0.771-5.317c-0.412-3.134-2.009-6.009-1.986-9.099
			c0.018-2.643-1.083-5.175-0.192-7.95C2.795,6.39,4.086,4.209,5.94,2.351c0.261-0.64,1.455-1.697,1.876-0.147
			c0.622,2.292,0.484,7.938,0.719,9.942"/>
	</g>
</g>
<g id="crown_1_">
	<g>
		<path fill="none" stroke="#000000" stroke-linecap="round" stroke-linejoin="round" stroke-miterlimit="10" d="M23.654,48.865
			c-4.487,1.926-8.236,0.774-9.174-3.358c-2.438,1.195-3.351,4.313-6.187,4.799h-1.92c-2.521-0.695-4.865-1.589-5.525-4.559
			c-0.394-1.768-0.555-3.604,0.056-5.264c0.997-2.717,1.828-5.543,3.573-7.922c0.271-0.371,0.623-0.758,0.475-1.117l0.223-0.1
			c0.562-0.24,1.12-0.479,1.681-0.72l0.479-0.24c1.601,0,3.2,0,4.8,0l0.48,0.24c0.389,0.421,0.856,0.614,1.435,0.743
			c1.854,0.416,3.721,0.84,5.509,1.471c0.608,0.215,1.101,0.616,1.689,0.176c0.107-0.08,0.191-0.16,0.256-0.241l0.23,0.251
			c1.039,1.121,2.178,2.166,3.101,3.375c1.901,2.494,1.868,5.453,1.681,8.385c-0.105,1.648-1.279,2.749-2.381,3.842L23.654,48.865z"
			/>
	</g>
</g>
</svg>
