<?xml version="1.0" encoding="utf-8"?>
<!-- Generator: Adobe Illustrator 16.0.0, SVG Export Plug-In . SVG Version: 6.00 Build 0)  -->
<!DOCTYPE svg PUBLIC "-//W3C//DTD SVG 1.1//EN" "http://www.w3.org/Graphics/SVG/1.1/DTD/svg11.dtd">
<svg version="1.1" id="Layer_1" xmlns="http://www.w3.org/2000/svg" xmlns:xlink="http://www.w3.org/1999/xlink" x="0px" y="0px"
	 width="40px" height="93px" viewBox="-8.414 -11.939 34.994 69.991" enable-background="new -8.414 -11.939 34.994 69.991"
	 xml:space="preserve">
<g>
	<path id="cervical" fill="none" d="M18.084,46.084c-0.009-0.278-0.023-0.562-0.023-0.84c-0.002-4.445-1.594-7.33-4.859-8.824l-0.217-0.101
		c-2.9-1.325-6.189-2.829-9.578-0.399l-0.35,0.136c-0.178,0.065-0.302,0.229-0.319,0.42c-0.02,0.213-0.056,0.414-0.092,0.614
		c-0.08,0.449-0.169,0.951-0.085,1.541c-0.387,0.705-1.89,3.537-1.948,5.187c-0.016,0.451-0.103,1.188-0.203,2.041
		C0.4,45.931,0.391,46.01,0.382,46.084H18.084z"/>
</g>
<g id="root">
	<g>
		<path fill="none" stroke="#000000" stroke-linecap="round" stroke-linejoin="round" stroke-miterlimit="10" d="M3.231,36.565
			c0.022-0.217,0.029-0.443,0.004-0.688c-0.205-1.986-0.019-3.982,0.357-6.004C5.133,21.603,4.315,4.177,4.315,4.177
			c0.05-0.133,0.001-0.726-0.11-1.426c-0.121-0.758,0.419-1.646,1.139-2.12C5.847,0.3,6.837,0.67,6.944,0.876
			c1.266,2.438,3.567,4.391,4.271,6.958c1.144,4.176,1.306,8.556,1.104,12.931c-0.17,3.639,0.244,7.235,1.093,10.817
			c0.442,1.869,2.006,3.606,1.034,5.742l-0.145,0.295c-0.394-0.275-0.828-0.522-1.311-0.744c-2.997-1.369-6.096-2.883-9.346-0.513
			L3.231,36.565z"/>
	</g>
</g>
<g id="crown_1_">
	<g>
		<path fill="none" stroke="#000000" stroke-linecap="round" stroke-linejoin="round" stroke-miterlimit="10" d="M3.646,36.364
			c3.25-2.371,6.349-0.857,9.346,0.512c0.481,0.221,0.917,0.469,1.312,0.744c2.479,1.734,3.256,4.504,3.258,7.625
			c0,1.438,0.152,2.857,0.09,4.322c-0.24,5.688-7.399,8.863-11.628,7.771c-2.169-0.563-3.858-1.33-5.016-3.215"/>
		<path fill="none" stroke="#000000" stroke-linecap="round" stroke-linejoin="round" stroke-miterlimit="10" d="M0.766,53.646
			c-0.737-2.672,0.282-8.062,0.345-9.812s1.971-5.112,1.971-5.112c-0.164-0.82,0.076-1.441,0.149-2.154"/>
	</g>
</g>
</svg>
